<svg width="103" height="103" viewBox="0 0 103 103" fill="none" xmlns="http://www.w3.org/2000/svg">
<circle cx="51.5" cy="51.5" r="51.5" fill="black"/>
<path fill-rule="evenodd" clip-rule="evenodd" d="M35.7482 46.2053H41.6438C42.849 46.2053 43.8709 46.7477 43.8744 47.9957V52.5785C43.8744 53.8274 42.8542 54.4518 41.6438 54.4518H35.7482V58H32.1549V54.4518H26.2628C25.0524 54.4518 24.0149 53.8274 24.0149 52.5785V47.9957C24.0149 46.7477 25.0524 46.2053 26.2628 46.2053H32.1549V42H35.7482V46.2053ZM28.4087 52.9075H32.1549V47.6182H28.4087C27.9003 47.6182 27.4577 47.8969 27.4577 48.5046V52.0043C27.4577 52.6446 27.8977 52.9075 28.4087 52.9075ZM39.4607 52.9075C40.0054 52.9075 40.448 52.6446 40.448 52.0043V48.5046C40.448 47.8969 40.0054 47.6182 39.4607 47.6182H35.7482V52.9075H39.4607Z" fill="white"/>
<path fill-rule="evenodd" clip-rule="evenodd" d="M20.2514 46.2053H10.0337V47.6182H17.9879C18.5326 47.6182 18.9925 47.8316 18.9925 48.4226V48.8336H12.1459C10.6986 48.8336 10 49.5727 10 50.5914V52.612C10 53.6298 10.6986 54.4535 12.1459 54.4535H22.3973V47.8643C22.3973 46.6983 21.4436 46.2053 20.2514 46.2053ZM18.9917 52.8907H14.4958C13.5595 52.8907 13.4056 52.5785 13.4056 52.0863V51.0819C13.4056 50.5889 13.6779 50.2766 14.4958 50.2766H18.9917V52.8907Z" fill="white"/>
<path d="M49.0506 51.9608C49.0778 51.5861 49.0824 51.2102 49.0645 50.8349V46.2053H45.4886V54.4518H49.0991L54.482 48.6762C54.4534 49.0336 54.4292 49.5852 54.4292 50.0155V54.4518H58.0051V46.2053H54.4292L49.0506 51.9608Z" fill="white"/>
<path fill-rule="evenodd" clip-rule="evenodd" d="M80.6365 46.2053H90.8541C92.049 46.2053 93 46.6983 93 47.8643V54.4535H82.5783C81.3013 54.4535 80.6027 53.5327 80.6027 52.612V50.5914C80.6027 49.5727 81.335 48.8336 82.5783 48.8336H89.5953V48.4226C89.5953 47.8316 89.1353 47.6182 88.5906 47.6182H80.6365V46.2053ZM84.9966 52.8907H89.5944V50.2792H84.9966C84.2815 50.2792 84.0083 50.6408 84.0083 51.0844V52.119C84.0083 52.3818 84.1622 52.8907 84.9966 52.8907Z" fill="white"/>
<path d="M75.4092 52.9075H71.1174V46.2053H67.5752V52.9075H63.3353V46.2053H59.7931V54.4518H78.9851V46.2053H75.4092V52.9075Z" fill="white"/>
</svg>
