<svg width="459" height="340" viewBox="0 0 459 340" fill="none" xmlns="http://www.w3.org/2000/svg">
<g clip-path="url(#clip0_2211_50)">
<mask id="mask0_2211_50" style="mask-type:luminance" maskUnits="userSpaceOnUse" x="-65" y="-40" width="633" height="410">
<path d="M518 -39.2651H-15C-42.6142 -39.2651 -65 -19.2883 -65 5.35428V324.829C-65 349.472 -42.6142 369.449 -15 369.449H518C545.614 369.449 568 349.472 568 324.829V5.35428C568 -19.2883 545.614 -39.2651 518 -39.2651Z" fill="white"/>
</mask>
<g mask="url(#mask0_2211_50)">
<path d="M56.97 184.464C56.97 184.464 -0.881817 164.696 11.7798 125.265C24.4414 85.8353 57.642 88.1136 57.642 88.1136C57.642 88.1136 82.484 87.9065 87.595 91.22C92.706 94.5379 56.97 184.464 56.97 184.464Z" fill="#FF931E"/>
<path d="M158.067 113.143C158.287 113.212 158.501 113.287 158.715 113.356C159.483 113.6 157.977 113.042 158.709 113.35C159.054 113.494 159.399 113.637 159.738 113.796C160.482 114.142 161.202 114.529 161.892 114.948C162.083 115.065 162.267 115.182 162.452 115.299C162.535 115.352 163.148 115.654 162.642 115.421C162.142 115.188 162.725 115.485 162.821 115.553C162.999 115.681 163.178 115.814 163.35 115.952C163.993 116.446 164.606 116.971 165.195 117.513C165.79 118.06 166.355 118.633 166.902 119.218C167.003 119.324 167.099 119.43 167.2 119.542C167.247 119.594 167.295 119.648 167.348 119.706C167.586 119.977 167.545 119.923 167.224 119.552C167.539 119.775 167.824 120.269 168.057 120.561C169.098 121.862 170.038 123.226 170.918 124.617C171.853 126.11 172.692 127.644 173.465 129.205C173.727 129.731 173.453 129.173 173.412 129.088C173.525 129.301 173.614 129.518 173.709 129.736C173.87 130.097 174.03 130.458 174.179 130.82C174.548 131.69 174.887 132.571 175.202 133.464C175.762 135.057 176.238 136.67 176.625 138.306C176.815 139.103 176.982 139.904 177.124 140.711C177.196 141.094 177.225 141.486 177.321 141.864C177.112 141.009 177.303 141.752 177.327 141.943C177.356 142.177 177.386 142.405 177.416 142.638C177.832 146.137 177.826 149.669 177.434 153.173C177.38 153.63 177.327 154.087 177.261 154.543C177.237 154.734 177.184 155.324 177.261 154.564C177.237 154.814 177.184 155.063 177.142 155.308C176.988 156.215 176.809 157.124 176.607 158.026C176.208 159.831 175.72 161.627 175.167 163.4C174.613 165.178 173.983 166.936 173.304 168.672C173.013 169.415 172.709 170.153 172.4 170.891C172.222 171.316 172.037 171.736 171.847 172.16C171.781 172.299 171.722 172.442 171.656 172.58C171.567 172.776 171.032 173.61 171.525 172.867C171.103 173.504 170.841 174.263 170.478 174.932C170.044 175.75 169.586 176.557 169.098 177.353C168.229 178.771 167.271 180.146 166.206 181.453C166.081 181.606 165.956 181.755 165.831 181.904C165.593 182.18 165.629 182.143 165.926 181.793C165.825 181.909 165.718 182.026 165.611 182.143C165.296 182.493 164.969 182.839 164.629 183.173C163.981 183.821 163.302 184.448 162.588 185.037C162.237 185.328 161.875 185.61 161.506 185.886C161.357 185.998 161.131 186.226 160.946 186.29C161.321 186.035 161.404 185.976 161.196 186.12C161.101 186.183 161.006 186.248 160.911 186.311C160.107 186.842 159.268 187.33 158.4 187.771C157.953 187.999 157.495 188.222 157.031 188.424C156.888 188.488 156.746 188.546 156.603 188.61C156.383 188.705 155.383 188.993 156.365 188.716C155.46 188.971 154.598 189.311 153.675 189.534C153.217 189.646 152.759 189.741 152.295 189.821C152.063 189.864 151.831 189.895 151.599 189.932C150.778 190.065 152.444 189.864 151.611 189.932C150.581 190.017 149.57 190.054 148.535 190.012C146.666 189.932 144.881 191.536 144.965 193.197C145.054 194.992 146.535 196.299 148.535 196.383C156.603 196.729 164.415 192.958 169.675 187.675C175.244 182.079 178.552 175.033 181.075 167.982C183.723 160.585 185.288 152.732 184.77 144.954C184.264 137.393 182.027 130.007 178.189 123.248C174.245 116.302 168.449 109.676 159.97 107C158.209 106.442 155.984 107.632 155.579 109.225C155.121 111.009 156.18 112.549 158.067 113.143Z" fill="#FF931E"/>
<path d="M343.51 207.189C343.998 214.405 337.185 220.023 329.944 222.099C326.41 223.113 321.62 223.814 318.413 221.637C314.772 219.168 313.73 213.662 313.022 209.929C312.195 205.575 312.058 201.046 312.118 196.633C312.172 192.535 312.826 188.557 315.724 185.238C321.763 178.321 332.396 177.142 341.511 178.411C346.378 179.09 348.478 172.437 343.57 171.752C333.657 170.371 323.084 170.993 314.801 176.557C306.507 182.133 304.252 190.049 304.401 198.97C304.544 207.37 305.014 217.83 311.101 224.733C317.092 231.524 327.814 230.653 335.769 227.419C344.54 223.851 351.858 216.152 351.251 207.184C350.948 202.771 343.207 202.745 343.51 207.189Z" fill="#FF931E"/>
<path d="M414.946 214.724C416.945 221.965 426.525 225.257 434.152 223.882C444.119 222.088 446.177 211.569 445.565 203.892C444.898 195.577 441.054 187.952 435.098 181.596C429.529 175.659 421.17 169.48 412.399 168.168C407.532 167.44 405.438 174.093 410.341 174.826C416.671 175.771 422.336 179.738 426.78 183.704C431.433 187.857 435.027 192.895 436.764 198.582C438.246 203.419 439.234 211.32 435.497 215.615C432.409 219.162 423.573 217.123 422.407 212.892C421.211 208.58 413.75 210.401 414.946 214.724Z" fill="#FF931E"/>
<path d="M418.557 240.746H335.852C331.925 240.746 328.712 237.879 328.712 234.374V160.569C328.712 157.065 331.925 154.198 335.852 154.198H418.557C422.484 154.198 425.697 157.065 425.697 160.569V234.374C425.697 237.879 422.484 240.746 418.557 240.746Z" fill="#FF931E"/>
<path d="M159.203 199.872C158.447 206.573 157.888 213.486 160.107 219.927C162.327 226.368 167.95 232.298 175.387 233.44C184.437 234.826 193.219 228.65 196.92 221.153C200.621 213.656 200.437 205.15 200.187 196.957C199.604 177.763 199.02 158.567 198.437 139.373" stroke="black" stroke-width="6" stroke-miterlimit="10" stroke-linecap="round" stroke-linejoin="round"/>
<path d="M36.538 290.233C60.005 289.485 81.163 275.26 92.837 257.079C104.511 238.899 107.837 217.304 107.343 196.352" stroke="black" stroke-width="6" stroke-miterlimit="10" stroke-linecap="round" stroke-linejoin="round"/>
<path d="M36.3 291.517C38.864 295.68 41.429 299.849 43.993 304.012" stroke="black" stroke-width="6" stroke-miterlimit="10" stroke-linecap="round" stroke-linejoin="round"/>
<path d="M132.916 201.475C146.214 243.242 153.646 286.5 154.973 329.907" stroke="black" stroke-width="6" stroke-miterlimit="10" stroke-linecap="round" stroke-linejoin="round"/>
<path d="M154.038 329.345C160.084 329.604 166.159 329.414 172.168 328.776" stroke="black" stroke-width="6" stroke-miterlimit="10" stroke-linecap="round" stroke-linejoin="round"/>
<path d="M53.031 194.371L164.713 206.334C171.764 207.088 177.44 201.258 175.625 195.13L157.138 132.906C155.538 127.527 159.762 122.159 165.974 121.676C172.674 121.156 176.922 115.018 174.441 109.437L133.767 17.956C130.78 11.2393 120.57 10.2729 116.072 16.2835L49.42 105.359C45.213 110.983 49.223 118.575 56.762 119.26L58.684 119.435C65.294 120.035 69.447 126.099 67.026 131.621L44.868 182.201C42.482 187.665 46.51 193.67 53.031 194.371Z" fill="#54ACFF"/>
<path d="M56.643 91.8831C62.617 93.7312 67.115 98.2074 70.435 103.008C76.147 111.269 79.128 121.012 78.914 130.719C78.753 138.083 76.796 145.347 73.987 152.271C71.69 157.936 68.733 163.517 64.098 167.898C59.457 172.272 52.906 175.337 46.165 175.007" stroke="#FF931E" stroke-width="6" stroke-miterlimit="10" stroke-linecap="round" stroke-linejoin="round"/>
<path d="M65.806 126.264C71.589 127.342 77.813 126.444 82.918 123.789C77.081 121.597 70.387 119.398 64.64 121.772C71.268 120.721 77.89 119.669 84.519 118.618C84.763 117.652 83.507 116.966 82.454 116.653C77.099 115.044 71.399 114.344 65.752 114.604" stroke="black" stroke-width="6" stroke-miterlimit="10" stroke-linecap="round" stroke-linejoin="round"/>
<path d="M177.678 129.927C185.139 128.271 193.63 131.701 197.146 137.802C191.535 137.744 185.948 136.639 180.831 134.584C185.24 134.765 189.578 136.103 193.172 138.386C193.707 138.725 194.26 139.13 194.439 139.692C194.927 141.243 192.535 142.14 190.738 142.31C186.781 142.687 182.83 143.064 178.874 143.446" stroke="black" stroke-width="6" stroke-miterlimit="10" stroke-linecap="round" stroke-linejoin="round"/>
<path d="M319.728 203.685C314.778 203.525 309.821 203.568 304.877 203.812C302.729 203.919 299.843 204.884 300.313 206.754C300.492 207.47 301.164 207.996 301.854 208.399C305.228 210.386 309.845 210.534 313.368 208.777C309.708 209.488 306.049 210.194 302.39 210.906C307.132 213.014 313.171 212.562 317.461 209.78" stroke="black" stroke-width="6" stroke-miterlimit="10" stroke-linecap="round" stroke-linejoin="round"/>
<path d="M312.017 212.849C313.01 227.79 317.872 242.286 322.697 256.617C324.208 261.099 326.576 266.313 331.711 267.226C334.71 267.762 337.84 266.53 340.041 264.629C342.243 262.733 343.665 260.244 344.938 257.764C352.584 242.902 356.416 226.485 356.053 210.136" stroke="black" stroke-width="6" stroke-miterlimit="10" stroke-linecap="round" stroke-linejoin="round"/>
<path d="M56.566 194.547C57.726 202.989 58.886 211.426 60.052 219.868C60.618 223.957 61.254 228.226 63.908 231.598C66.562 234.969 71.911 237.03 75.939 235.012C79.348 233.302 80.55 229.506 81.324 226.081C88.707 193.521 86.161 159.21 74.029 127.809" stroke="black" stroke-width="6" stroke-miterlimit="10" stroke-linecap="round" stroke-linejoin="round"/>
<path d="M366.37 216.598C366.65 249.693 366.929 282.789 367.209 315.889" stroke="black" stroke-width="6" stroke-miterlimit="10" stroke-linecap="round" stroke-linejoin="round"/>
<path d="M366.269 315.931C364.246 315.624 362.146 315.746 360.182 316.282" stroke="black" stroke-width="6" stroke-miterlimit="10" stroke-linecap="round" stroke-linejoin="round"/>
<path d="M385.464 216.062C386.868 248.775 386.785 281.541 385.214 314.249" stroke="black" stroke-width="6" stroke-miterlimit="10" stroke-linecap="round" stroke-linejoin="round"/>
<path d="M385.63 314.784C388.456 315.029 391.33 314.859 394.097 314.286" stroke="black" stroke-width="6" stroke-miterlimit="10" stroke-linecap="round" stroke-linejoin="round"/>
<path d="M408.633 217.67C407.366 235.017 415.059 252.731 429.095 264.783C430.761 266.212 433.076 267.656 435.188 266.822C436.425 266.333 437.145 265.187 437.722 264.098C442.625 254.79 442.97 244.149 443.077 233.865C443.191 222.529 443.119 211.193 442.857 199.861" stroke="black" stroke-width="6" stroke-miterlimit="10" stroke-linecap="round" stroke-linejoin="round"/>
<path d="M433.355 201.911C437.788 200.504 442.762 200.498 447.195 201.9C447.647 202.044 448.129 202.224 448.355 202.602C448.552 202.925 448.516 203.318 448.433 203.679C447.885 205.909 445.553 207.518 443.083 208.118C440.614 208.718 437.996 208.495 435.45 208.266C438.413 208.017 441.388 207.868 444.363 207.826C445.428 207.81 446.546 207.82 447.469 208.293C448.391 208.765 449.004 209.854 448.498 210.693C448.081 211.378 447.141 211.623 446.291 211.798C444.625 212.154 442.959 212.504 441.293 212.86" stroke="black" stroke-width="6" stroke-miterlimit="10" stroke-linecap="round" stroke-linejoin="round"/>
<path d="M334.591 213.497L420.872 218.706C426.59 219.051 430.701 213.89 428.458 209.186L413.036 176.818C410.882 172.293 414.601 167.282 420.104 167.282C426.007 167.282 429.702 161.589 426.774 157.023L380.239 84.4654C377.175 79.692 369.375 79.9205 366.668 84.8643L328.641 154.315C326.374 158.452 329.236 163.368 334.329 164.096L335.609 164.276C340.464 164.966 343.349 169.496 341.541 173.573L327.963 204.141C326.053 208.448 329.397 213.184 334.591 213.497Z" fill="#54ACFF"/>
<path d="M99.995 110.961C106.004 108.906 110.943 105.099 113.715 99.8635C115.346 96.7892 110.217 94.0924 108.58 97.1827C106.498 101.117 103.017 104.266 98.418 105.837C94.872 107.048 96.407 112.182 99.995 110.961Z" fill="black"/>
<path d="M109.556 105.959C116.315 111.163 125.806 113.409 134.564 111.885" stroke="black" stroke-width="6" stroke-miterlimit="10" stroke-linecap="round" stroke-linejoin="round"/>
<path d="M116.083 78.8212C115.125 79.1085 114.376 79.6288 113.977 80.473C113.685 81.0887 113.584 81.7741 113.816 82.4264C114.197 83.4937 115.119 84.3968 116.363 84.6833C117.892 85.0393 119.516 84.37 120.308 83.1653C120.778 82.4532 120.933 81.6411 120.95 80.8237C120.968 80.149 120.605 79.4164 120.082 78.9434C119.564 78.482 118.719 78.1367 117.975 78.1688C117.208 78.2001 116.411 78.4231 115.869 78.9434C115.328 79.469 115.012 80.0955 115 80.8237C114.994 80.9611 114.988 81.0941 114.971 81.2324C115.006 80.9986 115.042 80.7594 115.078 80.5256C115.054 80.6853 115.018 80.8335 114.953 80.9772C115.054 80.7648 115.155 80.5524 115.25 80.3454C115.209 80.4248 115.167 80.4944 115.107 80.5631C115.262 80.3828 115.417 80.207 115.572 80.0268C115.524 80.075 115.476 80.1169 115.423 80.1544C115.625 80.0161 115.821 79.8777 116.024 79.7403C115.988 79.7671 115.946 79.7876 115.899 79.8037C116.137 79.7135 116.375 79.6234 116.607 79.5386C116.577 79.5547 116.541 79.5592 116.506 79.5645C116.768 79.5333 117.035 79.5012 117.297 79.469C117.261 79.4744 117.232 79.4744 117.196 79.4744C117.458 79.5065 117.725 79.5386 117.987 79.5699C117.934 79.5645 117.892 79.5547 117.839 79.5333C118.077 79.6234 118.315 79.7135 118.547 79.7983C118.499 79.7769 118.457 79.7564 118.41 79.7242C118.612 79.8626 118.808 80 119.011 80.1383C118.969 80.1062 118.933 80.075 118.898 80.0375C119.052 80.2177 119.207 80.3935 119.362 80.5738C119.32 80.5203 119.284 80.473 119.255 80.4141C119.356 80.6264 119.457 80.8388 119.552 81.0459C119.534 81.0039 119.522 80.9665 119.516 80.9245C119.552 81.1574 119.588 81.3966 119.624 81.6304C119.618 81.6036 119.624 81.5769 119.624 81.5563C119.588 81.7892 119.552 82.0284 119.516 82.2622C119.522 82.2354 119.528 82.214 119.54 82.1935C119.439 82.4059 119.338 82.6183 119.243 82.8253C119.249 82.8146 119.255 82.8039 119.267 82.7932C119.112 82.9734 118.957 83.1492 118.802 83.3295C118.814 83.3188 118.82 83.3134 118.832 83.3027C118.63 83.4411 118.434 83.5794 118.231 83.7168C118.255 83.7007 118.279 83.6856 118.309 83.6749C118.071 83.765 117.833 83.8551 117.601 83.9399C117.618 83.9345 117.636 83.9292 117.648 83.9238C118.386 83.7007 119.029 83.3134 119.427 82.703C119.802 82.1346 119.957 81.2957 119.725 80.6586C119.493 80.0161 119.046 79.395 118.356 79.071C117.69 78.7685 116.839 78.5936 116.083 78.8212Z" fill="black"/>
<path d="M133.921 84.3593C134.546 86.6108 137.622 87.6727 139.83 86.526C141.026 85.904 141.466 84.6886 141.198 83.5258C140.966 82.5272 140.175 81.6991 139.247 81.152C138.878 80.9343 138.449 80.7808 138.021 80.6799C137.236 80.4988 136.706 80.563 135.921 80.6692C135.23 80.7647 134.481 81.3751 134.142 81.89C133.767 82.4585 133.612 83.2973 133.844 83.9345C134.076 84.577 134.522 85.1981 135.213 85.522C135.451 85.6122 135.689 85.7023 135.921 85.788C136.45 85.9147 136.974 85.9147 137.503 85.788C137.533 85.7826 137.563 85.7826 137.587 85.7773C137.325 85.8085 137.057 85.8406 136.795 85.8727C136.914 85.862 137.021 85.8674 137.14 85.8781C136.879 85.846 136.611 85.8139 136.349 85.7826C136.462 85.8031 136.569 85.8299 136.682 85.8674C136.444 85.7773 136.206 85.6871 135.974 85.6015C136.081 85.6443 136.176 85.697 136.278 85.7558C136.075 85.6175 135.879 85.4801 135.677 85.3418C135.796 85.4212 135.891 85.5113 135.986 85.6122C135.831 85.4319 135.677 85.257 135.522 85.0759C135.587 85.1615 135.647 85.2463 135.695 85.3418C135.593 85.1294 135.492 84.917 135.397 84.71C135.427 84.784 135.451 84.8528 135.468 84.9331C135.927 83.9345 136.379 82.9359 136.837 81.9329C136.795 81.9596 136.748 81.9802 136.7 81.9962C136.938 81.9061 137.176 81.816 137.408 81.7312C137.331 81.758 137.265 81.7731 137.188 81.7838C137.45 81.7526 137.717 81.7205 137.979 81.6883C137.872 81.6991 137.777 81.6937 137.67 81.683C137.932 81.7151 138.199 81.7472 138.461 81.7785C138.384 81.7624 138.312 81.7472 138.235 81.7258C138.473 81.8159 138.711 81.9061 138.943 81.9909C138.848 81.9543 138.759 81.9114 138.67 81.8588C138.872 81.9962 139.068 82.1345 139.27 82.2729C139.187 82.214 139.116 82.1506 139.05 82.081C139.205 82.2622 139.36 82.4371 139.514 82.6173C139.473 82.5593 139.437 82.5067 139.401 82.4371C139.502 82.6495 139.604 82.8618 139.699 83.0689C139.681 83.0269 139.663 82.9841 139.657 82.9359C139.479 82.2987 138.919 81.6776 138.289 81.3483C137.652 81.0146 136.712 80.8763 135.998 81.0833C134.433 81.5456 133.517 82.9154 133.921 84.3593Z" fill="black"/>
<path d="M377.86 168.216C374.724 170.063 374.403 174.19 377.592 176.159C380.519 177.965 385.053 176.42 385.642 173.239C386.303 169.687 382.858 166.676 378.859 167.515C375.384 168.243 373.23 172.103 375.295 174.896C376.461 176.478 378.58 177.216 380.644 176.733C382.75 176.239 383.952 174.747 384.196 172.889C384.381 171.503 382.697 170.175 381.221 170.234C379.454 170.303 378.443 171.407 378.246 172.889C378.288 172.554 378.318 172.273 378.562 171.991C378.627 171.879 378.722 171.795 378.847 171.737C379.038 171.62 379.067 171.593 378.936 171.667C378.639 171.816 379.573 171.53 379.061 171.614C379.21 171.588 379.698 171.609 379.305 171.577C379.764 171.651 379.877 171.667 379.645 171.62C379.49 171.582 379.526 171.598 379.746 171.672C379.847 171.731 380.46 172.172 380.091 171.832C380.269 171.996 380.37 172.145 380.46 172.358C380.263 171.901 380.466 172.729 380.466 172.416C380.466 172.135 380.228 172.973 380.466 172.459C380.608 172.156 380.489 172.395 380.412 172.559C380.603 172.124 380.198 172.783 380.406 172.57C380.662 172.304 380.043 172.851 380.37 172.623C380.662 172.421 379.936 172.867 380.442 172.639C380.281 172.713 379.96 172.714 380.359 172.682C379.609 172.734 380.454 172.734 380.126 172.633C379.775 172.527 380.501 172.968 379.942 172.517C380.21 172.734 379.99 172.559 379.865 172.421C380.198 172.777 379.746 172.129 379.841 172.395C379.96 172.724 379.823 171.906 379.817 172.246C379.811 172.549 380.037 171.742 379.829 172.187C379.906 172.023 380.085 171.789 379.871 172.061C379.948 171.917 380.061 171.805 380.21 171.726C380.382 171.62 380.4 171.609 380.263 171.683C379.966 171.832 380.924 171.555 380.299 171.656C380.507 171.625 380.835 171.662 380.466 171.62C380.87 171.688 380.959 171.699 380.739 171.656C380.585 171.62 380.602 171.636 380.799 171.705C380.989 171.789 381.013 171.795 380.87 171.731C380.68 171.636 380.739 171.683 381.049 171.879C380.757 171.667 381.037 171.837 381.138 171.991C381.186 172.097 381.233 172.198 381.281 172.304C381.215 172.076 381.209 172.077 381.251 172.315C381.275 172.522 381.281 172.554 381.269 172.405C381.263 172.347 381.263 172.289 381.269 172.225C381.299 171.901 381.108 172.783 381.287 172.32C381.227 172.475 381.025 172.745 381.239 172.475C380.983 172.745 380.93 172.809 381.084 172.671C381.245 172.533 381.174 172.581 380.87 172.815C382.167 172.05 382.84 170.43 381.935 169.183C381.096 168.014 379.252 167.399 377.86 168.216Z" fill="black"/>
<path d="M373.195 157.872C377.021 157.872 377.032 152.563 373.195 152.563C369.363 152.563 369.357 157.872 373.195 157.872Z" fill="black"/>
<path d="M387.106 157.872C390.932 157.872 390.944 152.563 387.106 152.563C383.274 152.563 383.268 157.872 387.106 157.872Z" fill="black"/>
</g>
</g>
<defs>
<clipPath id="clip0_2211_50">
<rect width="459" height="340" fill="white"/>
</clipPath>
</defs>
</svg>
