<svg width="103" height="103" viewBox="0 0 103 103" fill="none" xmlns="http://www.w3.org/2000/svg">
<circle cx="51.5" cy="51.5" r="51.5" fill="black"/>
<g clip-path="url(#clip0_2177_8)">
<path d="M74.692 46.4861H74.282C73.569 45.6333 72.4639 45.1386 71.3231 45.1727C67.9898 45.1727 65.7083 47.6119 65.7083 50.7164C65.7083 53.8209 67.9898 56.2431 71.3231 56.2431C72.8382 56.2431 74.0325 55.4925 74.4603 54.9296H74.8703V55.936H77.6688V42.0682H74.692V46.4861ZM71.6974 53.565C69.4515 53.565 68.7207 52.8486 68.7207 50.7164C68.7207 48.5842 69.4693 47.8337 71.6974 47.8337C73.9255 47.8337 74.6742 48.5672 74.6742 50.7164C74.692 52.8657 73.9434 53.565 71.6974 53.565Z" fill="white"/>
<path d="M44.6748 45.1727C43.2132 45.1556 41.805 45.7697 40.8424 46.8273H40.4325C39.559 45.7527 38.2222 45.1386 36.7962 45.1727C35.2098 45.1727 33.9264 45.855 33.249 46.6226H32.839V45.4627H30.0405V55.919H33.0173V50.4606C33.0173 48.6013 33.5877 47.9531 35.6019 47.9531C37.6161 47.9531 38.1509 48.6013 38.1509 50.4606V55.919H41.1633V50.4606C41.1633 48.6013 41.7159 47.9531 43.7301 47.9531C45.7443 47.9531 46.2969 48.5842 46.2969 50.4606V55.919H49.3093V49.9829C49.2915 46.8443 47.1881 45.1727 44.6748 45.1727Z" fill="white"/>
<path d="M57.6869 45.1727C53.9793 45.1727 51.6799 47.6119 51.6799 50.7164C51.6799 53.8209 53.9793 56.2431 57.6869 56.2431C61.3945 56.2431 63.6939 53.838 63.6939 50.7164C63.6939 47.5949 61.3945 45.1727 57.6869 45.1727ZM57.6869 53.565C55.441 53.565 54.7102 52.8486 54.7102 50.7164C54.7102 48.5842 55.4588 47.8337 57.6869 47.8337C59.9151 47.8337 60.6637 48.5672 60.6637 50.7164C60.6637 52.8657 59.9329 53.565 57.6869 53.565Z" fill="white"/>
<path d="M89.2016 45.4797V46.4861H88.7916C88.346 45.9232 87.223 45.1727 85.69 45.1727C82.3568 45.1727 80.0752 47.6119 80.0752 50.7164C80.0752 53.8209 82.3568 56.2431 85.69 56.2431C87.2052 56.2431 88.346 55.4925 88.7916 54.9296H89.2016V55.936H92.0001V45.4797H89.2016ZM86.0822 53.565C83.8363 53.565 83.1054 52.8486 83.1054 50.7164C83.1054 48.5842 83.8541 47.8337 86.0822 47.8337C88.3103 47.8337 89.059 48.5672 89.059 50.7164C89.0768 52.8657 88.3281 53.565 86.0822 53.565Z" fill="white"/>
<path d="M9.79191 41.9995L7.99976 55.9671L10.9366 56.3122L12.7288 42.3446L9.79191 41.9995Z" fill="white"/>
<path d="M23.7483 47.2878L23.6236 48.2942L23.2136 48.2431C22.8393 47.629 21.8233 46.7591 20.3081 46.5714C16.9927 46.1791 14.4259 48.3284 14.0338 51.4158C13.6416 54.5032 15.6023 57.1642 18.9 57.5565C20.4151 57.7271 21.6272 57.1301 22.1441 56.6183L22.5541 56.6695L22.4293 57.6759L25.21 58L26.5469 47.629L23.7483 47.2878ZM19.6308 54.9467C17.4027 54.6908 16.761 53.8891 17.0283 51.7569C17.2957 49.6247 18.1335 48.9936 20.3616 49.2495C22.5897 49.5053 23.2314 50.3241 22.964 52.4563C22.6788 54.5885 21.8589 55.2026 19.6308 54.9467Z" fill="white"/>
</g>
<defs>
<clipPath id="clip0_2177_8">
<rect width="84" height="16" fill="white" transform="translate(8 42)"/>
</clipPath>
</defs>
</svg>
