<svg width="103" height="103" viewBox="0 0 103 103" fill="none" xmlns="http://www.w3.org/2000/svg">
<path d="M103 51.5C103 79.9427 79.9427 103 51.5 103C23.0573 103 0 79.9427 0 51.5C0 23.0573 23.0573 0 51.5 0C79.9427 0 103 23.0573 103 51.5Z" fill="black"/>
<g clip-path="url(#clip0_2177_9)">
<path fill-rule="evenodd" clip-rule="evenodd" d="M64.4716 24.5294C64.5667 24.565 64.6617 24.6125 64.7568 24.6481H73.3825C77.03 24.6481 79.9884 27.605 79.9884 31.2506C79.9884 34.1956 78.0637 36.6894 75.4023 37.5444C76.2459 40.5012 76.8281 44.4081 76.8281 50.4881C76.8281 58.9906 75.6875 63.2419 74.3092 66.5906C72.4677 71.0556 68.9271 74.6063 64.4716 76.4588C61.133 77.8481 56.8914 78.9881 48.4201 78.9881C39.9488 78.9881 35.7073 77.8481 32.3686 76.4588C27.9132 74.6063 24.3726 71.0556 22.531 66.5906C21.1409 63.2419 20.0122 58.9906 20.0122 50.4881C20.0122 41.9856 21.1528 37.7344 22.531 34.3856C24.3726 29.9325 27.9132 26.3819 32.3686 24.5294C35.7073 23.14 39.9488 22 48.4201 22C56.8914 22 61.133 23.14 64.4716 24.5294ZM44.0716 71.0794C44.2142 71.7681 44.2855 72.1125 44.0716 72.3619C43.8578 72.5994 43.5013 72.5756 42.7766 72.5044C38.7607 72.1481 36.5152 71.4119 34.7568 70.6756C31.834 69.4644 29.5053 67.1369 28.3053 64.2038C27.5805 62.4463 26.8439 60.19 26.4875 56.1644C26.428 55.44 26.3924 55.0838 26.63 54.87C26.8677 54.6562 27.2122 54.7275 27.9013 54.87C36.0162 56.5563 42.3964 62.9569 44.0716 71.0913V71.0794ZM57.5092 72.0294C56.0122 72.3144 54.1706 72.54 51.8419 72.6469C51.2835 72.6706 51.0102 72.6825 50.8082 72.5281C50.6181 72.3737 50.5706 72.0769 50.4993 71.495C48.8122 59.5487 39.3904 50.1081 27.4855 48.41C26.9033 48.3269 26.6181 48.2912 26.4518 48.0894C26.2974 47.8994 26.3092 47.6144 26.333 47.0562C26.4399 44.7169 26.6657 42.8762 26.9508 41.3681C27.0459 40.8694 27.0934 40.6319 27.2835 40.4775C27.4736 40.3231 27.735 40.3469 28.234 40.3825C44.3805 41.6056 57.2835 54.5256 58.4954 70.735C58.531 71.2456 58.5548 71.495 58.4003 71.685C58.2459 71.875 58.0082 71.9225 57.5092 72.0175V72.0294ZM66.3132 67.6831C65.6835 68.3838 65.3627 68.7281 64.9706 68.6094C64.5785 68.4906 64.4954 67.98 64.3409 66.9469C61.6677 50.3219 48.5865 37.2 32.0003 34.5162C30.9667 34.35 30.4558 34.2669 30.337 33.875C30.2181 33.4831 30.5746 33.1744 31.2637 32.5331C32.2736 31.6069 33.4498 30.8469 34.7449 30.3125C37.1924 29.2912 40.5904 28.2581 48.4082 28.2581C52.2578 28.2581 55.0261 28.5075 57.1528 28.8875C56.8677 29.6238 56.7251 30.4194 56.7251 31.2506C56.7251 34.8962 59.6835 37.8531 63.331 37.8531H68.9389C69.8063 40.2519 70.5667 43.7194 70.5667 50.4881C70.5667 58.3256 69.533 61.7337 68.5231 64.1919C67.9884 65.4862 67.2281 66.6738 66.3013 67.6831H66.3132ZM67.4657 29.8256V34.6825H69.0102V29.8256H67.4657ZM67.6795 29.0419C67.834 29.1844 68.0241 29.2556 68.2379 29.2556C68.4518 29.2556 68.6419 29.1844 68.7964 29.0419C68.9508 28.8994 69.034 28.7212 69.034 28.5194C69.034 28.3175 68.9508 28.1394 68.7964 27.9969C68.6419 27.8544 68.4518 27.7831 68.2379 27.7831C68.0241 27.7831 67.834 27.8544 67.6795 27.9969C67.5251 28.1394 67.4419 28.3175 67.4419 28.5194C67.4419 28.7212 67.5251 28.8994 67.6795 29.0419ZM63.3667 34.6825V31.9156C63.3667 31.7256 63.4023 31.5712 63.4736 31.4406C63.5449 31.31 63.6399 31.215 63.7587 31.1438C63.8776 31.0725 64.0201 31.0369 64.1865 31.0369C64.436 31.0369 64.6261 31.1081 64.7686 31.2625C64.8993 31.4169 64.9706 31.6306 64.9706 31.8919V34.6825H66.5152V31.5831C66.5152 31.215 66.4439 30.8944 66.3013 30.6213C66.1587 30.3481 65.9686 30.1344 65.7191 29.98C65.4696 29.8256 65.1726 29.7544 64.828 29.7544C64.4716 29.7544 64.1627 29.8375 63.9132 30.0037C63.6637 30.17 63.4855 30.4075 63.3785 30.7044H63.3191V28.1869H61.8221V34.6706H63.3667V34.6825ZM72.7528 29.8256V30.9656H71.8261V34.6825H70.2815V30.9656H69.6281V29.8256H70.2815V29.5763C70.2815 29.1962 70.3528 28.8875 70.4954 28.6381C70.638 28.3888 70.8281 28.1988 71.0776 28.08C71.3271 27.9612 71.6122 27.89 71.9449 27.89C72.1587 27.89 72.3607 27.9019 72.5508 27.9375C72.7409 27.9731 72.8835 27.9969 72.9785 28.0206L72.729 29.1487C72.729 29.1487 72.5984 29.1131 72.5152 29.1013C72.432 29.0894 72.3607 29.0775 72.2894 29.0775C72.1112 29.0775 71.9805 29.1131 71.9211 29.1962C71.8498 29.2794 71.8261 29.3863 71.8261 29.5288V29.8019H72.7528V29.8256ZM73.4894 29.8256V34.6825H75.034V29.8256H73.4894ZM73.7033 29.0419C73.8578 29.1844 74.0479 29.2556 74.2617 29.2556C74.4756 29.2556 74.6657 29.1844 74.8201 29.0419C74.9746 28.8994 75.0578 28.7212 75.0578 28.5194C75.0578 28.3175 74.9746 28.1394 74.8201 27.9969C74.6657 27.8544 74.4756 27.7831 74.2617 27.7831C74.0479 27.7831 73.8578 27.8544 73.7033 27.9969C73.5488 28.1394 73.4657 28.3175 73.4657 28.5194C73.4657 28.7212 73.5488 28.8994 73.7033 29.0419Z" fill="white"/>
</g>
<defs>
<clipPath id="clip0_2177_9">
<rect width="60" height="57" fill="white" transform="translate(20 22)"/>
</clipPath>
</defs>
</svg>
