<svg width="515" height="307" viewBox="0 0 515 307" fill="none" xmlns="http://www.w3.org/2000/svg">
<g clip-path="url(#clip0_2211_199)">
<mask id="mask0_2211_199" style="mask-type:luminance" maskUnits="userSpaceOnUse" x="-57" y="-121" width="633" height="458">
<path d="M526 -121H-7C-34.6142 -121 -57 -98.6142 -57 -71V287C-57 314.614 -34.6142 337 -7 337H526C553.614 337 576 314.614 576 287V-71C576 -98.6142 553.614 -121 526 -121Z" fill="white"/>
</mask>
<g mask="url(#mask0_2211_199)">
<path d="M323.808 129.93C327.874 147.051 331.933 164.178 335.999 181.299C338.032 189.853 341.022 199.6 349.141 202.982C357.676 206.538 367.188 201.055 374.238 195.068C385.62 185.395 395.312 173.739 402.747 160.783" stroke="black" stroke-width="5" stroke-miterlimit="10" stroke-linecap="round" stroke-linejoin="round"/>
<path d="M287.925 125.921L315.272 127.438C316.746 127.519 318.101 128.24 318.996 129.415L326.96 139.859C328.01 141.239 329.701 141.978 331.423 141.817L354.431 139.691C357.763 139.38 359.877 135.967 358.659 132.846L342.551 91.6231C341.855 89.8461 340.22 88.6151 338.324 88.4411L312.102 86.0411C308.328 85.6931 305.543 89.4791 306.992 92.9791C308.366 96.2921 305.929 99.9351 302.342 99.9351H285.333C283.313 99.9351 281.497 101.147 280.702 103C278.687 107.662 276.443 116.813 284.842 124.634C285.681 125.417 286.781 125.852 287.925 125.921Z" fill="#FF911E"/>
<path d="M44.002 57.071C40.5082 53.689 37.4434 49.866 34.907 45.719C33.2907 43.084 31.8608 40.199 31.7427 37.109C31.6308 34.02 33.1415 30.688 36.0011 29.506C38.7178 28.381 42.0251 29.506 43.977 31.707C45.929 33.908 46.688 36.966 46.663 39.907C47.626 36.556 49.05 33.118 51.847 31.029C54.645 28.941 59.14 28.81 61.272 31.576C61.95 32.453 62.329 33.529 62.521 34.623C63.137 38.116 61.862 41.735 59.774 44.6C57.685 47.46 54.831 49.673 51.934 51.712C48.627 54.044 47.825 55.156 44.3 57.146" stroke="#FF911E" stroke-width="5" stroke-miterlimit="10" stroke-linecap="round" stroke-linejoin="round"/>
<path d="M198.468 61.4971C194.47 59.2711 193.152 56.7411 190.616 52.9371C189.198 50.8111 188.042 48.3921 188.042 45.8431C188.042 43.2951 189.453 40.6091 191.859 39.7641C194.265 38.9121 197.411 40.6091 197.498 43.1581C199.064 42.2751 200.214 40.8271 201.626 39.7141C203.037 38.6071 204.989 37.8361 206.611 38.6071C208.856 39.6701 208.999 42.8101 208.483 45.2401C207.14 51.5751 203.534 57.4001 198.468 61.4291" stroke="#FF911E" stroke-width="5" stroke-miterlimit="10" stroke-linecap="round" stroke-linejoin="round"/>
<path d="M51.164 238.169C46.557 238.934 42.0189 236.783 37.8475 234.694C35.5225 233.531 32.9488 232.058 32.3706 229.528C31.6557 226.413 34.7329 223.373 37.9221 223.205C41.1112 223.038 44.07 224.996 46.178 227.395C45.307 225.636 47.247 223.79 49.062 223.044C50.449 222.472 52.233 222.167 53.283 223.236C53.88 223.839 54.061 224.728 54.172 225.568C54.856 230.827 54.029 233.612 51.139 238.057" stroke="#FF911E" stroke-width="5" stroke-miterlimit="10" stroke-linecap="round" stroke-linejoin="round"/>
<path d="M414.528 298.116C416.181 247.22 436.224 198.96 455.968 152.018" stroke="black" stroke-width="5" stroke-miterlimit="10" stroke-linecap="round" stroke-linejoin="round"/>
<path d="M417.959 166.708C417.188 177.979 416.455 189.548 419.756 200.359C423.418 212.332 431.767 222.347 441.098 230.69C459.014 246.71 481.326 257.77 504.924 262.333" stroke="black" stroke-width="5" stroke-miterlimit="10" stroke-linecap="round" stroke-linejoin="round"/>
<path d="M505.82 262.028C505.366 264.77 505.919 267.673 507.349 270.054" stroke="black" stroke-width="5" stroke-miterlimit="10" stroke-linecap="round" stroke-linejoin="round"/>
<path d="M415.193 299.067C411.214 298.141 407.236 297.221 403.257 296.294" stroke="black" stroke-width="5" stroke-miterlimit="10" stroke-linecap="round" stroke-linejoin="round"/>
<path d="M362.457 127.543C367.43 150.998 374.865 173.932 384.601 195.839C386.428 199.961 388.592 204.313 392.552 206.457C396.412 208.54 401.274 208.018 405.203 206.066C409.132 204.114 412.284 200.912 415.18 197.623C422.951 188.808 435.497 171.868 440.594 161.281" stroke="black" stroke-width="5" stroke-miterlimit="10" stroke-linecap="round" stroke-linejoin="round"/>
<path d="M363.203 125.821C363.644 123.652 360.903 122.352 358.739 121.874C354.618 120.966 350.502 120.052 346.381 119.145" stroke="black" stroke-width="5" stroke-miterlimit="10" stroke-linecap="round" stroke-linejoin="round"/>
<path d="M362.345 127.344C358.335 127.773 354.251 127.574 350.303 126.753" stroke="black" stroke-width="5" stroke-miterlimit="10" stroke-linecap="round" stroke-linejoin="round"/>
<path d="M104.646 293.062C88.202 271.074 87.133 241.545 87.307 214.092C87.351 207.49 87.432 200.838 88.706 194.36C91.242 181.485 98.323 170.04 105.267 158.913" stroke="black" stroke-width="5" stroke-miterlimit="10" stroke-linecap="round" stroke-linejoin="round"/>
<path d="M122.842 295.691C130.494 275.201 136.68 254.003 138.707 232.226C140.727 210.449 138.433 187.988 129.699 167.939" stroke="black" stroke-width="5" stroke-miterlimit="10" stroke-linecap="round" stroke-linejoin="round"/>
<path d="M121.176 296.543C126.13 295.269 131.272 294.697 136.388 294.846" stroke="black" stroke-width="5" stroke-miterlimit="10" stroke-linecap="round" stroke-linejoin="round"/>
<path d="M103.533 294.075C98.727 294.075 93.916 294.075 89.11 294.075" stroke="black" stroke-width="5" stroke-miterlimit="10" stroke-linecap="round" stroke-linejoin="round"/>
<path d="M154.976 170.998C159.47 188.268 173.874 202.579 191.175 206.967C196.261 208.254 201.93 208.665 206.499 206.091C211.125 203.486 213.717 198.333 215.246 193.247C219.337 179.658 217.665 164.843 213.052 151.428C208.439 138.006 201.346 126.051 193.811 114.028" stroke="black" stroke-width="5" stroke-miterlimit="10" stroke-linecap="round" stroke-linejoin="round"/>
<path d="M193.793 113.885C191.48 107.482 190.802 100.501 191.834 93.7739" stroke="black" stroke-width="5" stroke-miterlimit="10" stroke-linecap="round" stroke-linejoin="round"/>
<path d="M194.837 112.169C196.397 107.724 198.872 103.603 202.061 100.134" stroke="black" stroke-width="5" stroke-miterlimit="10" stroke-linecap="round" stroke-linejoin="round"/>
<path d="M196.615 117.018C197.585 112.803 202.515 109.987 206.636 111.287C210.758 112.586 213.176 117.727 211.554 121.731" stroke="black" stroke-width="5" stroke-miterlimit="10" stroke-linecap="round" stroke-linejoin="round"/>
<path d="M77.485 164.321C76.229 177.071 70.684 189.368 61.962 198.755C58.456 202.528 54.141 205.979 49.031 206.6C43.138 207.315 37.2818 203.989 33.6388 199.302C29.9958 194.615 28.2365 188.74 27.074 182.909C21.8085 156.401 27.59 129.078 33.3528 102.676" stroke="black" stroke-width="5" stroke-miterlimit="10" stroke-linecap="round" stroke-linejoin="round"/>
<path d="M24.3946 130.602C26.1975 126.2 25.3396 121.153 23.7916 116.658C22.2437 112.157 20.0243 107.868 19.0794 103.205" stroke="black" stroke-width="5" stroke-miterlimit="10" stroke-linecap="round" stroke-linejoin="round"/>
<path d="M25.0474 134.108C23.431 131.435 21.3609 128.917 18.5882 127.475C15.8156 126.033 12.2348 125.846 9.6735 127.624C7.1061 129.408 6.1114 133.381 8.051 135.836" stroke="black" stroke-width="5" stroke-miterlimit="10" stroke-linecap="round" stroke-linejoin="round"/>
<path d="M393.982 169.866L483.421 159.969C488.537 159.404 491.471 153.865 489.072 149.314L461.06 96.18C458.635 91.58 461.663 85.997 466.835 85.512C472.753 84.959 475.563 77.94 471.659 73.452L416.424 10.036C412.998 6.10699 406.682 6.927 404.376 11.602L372.721 75.802C370.327 80.651 373.858 86.327 379.267 86.327H386.41C390.768 86.327 394.156 90.125 393.658 94.452L385.931 161.785C385.396 166.435 389.325 170.382 393.982 169.866Z" fill="#3FA7F3"/>
<path d="M61.34 162.381L158.202 175.604C162.703 176.22 166.582 172.434 166.072 167.914L159.439 108.912C158.936 104.436 162.747 100.662 167.223 101.209C172.513 101.862 176.548 96.5779 174.527 91.6479L143.444 15.6489C141.535 10.9809 135.455 9.8239 131.962 13.4549L75.104 72.5749C71.175 76.6599 73.5 83.4729 79.101 84.3059L82.645 84.8349C87.456 85.5499 90.074 90.8519 87.718 95.1109L56.174 152.093C53.806 156.389 56.479 161.723 61.34 162.381Z" fill="#3FA7F3"/>
<path d="M103.956 100.433C103.458 105.17 102.961 109.907 102.457 114.65C101.643 122.396 101.065 131.031 105.901 137.142C111.011 143.595 121.748 144.49 127.852 138.97C130.308 136.75 131.968 133.785 133.385 130.795C137.395 122.359 139.894 113.208 140.74 103.902" stroke="black" stroke-width="5" stroke-miterlimit="10" stroke-linecap="round" stroke-linejoin="round"/>
<path d="M116.874 99.264C118.848 99.264 120.448 97.664 120.448 95.689C120.448 93.715 118.848 92.115 116.874 92.115C114.9 92.115 113.299 93.715 113.299 95.689C113.299 97.664 114.9 99.264 116.874 99.264Z" fill="black"/>
<path d="M131.172 101.129C133.146 101.129 134.747 99.528 134.747 97.554C134.747 95.58 133.146 93.979 131.172 93.979C129.198 93.979 127.598 95.58 127.598 97.554C127.598 99.528 129.198 101.129 131.172 101.129Z" fill="black"/>
<path d="M409.057 92.4259C411.031 92.4259 412.632 90.8249 412.632 88.8509C412.632 86.8769 411.031 85.2759 409.057 85.2759C407.083 85.2759 405.482 86.8769 405.482 88.8509C405.482 90.8249 407.083 92.4259 409.057 92.4259Z" fill="black"/>
<path d="M428.329 84.9659C430.303 84.9659 431.903 83.3649 431.903 81.3909C431.903 79.4169 430.303 77.8159 428.329 77.8159C426.355 77.8159 424.754 79.4169 424.754 81.3909C424.754 83.3649 426.355 84.9659 428.329 84.9659Z" fill="black"/>
<path d="M416.449 100.694C419.122 104.455 424.779 105.686 428.77 103.373C432.761 101.061 434.508 95.54 432.581 91.356" stroke="black" stroke-width="5" stroke-miterlimit="10" stroke-linecap="round" stroke-linejoin="round"/>
</g>
</g>
<defs>
<clipPath id="clip0_2211_199">
<rect width="515" height="307" fill="white"/>
</clipPath>
</defs>
</svg>
