<svg width="515" height="340" viewBox="0 0 515 340" fill="none" xmlns="http://www.w3.org/2000/svg">
<g clip-path="url(#clip0_2211_199)">
<mask id="mask0_2211_199" style="mask-type:luminance" maskUnits="userSpaceOnUse" x="-57" y="-88" width="633" height="458">
<path d="M526 -88H-7C-34.6142 -88 -57 -65.6142 -57 -38V320C-57 347.614 -34.6142 370 -7 370H526C553.614 370 576 347.614 576 320V-38C576 -65.6142 553.614 -88 526 -88Z" fill="white"/>
</mask>
<g mask="url(#mask0_2211_199)">
<path d="M323.808 162.93C327.874 180.051 331.933 197.178 335.999 214.299C338.032 222.853 341.022 232.6 349.141 235.982C357.676 239.538 367.188 234.055 374.238 228.068C385.62 218.395 395.312 206.739 402.747 193.783" stroke="black" stroke-width="5" stroke-miterlimit="10" stroke-linecap="round" stroke-linejoin="round"/>
<path d="M287.925 158.921L315.272 160.438C316.746 160.519 318.101 161.24 318.996 162.415L326.96 172.859C328.01 174.239 329.701 174.978 331.423 174.817L354.431 172.691C357.763 172.38 359.877 168.967 358.659 165.846L342.551 124.623C341.855 122.846 340.22 121.615 338.324 121.441L312.102 119.041C308.328 118.693 305.543 122.479 306.992 125.979C308.366 129.292 305.929 132.935 302.342 132.935H285.333C283.313 132.935 281.497 134.147 280.702 136C278.687 140.662 276.443 149.813 284.842 157.634C285.681 158.417 286.781 158.852 287.925 158.921Z" fill="#FF911E"/>
<path d="M44.002 90.071C40.5082 86.689 37.4434 82.866 34.907 78.719C33.2907 76.084 31.8608 73.199 31.7427 70.109C31.6308 67.02 33.1415 63.688 36.0011 62.506C38.7178 61.381 42.0251 62.506 43.977 64.707C45.929 66.908 46.688 69.966 46.663 72.907C47.626 69.556 49.05 66.118 51.847 64.029C54.645 61.941 59.14 61.81 61.272 64.576C61.95 65.453 62.329 66.529 62.521 67.623C63.137 71.116 61.862 74.735 59.774 77.6C57.685 80.46 54.831 82.673 51.934 84.712C48.627 87.044 47.825 88.156 44.3 90.146" stroke="#FF911E" stroke-width="5" stroke-miterlimit="10" stroke-linecap="round" stroke-linejoin="round"/>
<path d="M198.468 94.4971C194.47 92.2711 193.152 89.7411 190.616 85.9371C189.198 83.8111 188.042 81.3921 188.042 78.8431C188.042 76.2951 189.453 73.6091 191.859 72.7641C194.265 71.9121 197.411 73.6091 197.498 76.1581C199.064 75.2751 200.214 73.8271 201.626 72.7141C203.037 71.6071 204.989 70.8361 206.611 71.6071C208.856 72.6701 208.999 75.8101 208.483 78.2401C207.14 84.5751 203.534 90.4001 198.468 94.4291" stroke="#FF911E" stroke-width="5" stroke-miterlimit="10" stroke-linecap="round" stroke-linejoin="round"/>
<path d="M51.164 271.169C46.557 271.934 42.0189 269.783 37.8475 267.694C35.5225 266.531 32.9488 265.058 32.3706 262.528C31.6557 259.413 34.7329 256.373 37.9221 256.205C41.1112 256.038 44.07 257.996 46.178 260.395C45.307 258.636 47.247 256.79 49.062 256.044C50.449 255.472 52.233 255.167 53.283 256.236C53.88 256.839 54.061 257.728 54.172 258.568C54.856 263.827 54.029 266.612 51.139 271.057" stroke="#FF911E" stroke-width="5" stroke-miterlimit="10" stroke-linecap="round" stroke-linejoin="round"/>
<path d="M414.528 331.116C416.181 280.22 436.224 231.96 455.968 185.018" stroke="black" stroke-width="5" stroke-miterlimit="10" stroke-linecap="round" stroke-linejoin="round"/>
<path d="M417.959 199.708C417.188 210.979 416.455 222.548 419.756 233.359C423.418 245.332 431.767 255.347 441.098 263.69C459.014 279.71 481.326 290.77 504.924 295.333" stroke="black" stroke-width="5" stroke-miterlimit="10" stroke-linecap="round" stroke-linejoin="round"/>
<path d="M505.82 295.028C505.366 297.77 505.919 300.673 507.349 303.054" stroke="black" stroke-width="5" stroke-miterlimit="10" stroke-linecap="round" stroke-linejoin="round"/>
<path d="M415.193 332.067C411.214 331.141 407.236 330.221 403.257 329.294" stroke="black" stroke-width="5" stroke-miterlimit="10" stroke-linecap="round" stroke-linejoin="round"/>
<path d="M362.457 160.543C367.43 183.998 374.865 206.932 384.601 228.839C386.428 232.961 388.592 237.313 392.552 239.457C396.412 241.54 401.274 241.018 405.203 239.066C409.132 237.114 412.284 233.912 415.18 230.623C422.951 221.808 435.497 204.868 440.594 194.281" stroke="black" stroke-width="5" stroke-miterlimit="10" stroke-linecap="round" stroke-linejoin="round"/>
<path d="M363.203 158.821C363.644 156.652 360.903 155.352 358.739 154.874C354.618 153.966 350.502 153.052 346.381 152.145" stroke="black" stroke-width="5" stroke-miterlimit="10" stroke-linecap="round" stroke-linejoin="round"/>
<path d="M362.345 160.344C358.335 160.773 354.251 160.574 350.303 159.753" stroke="black" stroke-width="5" stroke-miterlimit="10" stroke-linecap="round" stroke-linejoin="round"/>
<path d="M104.646 326.062C88.202 304.074 87.133 274.545 87.307 247.092C87.351 240.49 87.432 233.838 88.706 227.36C91.242 214.485 98.323 203.04 105.267 191.913" stroke="black" stroke-width="5" stroke-miterlimit="10" stroke-linecap="round" stroke-linejoin="round"/>
<path d="M122.842 328.691C130.494 308.201 136.68 287.003 138.707 265.226C140.727 243.449 138.433 220.988 129.699 200.939" stroke="black" stroke-width="5" stroke-miterlimit="10" stroke-linecap="round" stroke-linejoin="round"/>
<path d="M121.176 329.543C126.13 328.269 131.272 327.697 136.388 327.846" stroke="black" stroke-width="5" stroke-miterlimit="10" stroke-linecap="round" stroke-linejoin="round"/>
<path d="M103.533 327.075C98.727 327.075 93.916 327.075 89.11 327.075" stroke="black" stroke-width="5" stroke-miterlimit="10" stroke-linecap="round" stroke-linejoin="round"/>
<path d="M154.976 203.998C159.47 221.268 173.874 235.579 191.175 239.967C196.261 241.254 201.93 241.665 206.499 239.091C211.125 236.486 213.717 231.333 215.246 226.247C219.337 212.658 217.665 197.843 213.052 184.428C208.439 171.006 201.346 159.051 193.811 147.028" stroke="black" stroke-width="5" stroke-miterlimit="10" stroke-linecap="round" stroke-linejoin="round"/>
<path d="M193.793 146.885C191.48 140.482 190.802 133.501 191.834 126.774" stroke="black" stroke-width="5" stroke-miterlimit="10" stroke-linecap="round" stroke-linejoin="round"/>
<path d="M194.837 145.169C196.397 140.724 198.872 136.603 202.061 133.134" stroke="black" stroke-width="5" stroke-miterlimit="10" stroke-linecap="round" stroke-linejoin="round"/>
<path d="M196.615 150.018C197.585 145.803 202.515 142.987 206.636 144.287C210.758 145.586 213.176 150.727 211.554 154.731" stroke="black" stroke-width="5" stroke-miterlimit="10" stroke-linecap="round" stroke-linejoin="round"/>
<path d="M77.485 197.321C76.229 210.071 70.684 222.368 61.962 231.755C58.456 235.528 54.141 238.979 49.031 239.6C43.138 240.315 37.2818 236.989 33.6388 232.302C29.9958 227.615 28.2365 221.74 27.074 215.909C21.8085 189.401 27.59 162.078 33.3528 135.676" stroke="black" stroke-width="5" stroke-miterlimit="10" stroke-linecap="round" stroke-linejoin="round"/>
<path d="M24.3946 163.602C26.1975 159.2 25.3396 154.153 23.7916 149.658C22.2437 145.157 20.0243 140.868 19.0794 136.205" stroke="black" stroke-width="5" stroke-miterlimit="10" stroke-linecap="round" stroke-linejoin="round"/>
<path d="M25.0474 167.108C23.431 164.435 21.3609 161.917 18.5882 160.475C15.8156 159.033 12.2348 158.846 9.6735 160.624C7.1061 162.408 6.1114 166.381 8.051 168.836" stroke="black" stroke-width="5" stroke-miterlimit="10" stroke-linecap="round" stroke-linejoin="round"/>
<path d="M393.982 202.866L483.421 192.969C488.537 192.404 491.471 186.865 489.072 182.314L461.06 129.18C458.635 124.58 461.663 118.997 466.835 118.512C472.753 117.959 475.563 110.94 471.659 106.452L416.424 43.036C412.998 39.107 406.682 39.927 404.376 44.602L372.721 108.802C370.327 113.651 373.858 119.327 379.267 119.327H386.41C390.768 119.327 394.156 123.125 393.658 127.452L385.931 194.785C385.396 199.435 389.325 203.382 393.982 202.866Z" fill="#3FA7F3"/>
<path d="M61.34 195.381L158.202 208.604C162.703 209.22 166.582 205.434 166.072 200.914L159.439 141.912C158.936 137.436 162.747 133.662 167.223 134.209C172.513 134.862 176.548 129.578 174.527 124.648L143.444 48.6489C141.535 43.9809 135.455 42.8239 131.962 46.4549L75.104 105.575C71.175 109.66 73.5 116.473 79.101 117.306L82.645 117.835C87.456 118.55 90.074 123.852 87.718 128.111L56.174 185.093C53.806 189.389 56.479 194.723 61.34 195.381Z" fill="#3FA7F3"/>
<path d="M103.956 133.433C103.458 138.17 102.961 142.907 102.457 147.65C101.643 155.396 101.065 164.031 105.901 170.142C111.011 176.595 121.748 177.49 127.852 171.97C130.308 169.75 131.968 166.785 133.385 163.795C137.395 155.359 139.894 146.208 140.74 136.902" stroke="black" stroke-width="5" stroke-miterlimit="10" stroke-linecap="round" stroke-linejoin="round"/>
<path d="M116.874 132.264C118.848 132.264 120.448 130.664 120.448 128.689C120.448 126.715 118.848 125.115 116.874 125.115C114.9 125.115 113.299 126.715 113.299 128.689C113.299 130.664 114.9 132.264 116.874 132.264Z" fill="black"/>
<path d="M131.172 134.129C133.146 134.129 134.747 132.528 134.747 130.554C134.747 128.58 133.146 126.979 131.172 126.979C129.198 126.979 127.598 128.58 127.598 130.554C127.598 132.528 129.198 134.129 131.172 134.129Z" fill="black"/>
<path d="M409.057 125.426C411.031 125.426 412.632 123.825 412.632 121.851C412.632 119.877 411.031 118.276 409.057 118.276C407.083 118.276 405.482 119.877 405.482 121.851C405.482 123.825 407.083 125.426 409.057 125.426Z" fill="black"/>
<path d="M428.329 117.966C430.303 117.966 431.903 116.365 431.903 114.391C431.903 112.417 430.303 110.816 428.329 110.816C426.355 110.816 424.754 112.417 424.754 114.391C424.754 116.365 426.355 117.966 428.329 117.966Z" fill="black"/>
<path d="M416.449 133.694C419.122 137.455 424.779 138.686 428.77 136.373C432.761 134.061 434.508 128.54 432.581 124.356" stroke="black" stroke-width="5" stroke-miterlimit="10" stroke-linecap="round" stroke-linejoin="round"/>
</g>
</g>
<defs>
<clipPath id="clip0_2211_199">
<rect width="515" height="340" fill="white"/>
</clipPath>
</defs>
</svg>
