<svg width="160" height="33" viewBox="0 0 160 33" fill="none" xmlns="http://www.w3.org/2000/svg">
<path fill-rule="evenodd" clip-rule="evenodd" d="M49.635 8.93596H61C63.3233 8.93596 65.2933 10.0208 65.3 12.5168V21.6824C65.3 24.1801 63.3333 25.429 61 25.429H49.635V32.5254H42.7083V25.429H31.35C29.0167 25.429 27.0167 24.1801 27.0167 21.6824V12.5168C27.0167 10.0208 29.0167 8.93596 31.35 8.93596H42.7083V0.525391H49.635V8.93596ZM35.4867 22.3403H42.7083V11.7618H35.4867C34.5067 11.7618 33.6533 12.3193 33.6533 13.5346V20.534C33.6533 21.8146 34.5017 22.3403 35.4867 22.3403ZM56.7917 22.3403C57.8417 22.3403 58.695 21.8146 58.695 20.534V13.5346C58.695 12.3193 57.8417 11.7618 56.7917 11.7618H49.635V22.3403H56.7917Z" fill="black"/>
<path fill-rule="evenodd" clip-rule="evenodd" d="M19.7617 8.93596H0.065V11.7618H15.3983C16.4483 11.7618 17.335 12.1887 17.335 13.3706V14.1926H4.13667C1.34667 14.1926 0 15.6708 0 17.7081V21.7493C0 23.785 1.34667 25.4323 4.13667 25.4323H23.8983V12.254C23.8983 9.92199 22.06 8.93596 19.7617 8.93596ZM17.3333 22.3068H8.66667C6.86167 22.3068 6.565 21.6824 6.565 20.698V18.6891C6.565 17.7031 7.09 17.0787 8.66667 17.0787H17.3333V22.3068Z" fill="black"/>
<path d="M75.2783 20.4469C75.3306 19.6975 75.3395 18.9457 75.305 18.1953V8.93596H68.4117V25.429H75.3717L85.7483 13.8778C85.6933 14.5927 85.6467 15.6959 85.6467 16.5564V25.429H92.54V8.93596H85.6467L75.2783 20.4469Z" fill="black"/>
<path fill-rule="evenodd" clip-rule="evenodd" d="M136.167 8.93596H155.863C158.167 8.93596 160 9.92199 160 12.254V25.4323H139.91C137.448 25.4323 136.102 23.5908 136.102 21.7493V17.7081C136.102 15.6708 137.513 14.1926 139.91 14.1926H153.437V13.3706C153.437 12.1887 152.55 11.7618 151.5 11.7618H136.167V8.93596ZM144.572 22.3068H153.435V17.0837H144.572C143.193 17.0837 142.667 17.8069 142.667 18.6942V20.7633C142.667 21.289 142.963 22.3068 144.572 22.3068Z" fill="black"/>
<path d="M126.09 22.3403H117.817V8.93596H110.988V22.3403H102.815V8.93596H95.9867V25.429H132.983V8.93596H126.09V22.3403Z" fill="black"/>
</svg>
