<svg width="1440" height="864" viewBox="0 0 1440 864" fill="none" xmlns="http://www.w3.org/2000/svg">
<g clip-path="url(#clip0_156_4974)">
<g filter="url(#filter0_f_156_4974)">
<path d="M411 494L413.923 506.942L425.142 499.858L418.058 511.077L431 514L418.058 516.923L425.142 528.142L413.923 521.058L411 534L408.077 521.058L396.858 528.142L403.942 516.923L391 514L403.942 511.077L396.858 499.858L408.077 506.942L411 494Z" fill="white"/>
</g>
<g filter="url(#filter1_f_156_4974)">
<path d="M177 455L179.923 467.942L191.142 460.858L184.058 472.077L197 475L184.058 477.923L191.142 489.142L179.923 482.058L177 495L174.077 482.058L162.858 489.142L169.942 477.923L157 475L169.942 472.077L162.858 460.858L174.077 467.942L177 455Z" fill="white"/>
</g>
<g filter="url(#filter2_f_156_4974)">
<path d="M177 732L179.923 744.942L191.142 737.858L184.058 749.077L197 752L184.058 754.923L191.142 766.142L179.923 759.058L177 772L174.077 759.058L162.858 766.142L169.942 754.923L157 752L169.942 749.077L162.858 737.858L174.077 744.942L177 732Z" fill="white"/>
</g>
<g filter="url(#filter3_f_156_4974)">
<path d="M106 791L108.923 803.942L120.142 796.858L113.058 808.077L126 811L113.058 813.923L120.142 825.142L108.923 818.058L106 831L103.077 818.058L91.8579 825.142L98.9422 813.923L86 811L98.9422 808.077L91.8579 796.858L103.077 803.942L106 791Z" fill="white"/>
</g>
<g filter="url(#filter4_f_156_4974)">
<path d="M1205 824L1207.92 836.942L1219.14 829.858L1212.06 841.077L1225 844L1212.06 846.923L1219.14 858.142L1207.92 851.058L1205 864L1202.08 851.058L1190.86 858.142L1197.94 846.923L1185 844L1197.94 841.077L1190.86 829.858L1202.08 836.942L1205 824Z" fill="white"/>
</g>
<g filter="url(#filter5_f_156_4974)">
<path d="M655 415L657.923 427.942L669.142 420.858L662.058 432.077L675 435L662.058 437.923L669.142 449.142L657.923 442.058L655 455L652.077 442.058L640.858 449.142L647.942 437.923L635 435L647.942 432.077L640.858 420.858L652.077 427.942L655 415Z" fill="white"/>
</g>
<g filter="url(#filter6_f_156_4974)">
<path d="M840 92L842.923 104.942L854.142 97.8579L847.058 109.077L860 112L847.058 114.923L854.142 126.142L842.923 119.058L840 132L837.077 119.058L825.858 126.142L832.942 114.923L820 112L832.942 109.077L825.858 97.8579L837.077 104.942L840 92Z" fill="white"/>
</g>
<g filter="url(#filter7_f_156_4974)">
<path d="M1331 510L1333.92 522.942L1345.14 515.858L1338.06 527.077L1351 530L1338.06 532.923L1345.14 544.142L1333.92 537.058L1331 550L1328.08 537.058L1316.86 544.142L1323.94 532.923L1311 530L1323.94 527.077L1316.86 515.858L1328.08 522.942L1331 510Z" fill="white"/>
</g>
<g filter="url(#filter8_f_156_4974)">
<path d="M800 241L802.923 253.942L814.142 246.858L807.058 258.077L820 261L807.058 263.923L814.142 275.142L802.923 268.058L800 281L797.077 268.058L785.858 275.142L792.942 263.923L780 261L792.942 258.077L785.858 246.858L797.077 253.942L800 241Z" fill="white"/>
</g>
<g filter="url(#filter9_f_156_4974)">
<path d="M1419 490L1421.92 502.942L1433.14 495.858L1426.06 507.077L1439 510L1426.06 512.923L1433.14 524.142L1421.92 517.058L1419 530L1416.08 517.058L1404.86 524.142L1411.94 512.923L1399 510L1411.94 507.077L1404.86 495.858L1416.08 502.942L1419 490Z" fill="white"/>
</g>
<g filter="url(#filter10_f_156_4974)">
<path d="M987 36L989.923 48.9422L1001.14 41.8579L994.058 53.0766L1007 56L994.058 58.9234L1001.14 70.1421L989.923 63.0578L987 76L984.077 63.0578L972.858 70.1421L979.942 58.9234L967 56L979.942 53.0766L972.858 41.8579L984.077 48.9422L987 36Z" fill="white"/>
</g>
<g filter="url(#filter11_f_156_4974)">
<path d="M987 316L989.923 328.942L1001.14 321.858L994.058 333.077L1007 336L994.058 338.923L1001.14 350.142L989.923 343.058L987 356L984.077 343.058L972.858 350.142L979.942 338.923L967 336L979.942 333.077L972.858 321.858L984.077 328.942L987 316Z" fill="white"/>
</g>
</g>
<defs>
<filter id="filter0_f_156_4974" x="383" y="486" width="56" height="56" filterUnits="userSpaceOnUse" color-interpolation-filters="sRGB">
<feFlood flood-opacity="0" result="BackgroundImageFix"/>
<feBlend mode="normal" in="SourceGraphic" in2="BackgroundImageFix" result="shape"/>
<feGaussianBlur stdDeviation="4" result="effect1_foregroundBlur_156_4974"/>
</filter>
<filter id="filter1_f_156_4974" x="149" y="447" width="56" height="56" filterUnits="userSpaceOnUse" color-interpolation-filters="sRGB">
<feFlood flood-opacity="0" result="BackgroundImageFix"/>
<feBlend mode="normal" in="SourceGraphic" in2="BackgroundImageFix" result="shape"/>
<feGaussianBlur stdDeviation="4" result="effect1_foregroundBlur_156_4974"/>
</filter>
<filter id="filter2_f_156_4974" x="149" y="724" width="56" height="56" filterUnits="userSpaceOnUse" color-interpolation-filters="sRGB">
<feFlood flood-opacity="0" result="BackgroundImageFix"/>
<feBlend mode="normal" in="SourceGraphic" in2="BackgroundImageFix" result="shape"/>
<feGaussianBlur stdDeviation="4" result="effect1_foregroundBlur_156_4974"/>
</filter>
<filter id="filter3_f_156_4974" x="78" y="783" width="56" height="56" filterUnits="userSpaceOnUse" color-interpolation-filters="sRGB">
<feFlood flood-opacity="0" result="BackgroundImageFix"/>
<feBlend mode="normal" in="SourceGraphic" in2="BackgroundImageFix" result="shape"/>
<feGaussianBlur stdDeviation="4" result="effect1_foregroundBlur_156_4974"/>
</filter>
<filter id="filter4_f_156_4974" x="1177" y="816" width="56" height="56" filterUnits="userSpaceOnUse" color-interpolation-filters="sRGB">
<feFlood flood-opacity="0" result="BackgroundImageFix"/>
<feBlend mode="normal" in="SourceGraphic" in2="BackgroundImageFix" result="shape"/>
<feGaussianBlur stdDeviation="4" result="effect1_foregroundBlur_156_4974"/>
</filter>
<filter id="filter5_f_156_4974" x="627" y="407" width="56" height="56" filterUnits="userSpaceOnUse" color-interpolation-filters="sRGB">
<feFlood flood-opacity="0" result="BackgroundImageFix"/>
<feBlend mode="normal" in="SourceGraphic" in2="BackgroundImageFix" result="shape"/>
<feGaussianBlur stdDeviation="4" result="effect1_foregroundBlur_156_4974"/>
</filter>
<filter id="filter6_f_156_4974" x="812" y="84" width="56" height="56" filterUnits="userSpaceOnUse" color-interpolation-filters="sRGB">
<feFlood flood-opacity="0" result="BackgroundImageFix"/>
<feBlend mode="normal" in="SourceGraphic" in2="BackgroundImageFix" result="shape"/>
<feGaussianBlur stdDeviation="4" result="effect1_foregroundBlur_156_4974"/>
</filter>
<filter id="filter7_f_156_4974" x="1303" y="502" width="56" height="56" filterUnits="userSpaceOnUse" color-interpolation-filters="sRGB">
<feFlood flood-opacity="0" result="BackgroundImageFix"/>
<feBlend mode="normal" in="SourceGraphic" in2="BackgroundImageFix" result="shape"/>
<feGaussianBlur stdDeviation="4" result="effect1_foregroundBlur_156_4974"/>
</filter>
<filter id="filter8_f_156_4974" x="772" y="233" width="56" height="56" filterUnits="userSpaceOnUse" color-interpolation-filters="sRGB">
<feFlood flood-opacity="0" result="BackgroundImageFix"/>
<feBlend mode="normal" in="SourceGraphic" in2="BackgroundImageFix" result="shape"/>
<feGaussianBlur stdDeviation="4" result="effect1_foregroundBlur_156_4974"/>
</filter>
<filter id="filter9_f_156_4974" x="1391" y="482" width="56" height="56" filterUnits="userSpaceOnUse" color-interpolation-filters="sRGB">
<feFlood flood-opacity="0" result="BackgroundImageFix"/>
<feBlend mode="normal" in="SourceGraphic" in2="BackgroundImageFix" result="shape"/>
<feGaussianBlur stdDeviation="4" result="effect1_foregroundBlur_156_4974"/>
</filter>
<filter id="filter10_f_156_4974" x="959" y="28" width="56" height="56" filterUnits="userSpaceOnUse" color-interpolation-filters="sRGB">
<feFlood flood-opacity="0" result="BackgroundImageFix"/>
<feBlend mode="normal" in="SourceGraphic" in2="BackgroundImageFix" result="shape"/>
<feGaussianBlur stdDeviation="4" result="effect1_foregroundBlur_156_4974"/>
</filter>
<filter id="filter11_f_156_4974" x="959" y="308" width="56" height="56" filterUnits="userSpaceOnUse" color-interpolation-filters="sRGB">
<feFlood flood-opacity="0" result="BackgroundImageFix"/>
<feBlend mode="normal" in="SourceGraphic" in2="BackgroundImageFix" result="shape"/>
<feGaussianBlur stdDeviation="4" result="effect1_foregroundBlur_156_4974"/>
</filter>
<clipPath id="clip0_156_4974">
<rect width="1440" height="9995" fill="white"/>
</clipPath>
</defs>
</svg>
