<svg width="1440" height="1024" viewBox="0 0 1440 1024" fill="none" xmlns="http://www.w3.org/2000/svg">
<g clip-path="url(#clip0_2245_320)">
<line y1="-0.5" x2="1024" y2="-0.5" transform="matrix(0 1 1 0 1440 0)" stroke="#FF2100" stroke-opacity="0.1"/>
<line y1="-0.5" x2="1024" y2="-0.5" transform="matrix(0 1 1 0 1200 0)" stroke="#FF2100" stroke-opacity="0.1"/>
<line y1="-0.5" x2="1024" y2="-0.5" transform="matrix(0 1 1 0 960 0)" stroke="#FF2100" stroke-opacity="0.1"/>
<line y1="-0.5" x2="1024" y2="-0.5" transform="matrix(0 1 1 0 720 0)" stroke="#FF2100" stroke-opacity="0.1"/>
<line y1="-0.5" x2="1024" y2="-0.5" transform="matrix(0 1 1 0 480 0)" stroke="#FF2100" stroke-opacity="0.1"/>
<line y1="-0.5" x2="1024" y2="-0.5" transform="matrix(0 1 1 0 240 0)" stroke="#FF2100" stroke-opacity="0.1"/>
<line y1="-0.5" x2="1024" y2="-0.5" transform="matrix(0 1 1 0 1320 0)" stroke="#FF2100" stroke-opacity="0.1"/>
<line y1="-0.5" x2="1024" y2="-0.5" transform="matrix(0 1 1 0 1080 0)" stroke="#FF2100" stroke-opacity="0.1"/>
<line y1="-0.5" x2="1024" y2="-0.5" transform="matrix(0 1 1 0 840 0)" stroke="#FF2100" stroke-opacity="0.1"/>
<line y1="-0.5" x2="1024" y2="-0.5" transform="matrix(0 1 1 0 600 0)" stroke="#FF2100" stroke-opacity="0.1"/>
<line y1="-0.5" x2="1024" y2="-0.5" transform="matrix(0 1 1 0 360 0)" stroke="#FF2100" stroke-opacity="0.1"/>
<line y1="-0.5" x2="1024" y2="-0.5" transform="matrix(0 1 1 0 120 0)" stroke="#FF2100" stroke-opacity="0.1"/>
</g>
<defs>
<clipPath id="clip0_2245_320">
<rect width="1440" height="1024" fill="white"/>
</clipPath>
</defs>
</svg>
