<svg width="375" height="700" viewBox="0 0 375 700" fill="none" xmlns="http://www.w3.org/2000/svg">
<g clip-path="url(#clip0_2245_320)">
<line y1="-0.5" x2="700.001" y2="-0.5" transform="matrix(0 1 1 0 362 0)" stroke="#FF2100" stroke-opacity="0.1"/>
<line y1="-0.5" x2="700.001" y2="-0.5" transform="matrix(0 1 1 0 304 0)" stroke="#FF2100" stroke-opacity="0.1"/>
<line y1="-0.5" x2="700.001" y2="-0.5" transform="matrix(0 1 1 0 246 0)" stroke="#FF2100" stroke-opacity="0.1"/>
<line y1="-0.5" x2="700.001" y2="-0.5" transform="matrix(0 1 1 0 188 0)" stroke="#FF2100" stroke-opacity="0.1"/>
<line y1="-0.5" x2="700.001" y2="-0.5" transform="matrix(0 1 1 0 130 0)" stroke="#FF2100" stroke-opacity="0.1"/>
<line y1="-0.5" x2="700.001" y2="-0.5" transform="matrix(0 1 1 0 72 0)" stroke="#FF2100" stroke-opacity="0.1"/>
<line y1="-0.5" x2="700.001" y2="-0.5" transform="matrix(0 1 1 0 14 0)" stroke="#FF2100" stroke-opacity="0.1"/>
<line y1="-0.5" x2="700.001" y2="-0.5" transform="matrix(0 1 1 0 333 0)" stroke="#FF2100" stroke-opacity="0.1"/>
<line y1="-0.5" x2="700.001" y2="-0.5" transform="matrix(0 1 1 0 275 0)" stroke="#FF2100" stroke-opacity="0.1"/>
<line y1="-0.5" x2="700.001" y2="-0.5" transform="matrix(0 1 1 0 217 0)" stroke="#FF2100" stroke-opacity="0.1"/>
<line y1="-0.5" x2="700.001" y2="-0.5" transform="matrix(0 1 1 0 159 0)" stroke="#FF2100" stroke-opacity="0.1"/>
<line y1="-0.5" x2="700.001" y2="-0.5" transform="matrix(0 1 1 0 101 0)" stroke="#FF2100" stroke-opacity="0.1"/>
<line y1="-0.5" x2="700.001" y2="-0.5" transform="matrix(0 1 1 0 43 0)" stroke="#FF2100" stroke-opacity="0.1"/>
</g>
<defs>
<clipPath id="clip0_2245_320">
<rect width="375" height="700" fill="white"/>
</clipPath>
</defs>
</svg>
