<svg width="131" height="44" viewBox="0 0 131 44" fill="none" xmlns="http://www.w3.org/2000/svg">
<path fill-rule="evenodd" clip-rule="evenodd" d="M68.4892 18.6382H53.303L53.2419 23.0908C53.2216 24.5929 53.1538 25.9609 53.0453 27.1881C52.9301 28.4018 52.7809 29.515 52.5911 30.5208C52.4216 31.5133 52.2182 32.4052 51.9742 33.1964C51.7708 33.914 51.5538 34.5711 51.3098 35.1814H49.0115V42.1084H53.0725V39.1378H66.7401V42.1084H70.8011V35.1814H68.4825V18.6382H68.4892ZM57.2758 23.1847V22.6013H64.1978V35.1814H55.5334C56.5911 32.0833 57.1673 28.0799 57.2758 23.1847Z" fill="white"/>
<path d="M88.9318 18.6382H74.376V39.1445H89.2436V35.1814H78.6675V30.5745H87.8741V26.6114H78.6675V22.5946H88.9318V18.6382Z" fill="white"/>
<path d="M109.067 18.6382H91.3994V22.6013H98.0299V39.1445H102.321V22.6013H109.067V18.6382Z" fill="white"/>
<path d="M115.508 18.6382H111.216V39.1445H115.589L126.023 24.8679V39.1445H130.314V18.6382H125.887L115.508 32.6935V18.6382Z" fill="white"/>
<path d="M38.9922 5.00785C35.5385 1.53689 30.2889 0 22 0C13.7111 0 8.46154 1.53689 4.99058 5.00785C1.53689 8.46154 0 13.5903 0 22C0 30.4097 1.48509 35.4867 4.99058 38.9922C8.44427 42.4631 13.6939 44 21.9827 44C30.2716 44 35.5212 42.4631 38.9749 38.9922C42.4286 35.5212 43.9655 30.4097 43.9655 22C43.9655 13.5903 42.4804 8.51334 38.9749 5.00785H38.9922ZM24.6766 36.6782C24.6766 36.1947 25.0738 35.7975 25.5573 35.7975C26.0408 35.7975 26.438 36.1947 26.438 36.6782C26.438 37.1617 26.0408 37.5589 25.5573 37.5589C25.0738 37.5589 24.6766 37.1617 24.6766 36.6782ZM29.9262 35.1586C29.9262 34.675 30.3234 34.2779 30.8069 34.2779C31.2904 34.2779 31.6876 34.675 31.6876 35.1586C31.6876 35.6421 31.2904 36.0392 30.8069 36.0392C30.3234 36.0392 29.9262 35.6421 29.9262 35.1586ZM35.6248 35.6075C35.383 35.8493 35.1068 36.0911 34.8132 36.3155C33.7425 32.0157 31.8258 25.1256 26.7143 19.5133C22.5353 14.8509 18.2355 12.7787 17.8728 12.606C16.6295 12.0188 15.1617 12.5542 14.5746 13.7975C13.9874 15.0408 14.5228 16.5086 15.7661 17.0958C15.8697 17.1476 24.1068 21.1366 27.8885 30.8587C25.7645 30.9623 23.6923 31.6185 21.9137 32.7582C18.7708 25.3155 11.6217 22.19 11.2418 22.0173C9.98116 21.4819 8.53061 22.0691 7.97802 23.3297C7.4427 24.5903 8.02983 26.0408 9.29043 26.5934C9.37677 26.6279 16.8195 29.8917 18.1664 37.5243C18.27 38.0769 18.3564 38.595 18.4427 39.0785C13.573 38.7331 10.3956 37.6279 8.3752 35.5903C5.854 33.0691 4.78336 28.9937 4.78336 21.9655C4.78336 14.9372 5.854 10.8791 8.3752 8.34066C10.8964 5.81947 15.0754 4.73155 22 4.73155C28.9247 4.73155 33.1381 5.83673 35.6248 8.34066C38.146 10.8619 39.2166 14.9372 39.2166 21.9655C39.2166 28.9937 38.146 33.0518 35.6248 35.5903V35.6075Z" fill="white"/>
<path d="M58.6977 7.60069C59.7027 7.08773 60.2096 6.24181 60.2096 5.07791C60.2096 4.57696 60.1106 4.139 59.9156 3.77303C59.7206 3.41006 59.4357 3.10409 59.0727 2.86711C58.7157 2.63613 58.2838 2.45915 57.7888 2.34816C57.3029 2.23717 56.7509 2.18018 56.154 2.18018C55.302 2.18018 54.5641 2.28817 53.9612 2.50115C53.3612 2.71413 52.8993 2.94211 52.5873 3.17909L52.5273 3.22408V6.53278L52.8033 6.09182C52.9473 5.86384 53.1332 5.63586 53.3582 5.41688C53.5832 5.1949 53.8442 4.99692 54.1262 4.81994C54.4081 4.64595 54.7231 4.50797 55.0621 4.40597C55.401 4.30698 55.764 4.26199 56.145 4.27099C56.4119 4.27999 56.6639 4.31298 56.8949 4.36998C57.1169 4.42397 57.3119 4.50197 57.4769 4.60696C57.6328 4.70595 57.7588 4.83794 57.8458 4.99692C57.9328 5.15591 57.9778 5.35089 57.9778 5.57287C57.9778 5.76185 57.9478 5.93884 57.8908 6.09782C57.8338 6.25381 57.7438 6.3918 57.6208 6.50878C57.4978 6.62877 57.3299 6.72476 57.1229 6.79376C56.9099 6.86575 56.6399 6.90175 56.319 6.90175H54.5971V8.80958H56.334C57.1199 8.80958 57.6898 8.91757 58.0288 9.13055C58.3498 9.33153 58.5058 9.6435 58.5058 10.0785C58.5058 10.3304 58.4518 10.5524 58.3468 10.7354C58.2388 10.9214 58.0918 11.0834 57.9058 11.2094C57.7168 11.3383 57.4889 11.4403 57.2279 11.5063C56.9609 11.5753 56.6729 11.6113 56.367 11.6113C55.902 11.6113 55.461 11.5633 55.0621 11.4673C54.6631 11.3713 54.3001 11.2364 53.9822 11.0684C53.6672 10.8974 53.3852 10.6964 53.1452 10.4684C52.9083 10.2404 52.7103 9.99147 52.5573 9.72149L52.2783 9.22954V12.2533L52.3143 12.2953C52.4643 12.4722 52.6683 12.6462 52.9233 12.8142C53.1752 12.9822 53.4782 13.1322 53.8202 13.2642C54.1622 13.3962 54.5491 13.5042 54.9691 13.5851C55.389 13.6631 55.851 13.7051 56.337 13.7051C57.0479 13.7051 57.6868 13.6121 58.2328 13.4322C58.7817 13.2492 59.2497 13.0032 59.6217 12.6942C59.9966 12.3853 60.2846 12.0103 60.4736 11.5783C60.6596 11.1494 60.7556 10.6874 60.7556 10.2015C60.7556 8.81858 60.0656 7.94266 58.7037 7.59169L58.6977 7.60069Z" fill="white"/>
<path d="M69.7097 7.66694C70.0877 7.45396 70.3787 7.17499 70.5797 6.83902C70.8436 6.40106 70.9756 5.85211 70.9756 5.20117C70.9756 3.29934 69.7367 2.33643 67.292 2.33643H62.5884V13.5554H67.037C67.6849 13.5554 68.2729 13.4924 68.7858 13.3724C69.3078 13.2494 69.7577 13.0515 70.1267 12.7875C70.5017 12.5175 70.7926 12.1665 70.9906 11.7376C71.1886 11.3146 71.2906 10.8047 71.2906 10.2227C71.2906 9.47578 71.1286 8.87284 70.8136 8.42887C70.5617 8.07491 70.1897 7.81693 69.7097 7.66694ZM64.7602 4.43324H67.067C67.6969 4.43324 68.1529 4.53823 68.4199 4.74521C68.6778 4.94619 68.8038 5.23416 68.8038 5.62413C68.8038 6.04709 68.6538 6.36506 68.3479 6.59604C68.0329 6.83602 67.5859 6.95601 67.022 6.95601H64.7602V4.43324ZM68.6568 11.1256C68.3449 11.3506 67.8409 11.4646 67.157 11.4646H64.7602V8.78584H67.187C67.8139 8.78584 68.3029 8.88783 68.6358 9.09182C68.9508 9.2838 69.1038 9.60777 69.1038 10.0877C69.1038 10.5677 68.9568 10.9127 68.6568 11.1286V11.1256Z" fill="white"/>
<path d="M77.491 8.4768L74.2243 2.33936H71.7135L76.3781 11.0386C76.2791 11.2246 76.1711 11.3535 76.0511 11.4225C75.7541 11.5965 75.3522 11.5695 75.0132 11.4345C74.8332 11.3655 74.6772 11.2665 74.5542 11.1466L74.2993 10.9006V13.3814L74.3893 13.4204C74.5362 13.4863 74.7252 13.5463 74.9472 13.6003C75.1722 13.6543 75.4152 13.6813 75.6641 13.6813C75.9461 13.6813 76.2161 13.6423 76.4651 13.5643C76.7171 13.4863 76.963 13.3484 77.197 13.1534C77.428 12.9644 77.653 12.7064 77.8689 12.3884C78.0819 12.0765 78.2979 11.6715 78.5109 11.1886L82.4525 2.33936H80.1607L77.491 8.4768Z" fill="white"/>
<path d="M89.0609 7.68187L93.1736 2.33936H90.5158L87.1471 6.92594H85.8002V2.33936H83.6284V13.5583H85.8002V8.83077H87.2401L91.0437 13.5583H93.8275L89.0609 7.68187Z" fill="white"/>
</svg>
