<svg width="154" height="38" viewBox="0 0 154 38" fill="none" xmlns="http://www.w3.org/2000/svg">
<g clip-path="url(#clip0_423_13119)">
<path d="M29.1909 33.2071C29.0895 33.2111 28.988 33.2172 28.8865 33.2172C20.5266 33.2172 12.1666 33.2132 3.80663 33.2232C3.02745 33.2232 2.31928 33.0583 1.66591 32.6399C0.799473 32.0847 0.292193 31.2842 0.0750774 30.3026C0.0121747 30.017 0.00811648 29.7153 0.00811648 29.4216C0.00405824 20.9153 0.00811648 12.4109 0 3.90658C0 3.04568 0.176533 2.2572 0.66758 1.54113C1.18906 0.782819 1.91752 0.314155 2.81236 0.147206C3.38863 0.0385889 3.98722 0.0124403 4.57769 0.0104288C12.7916 0.0023831 21.0054 0.00640596 29.2173 0.00439453C31.0394 0.00439453 32.6688 1.28367 32.9123 3.05976C32.9549 3.36349 33.0057 3.67124 33.0057 3.97496C33.0117 12.4351 33.0097 20.8951 33.0097 29.3552C33.0097 30.4434 32.6526 31.4129 31.8815 32.1753C31.2119 32.837 30.384 33.2373 29.3958 33.2051C29.3735 33.1649 29.3532 33.1267 29.3309 33.0864C29.3309 33.0301 29.337 32.9758 29.337 32.9195C29.337 23.2847 29.337 13.65 29.337 4.01519C29.337 3.92669 29.3248 3.83819 29.3187 3.74968C29.2985 3.73158 29.2782 3.71348 29.2579 3.69739C29.1686 3.69336 29.0773 3.68733 28.988 3.68733C20.6706 3.68733 12.3553 3.68733 4.03795 3.68733C3.94867 3.68733 3.85736 3.69336 3.76807 3.69739C3.74575 3.71549 3.7214 3.73158 3.69908 3.74968C3.693 3.87238 3.68285 3.99307 3.68285 4.11576C3.68285 12.4491 3.68285 20.7845 3.68285 29.1179C3.68285 29.2386 3.68285 29.3593 3.68285 29.5242C3.96896 29.5242 4.22463 29.5242 4.48232 29.5242C11.4199 29.5262 18.3595 29.5282 25.297 29.5302C25.3762 29.5302 25.4594 29.5141 25.5324 29.5342C25.6339 29.5604 25.7536 29.5906 25.8226 29.661C26.9508 30.7974 28.0729 31.9399 29.197 33.0804C29.197 33.1226 29.1929 33.1649 29.1929 33.2051L29.1909 33.2071Z" fill="white"/>
<path d="M86.4607 19.3418C83.9811 19.3459 81.5036 19.3378 79.024 19.3579C78.2813 19.364 77.5387 19.4384 76.796 19.4987C76.7007 19.5068 76.5464 19.6174 76.5343 19.6959C76.4896 20.0177 76.4876 20.3456 76.4693 20.6996C76.5972 20.6996 76.7189 20.6996 76.8407 20.6996C79.0382 20.7016 81.2357 20.6794 83.4312 20.7177C84.2814 20.7338 85.1418 20.8263 85.9758 20.9932C87.0958 21.2145 87.7289 21.9849 87.9359 23.0751C88.0515 23.6865 88.1104 24.3141 88.1408 24.9356C88.1895 25.9333 88.2342 26.935 88.2037 27.9327C88.1753 28.8881 88.0962 29.8496 87.9562 30.7949C87.7654 32.0863 86.9092 32.8003 85.6572 33.0055C84.809 33.1443 83.9385 33.1886 83.0782 33.2006C81.3088 33.2268 79.5394 33.1906 77.772 33.2067C77.0497 33.2127 76.3415 33.1845 75.6516 32.9572C74.6208 32.6153 73.9938 31.9053 73.7523 30.8714C73.5373 29.9481 73.5535 29.0068 73.5677 28.0594C73.6042 25.5592 73.5778 23.059 73.6083 20.5588C73.6164 19.9071 73.6692 19.2413 73.8274 18.6117C74.1074 17.4994 74.911 16.8778 76.0148 16.6083C77.214 16.3167 78.4396 16.3146 79.6611 16.3106C82.0393 16.3006 84.4154 16.3086 86.7935 16.3106C86.8787 16.3106 86.966 16.3227 87.0573 16.3307C86.8726 17.3324 86.692 18.31 86.5114 19.2895C86.4932 19.3077 86.4729 19.3258 86.4546 19.3439L86.4607 19.3418ZM76.5038 23.7026C76.4977 23.7831 76.4896 23.8475 76.4896 23.9118C76.4998 25.9192 76.516 27.9266 76.518 29.9341C76.518 30.2056 76.6641 30.2056 76.861 30.2056C79.1031 30.2096 81.3453 30.2217 83.5875 30.2197C84.044 30.2197 84.5006 30.1754 84.9531 30.1312C85.0363 30.1231 85.1641 30.0326 85.1763 29.9642C85.223 29.7068 85.2473 29.4433 85.2514 29.1798C85.2656 28.2424 85.2838 27.3051 85.2717 26.3678C85.2615 25.5692 85.2148 24.7727 85.1702 23.9762C85.1661 23.9058 85.0728 23.7931 85.0079 23.7831C84.7015 23.7388 84.389 23.7006 84.0806 23.6986C81.6476 23.6886 79.2127 23.6886 76.7798 23.6865C76.6925 23.6865 76.6053 23.6946 76.5018 23.6986L76.5038 23.7026Z" fill="white"/>
<path d="M58.4711 34.9786C60.5895 34.9746 62.7079 34.9706 64.8242 34.9665C65.7597 34.9665 66.6951 34.9665 67.6305 34.9585C67.8497 34.9565 68.081 34.9464 68.2839 34.876C68.3955 34.8378 68.5172 34.6729 68.5335 34.5542C68.5883 34.1177 68.6004 33.6752 68.6309 33.2166C68.5294 33.2045 68.4564 33.1884 68.3833 33.1884C66.2081 33.1824 64.0349 33.1603 61.8597 33.1824C60.8735 33.1925 59.8975 33.1623 58.952 32.8787C57.9983 32.593 57.4443 31.9172 57.1948 30.9658C56.9188 29.9118 56.9269 28.8397 56.9269 27.7656C56.931 25.4887 56.9269 23.2117 56.9269 20.9348C56.9269 20.8704 56.935 20.806 56.9391 20.7256H59.8509C59.857 20.8302 59.8671 20.9368 59.8691 21.0414C59.8772 23.9218 59.8854 26.8001 59.8894 29.6805C59.8894 30.1471 59.9036 30.129 60.4008 30.2014C60.6767 30.2417 60.9628 30.2095 61.2449 30.2095H68.6329V20.7336H71.5771C71.5771 20.8744 71.5771 20.9931 71.5771 21.1118C71.5771 25.0301 71.6015 28.9483 71.5609 32.8646C71.5508 33.8904 71.4696 34.9323 71.1186 35.926C70.7411 36.9961 69.9437 37.5371 68.8683 37.7825C67.8131 38.0239 66.7438 37.9897 65.6765 37.9958C63.5581 38.0058 61.4397 37.9958 59.3213 38.0018C59.0392 38.0018 58.9033 37.9776 58.8586 37.6216C58.7633 36.8512 58.5664 36.0929 58.4163 35.3306C58.398 35.2361 58.4183 35.1315 58.4224 35.0329L58.4731 34.9806L58.4711 34.9786Z" fill="white"/>
<path d="M139.431 33.2149V20.7159C139.545 20.7159 139.644 20.7159 139.741 20.7159C142.862 20.7098 145.983 20.6917 149.104 20.6998C150.656 20.7038 151.391 21.5446 151.559 22.9365C151.64 23.6184 151.573 24.3183 151.573 25.0203C152.507 25.31 153.247 25.847 153.621 26.7441C153.828 27.239 153.966 27.7941 153.986 28.3271C154.016 29.1176 154.002 29.9302 153.85 30.7046C153.592 32.0081 152.772 32.9937 151.283 33.1526C151.019 33.1807 150.755 33.2129 150.49 33.2129C146.896 33.2169 143.301 33.2149 139.707 33.2149C139.62 33.2149 139.532 33.2149 139.429 33.2149H139.431ZM142.361 30.3446H142.55C145.084 30.3446 147.616 30.3446 150.151 30.3446C150.297 30.3446 150.455 30.3728 150.587 30.3265C150.764 30.2641 151.05 30.3567 151.044 29.9906C151.036 29.3389 151.086 28.6892 151.084 28.0375C151.084 27.957 150.932 27.8263 150.833 27.8062C150.563 27.7519 150.283 27.7217 150.009 27.7217C147.588 27.7157 145.167 27.7177 142.745 27.7177H142.359V30.3466L142.361 30.3446ZM142.357 25.0807C142.438 25.0867 142.481 25.0948 142.525 25.0948C144.406 25.0948 146.289 25.0948 148.17 25.0948C148.282 25.0948 148.41 25.1068 148.503 25.0606C148.599 25.0143 148.716 24.9077 148.726 24.8192C148.755 24.5436 148.714 24.26 148.741 23.9845C148.773 23.6586 148.649 23.5681 148.329 23.5701C146.403 23.5822 144.475 23.5761 142.55 23.5761C142.487 23.5761 142.424 23.5862 142.359 23.5922V25.0807H142.357Z" fill="white"/>
<path d="M79.4298 15.1924C78.4782 15.2507 77.5286 15.309 76.5607 15.3694V0.00604153C76.6763 0.00604153 76.7859 0.00604153 76.8955 0.00604153C79.8357 0.00805296 82.7759 -0.0160842 85.7161 0.0261559C86.8787 0.0422473 88.0516 0.0784531 89.1798 0.462637C90.0888 0.772398 90.6265 1.3879 90.8558 2.285C91.3103 4.06511 91.2576 5.88144 91.1967 7.69374C91.1622 8.69946 91.1095 9.71523 90.7219 10.6666C90.3668 11.5356 89.6688 12.0042 88.7841 12.2376C87.6539 12.5353 86.4993 12.5272 85.3427 12.5252C83.4069 12.5192 81.4711 12.5252 79.4867 12.5252V15.136C79.4684 15.1541 79.4501 15.1743 79.4319 15.1924H79.4298ZM79.509 9.52817C81.7978 9.52817 84.0501 9.53219 86.3004 9.52414C86.8138 9.52414 87.3251 9.47587 87.8385 9.4457C88.0313 9.43564 88.1611 9.40145 88.1652 9.13795C88.1733 8.61297 88.2809 8.08999 88.2809 7.56501C88.2809 6.10471 88.2423 4.6424 88.22 3.11169C85.2676 2.87837 82.3903 3.05135 79.509 2.97894V9.52616V9.52817Z" fill="white"/>
<path d="M137.44 26.9631C137.44 27.9407 137.493 28.9223 137.424 29.8958C137.369 30.6702 137.296 31.4607 136.775 32.1325C136.371 32.6555 135.833 32.915 135.225 33.0055C134.474 33.1161 133.711 33.1805 132.954 33.1905C131.118 33.2127 129.281 33.1845 127.447 33.1885C126.599 33.1885 125.769 33.1402 124.961 32.8305C124.188 32.5348 123.813 31.9394 123.583 31.2113C123.306 30.3242 123.36 29.407 123.35 28.4979C123.336 27.3272 123.374 26.1545 123.352 24.9839C123.336 24.1351 123.391 23.3023 123.659 22.4917C123.93 21.667 124.503 21.1823 125.353 20.955C126.25 20.7156 127.165 20.7337 128.074 20.7156C129.651 20.6834 131.229 20.6774 132.804 20.7176C133.668 20.7398 134.539 20.8263 135.391 20.9731C136.659 21.1903 137.173 22.0331 137.294 23.0871C137.442 24.3704 137.491 25.6658 137.582 26.9571C137.536 26.9571 137.489 26.9611 137.442 26.9631H137.44ZM134.547 23.7891C134.222 23.7569 133.938 23.7086 133.652 23.7026C132.988 23.6885 132.323 23.6885 131.659 23.6905C129.993 23.6966 128.326 23.7086 126.66 23.7106C126.384 23.7106 126.276 23.781 126.278 24.0828C126.292 26.0017 126.29 27.9206 126.278 29.8395C126.276 30.1372 126.361 30.2136 126.658 30.2136C128.685 30.2076 130.712 30.2257 132.739 30.2257C133.335 30.2257 133.93 30.1895 134.545 30.1694V23.7911L134.547 23.7891Z" fill="white"/>
<path d="M40.418 0.0140333C41.252 0.0100105 42.088 -0.0241839 42.9179 0.0240905C43.1513 0.0381705 43.3866 0.271497 43.5936 0.438446C44.5737 1.22894 45.5436 2.0315 46.5155 2.83205C47.2663 3.44956 48.013 4.07109 48.8003 4.7228C49.1656 4.42913 49.5288 4.13345 49.896 3.84179C50.379 3.45761 50.8639 3.07544 51.3428 2.68924C51.7568 2.35534 52.1605 2.01139 52.5725 1.67548C53.096 1.24905 53.6682 0.868893 54.1349 0.38816C54.5265 -0.0161382 54.9607 -0.00608101 55.4396 0.00196472C56.0707 0.0120219 56.6997 0.00397616 57.3571 0.00397616V12.495H54.4494V3.67685C53.8569 4.17167 53.3232 4.61217 52.7936 5.0567C51.5741 6.08052 50.3506 7.10031 49.1412 8.13419C48.9241 8.32125 48.7902 8.30717 48.5771 8.12816C46.9112 6.73222 45.2352 5.34835 43.5632 3.96248C43.4942 3.90616 43.4211 3.85587 43.3034 3.76536V12.495H40.3775C40.3693 12.4346 40.3511 12.3602 40.3511 12.2878C40.3511 8.2589 40.3511 4.23 40.3511 0.199085C40.3511 0.154834 40.3572 0.110582 40.3612 0.0663306C40.3795 0.0482277 40.3998 0.0301248 40.418 0.0120219V0.0140333Z" fill="white"/>
<path d="M62.6552 8.50046C62.6816 8.46626 62.7059 8.42805 62.7363 8.39586C64.4712 6.65396 66.2102 4.91608 67.9431 3.17016C68.9637 2.1403 69.9742 1.10039 70.9908 0.0665157C71.0091 0.0484128 71.0294 0.0303099 71.0476 0.012207C72.1068 0.012207 73.164 0.012207 74.2232 0.012207C74.2435 0.0303099 74.2638 0.0484128 74.2841 0.0665157C74.2881 0.289785 74.2962 0.511043 74.2962 0.734312C74.2962 4.52385 74.2962 8.3154 74.2962 12.1049V12.4911H71.3662V4.02502C71.3581 4.00289 71.35 3.98077 71.3418 3.95864C71.3134 3.98077 71.285 4.00088 71.2566 4.02301C70.6296 4.63247 69.9965 5.23389 69.3797 5.8514C68.424 6.80683 67.4804 7.77433 66.5328 8.73579C65.5528 9.72944 64.5707 10.7231 63.5926 11.7188C63.5094 11.8032 63.4526 11.9139 63.3755 12.0084C63.0996 12.3483 62.7952 12.5595 62.296 12.5294C61.4235 12.475 60.5429 12.5133 59.646 12.5133V0.0142185C60.5774 0.0142185 61.5189 0.0142185 62.4604 0.0142185C62.4827 0.0323214 62.503 0.0504243 62.5253 0.0665157C62.5375 0.187202 62.5598 0.305876 62.5598 0.426562C62.5618 3.11183 62.5598 5.7991 62.5598 8.48436L62.574 8.56281C62.6004 8.54068 62.6268 8.52057 62.6552 8.49844V8.50046Z" fill="white"/>
<path d="M90.1862 33.1523C90.1781 33.0638 90.1619 32.9773 90.1619 32.8888C90.1619 28.9283 90.1619 24.9678 90.1619 21.0073C90.1619 20.9188 90.17 20.8323 90.174 20.7257H93.0716V29.3487C93.443 28.9464 93.7453 28.6185 94.0497 28.2907C94.1186 28.2163 94.1897 28.1459 94.2607 28.0755C95.8312 26.4965 97.4038 24.9215 98.9703 23.3405C99.8103 22.4917 100.638 21.6328 101.476 20.782C101.521 20.7377 101.604 20.7096 101.669 20.7096C102.692 20.7056 103.716 20.7056 104.761 20.7056C104.772 20.79 104.788 20.8625 104.788 20.9369C104.788 24.9638 104.788 28.9907 104.788 33.0175C104.788 33.0618 104.782 33.1061 104.778 33.1503C104.759 33.1684 104.739 33.1865 104.721 33.2046H101.951C101.931 33.1865 101.908 33.1684 101.888 33.1523C101.88 33.0316 101.864 32.9089 101.864 32.7882C101.864 30.1995 101.864 27.6088 101.864 25.0201C101.864 24.9115 101.864 24.8029 101.864 24.5836C101.645 24.7928 101.484 24.9376 101.336 25.0925C101.154 25.2836 100.989 25.4928 100.803 25.6819C99.3213 27.1763 97.836 28.6648 96.3547 30.1593C95.4964 31.0242 94.6097 31.863 93.8102 32.7782C93.4734 33.1644 93.1406 33.2348 92.6901 33.2207C91.8805 33.1966 91.0689 33.2086 90.2572 33.2046C90.2369 33.1865 90.2146 33.1684 90.1943 33.1523H90.1862Z" fill="white"/>
<path d="M109.921 33.2068H107.107V20.7319H110.021V25.4406C110.163 25.4406 110.272 25.4406 110.38 25.4406C111.709 25.4406 113.04 25.4064 114.365 25.4587C114.883 25.4789 115.165 25.2817 115.449 24.9076C116.295 23.7973 117.165 22.7051 118.028 21.6068C118.196 21.3916 118.401 21.1985 118.529 20.9612C118.655 20.7299 118.825 20.7017 119.05 20.7037C120.164 20.7097 121.28 20.7057 122.459 20.7057C122.242 20.9913 122.054 21.2468 121.857 21.4962C121.106 22.4476 120.349 23.395 119.598 24.3464C118.992 25.1168 118.395 25.8972 117.784 26.6636C117.638 26.8446 117.618 26.9754 117.77 27.1685C118.712 28.3572 119.641 29.556 120.578 30.7468C121.193 31.5272 121.816 32.3016 122.435 33.078L122.429 33.2048C121.27 33.2088 120.11 33.2048 118.951 33.2188C118.61 33.2229 118.565 32.9232 118.423 32.7502C117.602 31.7465 116.806 30.7186 116.005 29.6988C115.702 29.3126 115.406 28.9224 115.098 28.5403C115.045 28.4759 114.944 28.4135 114.864 28.4115C113.267 28.4035 111.671 28.4055 110.039 28.4055C110.033 28.5423 110.023 28.6589 110.023 28.7756C110.023 30.1132 110.023 31.4508 110.021 32.7884C110.021 32.9091 109.999 33.0278 109.986 33.1484C109.964 33.1666 109.942 33.1847 109.921 33.2007V33.2068Z" fill="white"/>
<path d="M40.3612 33.1524C40.3572 32.3941 40.3511 31.6358 40.3511 30.8775C40.3511 27.619 40.3511 24.3604 40.3511 21.1019V20.7238H43.2649V25.4406C43.4171 25.4406 43.5348 25.4406 43.6545 25.4406C44.9836 25.4406 46.3147 25.4024 47.6417 25.4587C48.1733 25.4808 48.4452 25.2535 48.7232 24.8915C49.4801 23.9059 50.2511 22.9303 51.0161 21.9507C51.2921 21.5987 51.562 21.2407 51.8501 20.8988C51.9252 20.8103 52.0571 20.7157 52.1626 20.7157C53.3314 20.7037 54.5001 20.7077 55.7298 20.7077C55.4153 21.11 55.1352 21.476 54.8491 21.8381C54.2546 22.5924 53.656 23.3447 53.0615 24.101C52.3797 24.9679 51.7081 25.8409 51.0182 26.6977C50.8802 26.8707 50.868 26.9713 51.0121 27.1483C51.704 28.0052 52.3797 28.8781 53.0615 29.743C53.6783 30.5235 54.2972 31.2999 54.9141 32.0783C55.1778 32.4122 55.4376 32.7481 55.6993 33.082C55.6993 33.1243 55.6953 33.1665 55.6932 33.2067C54.5224 33.2107 53.3496 33.2168 52.1788 33.2107C52.0936 33.2107 51.986 33.1424 51.9313 33.072C50.9532 31.843 49.9792 30.6059 49.0053 29.3729C48.8368 29.1577 48.6238 28.9666 48.5041 28.7273C48.3559 28.4356 48.1449 28.4034 47.8588 28.4034C46.3492 28.4135 44.8415 28.4074 43.275 28.4074V28.7695C43.275 30.1091 43.275 31.4467 43.275 32.7863C43.275 32.907 43.2588 33.0297 43.2507 33.1504C43.2304 33.1685 43.2081 33.1866 43.1878 33.2027H40.418C40.3998 33.1846 40.3795 33.1665 40.3612 33.1484V33.1524Z" fill="white"/>
<path d="M29.1909 33.2067C29.1909 33.1645 29.195 33.1223 29.195 33.082C29.2416 33.084 29.2863 33.0861 29.333 33.0881C29.3553 33.1283 29.3756 33.1665 29.3979 33.2067C29.3289 33.2067 29.2599 33.2067 29.1909 33.2067Z" fill="white"/>
<path d="M62.6552 8.50041C62.6288 8.52253 62.6024 8.54265 62.574 8.56477L62.5598 8.48633C62.5923 8.49035 62.6227 8.49639 62.6552 8.50041Z" fill="#808080"/>
<path d="M71.2566 4.02286C71.285 4.00074 71.3134 3.98062 71.3418 3.9585C71.3499 3.98062 71.358 4.00275 71.3662 4.02487C71.3296 4.02487 71.2931 4.02487 71.2566 4.02286Z" fill="#BFBFBF"/>
<path d="M55.6953 33.2067C55.6953 33.1645 55.6994 33.1223 55.7014 33.082C55.7217 33.1122 55.742 33.1424 55.7623 33.1725C55.74 33.1846 55.7176 33.1947 55.6973 33.2067H55.6953Z" fill="white"/>
<path d="M122.429 33.2068C122.429 33.1646 122.433 33.1223 122.435 33.0801C122.461 33.1183 122.49 33.1565 122.516 33.1927C122.488 33.1967 122.459 33.2008 122.429 33.2068Z" fill="white"/>
<path d="M62.5233 0.0684105C62.501 0.0503076 62.4807 0.0322047 62.4584 0.0161133C62.4807 0.0342162 62.501 0.0523191 62.5233 0.0684105Z" fill="white"/>
<path d="M43.1877 33.2066C43.208 33.1885 43.2304 33.1704 43.2506 33.1543C43.2304 33.1724 43.208 33.1905 43.1877 33.2066Z" fill="white"/>
<path d="M90.1863 33.1523C90.2066 33.1704 90.2289 33.1885 90.2492 33.2046C90.2289 33.1865 90.2066 33.1684 90.1863 33.1523Z" fill="white"/>
<path d="M101.882 33.1523C101.902 33.1704 101.925 33.1885 101.945 33.2046C101.925 33.1865 101.902 33.1684 101.882 33.1523Z" fill="white"/>
<path d="M109.921 33.2066C109.944 33.1885 109.966 33.1704 109.986 33.1543C109.964 33.1724 109.942 33.1905 109.921 33.2066Z" fill="white"/>
<path d="M11.0141 7.43436C8.70086 7.34184 7.30077 9.20845 7.31294 11.0851C7.32715 13.1207 8.76376 14.7238 10.9126 14.7882C13.0269 14.8525 14.6015 13.0684 14.6685 11.2118C14.7436 9.12598 12.9661 7.30362 11.012 7.43436H11.0141ZM21.9896 7.43436C19.8915 7.30362 18.3351 9.16218 18.3189 11.0107C18.3006 13.177 19.9341 14.7701 21.9327 14.7862C24.041 14.8022 25.6704 13.1488 25.6744 11.0871C25.6805 8.99524 23.9456 7.31569 21.9875 7.43436H21.9896ZM22.0159 18.4852C20.2283 18.3846 18.3635 19.857 18.3331 22.1219C18.3067 24.0428 19.7555 25.8108 21.9896 25.835C24.0978 25.8571 25.6785 24.2037 25.6785 22.1319C25.6785 19.8751 23.7732 18.3766 22.018 18.4852H22.0159ZM7.3515 22.2083C7.34541 24.1635 9.01335 25.8993 11.1175 25.843C12.8342 25.7967 14.7517 24.4229 14.6705 21.8684C14.6097 19.9274 12.9113 18.4148 10.6691 18.4952C8.83681 18.5616 7.30077 20.2371 7.3515 22.2083Z" fill="white"/>
<path d="M29.3208 3.75152C29.3005 3.73341 29.2802 3.71531 29.2599 3.69922C29.2802 3.71732 29.3005 3.73542 29.3208 3.75152Z" fill="#FDE4E4"/>
<path d="M11.014 7.43436C12.9681 7.30362 14.7456 9.12598 14.6705 11.2118C14.6035 13.0684 13.0289 14.8525 10.9146 14.7882C8.76575 14.7238 7.32913 13.1207 7.31493 11.0851C7.30072 9.20845 8.70284 7.34184 11.016 7.43436H11.014Z" fill="white"/>
<path d="M21.9875 7.43425C23.9456 7.31558 25.6785 8.99512 25.6744 11.087C25.6683 13.1487 24.041 14.8021 21.9327 14.786C19.932 14.7699 18.3006 13.1769 18.3189 11.0106C18.3351 9.16207 19.8894 7.30351 21.9896 7.43425H21.9875Z" fill="white"/>
<path d="M22.0159 18.485C23.7711 18.3764 25.6765 19.8749 25.6765 22.1318C25.6765 24.2035 24.0978 25.8589 21.9875 25.8348C19.7555 25.8107 18.3047 24.0426 18.331 22.1217C18.3615 19.8568 20.2283 18.3845 22.0139 18.485H22.0159Z" fill="white"/>
<path d="M7.35144 22.2103C7.30071 20.2411 8.83676 18.5636 10.6691 18.4972C12.9133 18.4167 14.6096 19.9293 14.6705 21.8704C14.7516 24.4249 12.8341 25.7987 11.1175 25.845C9.01329 25.9013 7.34332 24.1654 7.35144 22.2103Z" fill="white"/>
</g>
<defs>
<clipPath id="clip0_423_13119">
<rect width="154" height="38" fill="white"/>
</clipPath>
</defs>
</svg>
