<svg width="329" height="548" viewBox="0 0 329 548" fill="none" xmlns="http://www.w3.org/2000/svg">
<path d="M69.3245 99.0212C69.7992 124.055 62.9002 148.586 55.4832 172.49C48.0546 196.393 39.9946 220.403 38.0164 245.359C36.0383 270.316 40.8254 296.836 56.6736 316.216C60.8244 321.29 65.7316 325.844 71.5404 328.876C83.1471 334.93 98.0317 334.098 108.882 326.79C119.743 319.483 126.112 306.005 124.861 292.972" stroke="black" stroke-width="11" stroke-miterlimit="10" stroke-linecap="round" stroke-linejoin="round"/>
<path d="M154.542 316.783C143.65 388.095 140.121 460.521 144.033 532.549" stroke="black" stroke-width="11" stroke-miterlimit="10" stroke-linecap="round" stroke-linejoin="round"/>
<path d="M144.968 534.678C134.985 534.616 125.014 534.555 115.03 534.504" stroke="black" stroke-width="11" stroke-miterlimit="10" stroke-linecap="round" stroke-linejoin="round"/>
<path d="M183.364 336.354C178.857 402.484 183.902 469.256 198.301 533.96" stroke="black" stroke-width="11" stroke-miterlimit="10" stroke-linecap="round" stroke-linejoin="round"/>
<path d="M198.38 533.366C206.133 533.673 213.875 533.98 221.628 534.287" stroke="black" stroke-width="11" stroke-miterlimit="10" stroke-linecap="round" stroke-linejoin="round"/>
<path d="M225.297 337.057C220.8 360.296 220.699 384.369 225.022 407.643C231.014 439.935 245.432 471.243 243.436 504.021" stroke="black" stroke-width="11" stroke-miterlimit="10" stroke-linecap="round" stroke-linejoin="round"/>
<path d="M226.59 499.436C227.593 486.771 231.59 474.34 238.165 463.466" stroke="black" stroke-width="11" stroke-miterlimit="10" stroke-linecap="round" stroke-linejoin="round"/>
<path d="M58.4698 157.208C57.7621 152.814 53.7885 149.624 49.6538 147.963C45.3246 146.229 40.3522 145.705 35.985 147.321C31.6052 148.947 28.0004 152.96 27.6299 157.615C27.2149 162.866 30.9858 167.829 35.801 169.988C40.6054 172.134 46.1877 171.891 51.2961 170.59" stroke="black" stroke-width="11" stroke-miterlimit="10" stroke-linecap="round" stroke-linejoin="round"/>
<path d="M57.9316 148.168C58.0609 143.12 54.2174 138.657 49.6622 136.482C45.1062 134.319 39.9201 133.98 34.8835 133.686" stroke="black" stroke-width="11" stroke-miterlimit="10" stroke-linecap="round" stroke-linejoin="round"/>
<path d="M90.1864 295.022L256.682 368.08C262.503 370.632 269.157 366.905 270.015 360.604L291.734 201.141C292.516 195.388 298.206 191.648 303.795 193.206C310.491 195.07 316.89 189.406 315.837 182.54L292.005 26.7259C290.895 19.5142 282.454 16.132 276.675 20.5948L135.595 129.761C129.69 134.332 131.046 143.597 138.023 146.27L152.604 151.886C158.207 154.045 160.471 160.766 157.303 165.859L85.8861 281.22C82.8234 286.167 84.8552 292.683 90.1864 295.022Z" fill="#54ACFF"/>
<path d="M213.174 162.282C210.996 179.354 209.145 198.027 218.379 212.549C219.127 213.723 220.163 214.976 221.552 214.962C222.848 214.941 223.825 213.826 224.595 212.801C235.199 198.698 242.382 182.035 245.338 164.633" stroke="black" stroke-width="9" stroke-miterlimit="10" stroke-linecap="round" stroke-linejoin="round"/>
<path d="M219.574 117.469C219.522 118.171 219.469 118.873 219.417 119.574C219.305 121.072 219.843 122.7 220.816 123.843C221.758 124.937 223.363 125.821 224.83 125.86C226.345 125.902 227.949 125.528 229.099 124.461C230.238 123.393 230.997 122.038 231.116 120.447C231.168 119.745 231.22 119.043 231.273 118.341C231.384 116.844 230.847 115.215 229.873 114.072C228.932 112.979 227.327 112.094 225.859 112.055C224.345 112.013 222.741 112.388 221.591 113.455C220.464 114.524 219.693 115.878 219.574 117.469Z" fill="black"/>
<path d="M245.958 126.494C245.905 127.196 245.853 127.898 245.801 128.6C245.689 130.097 246.227 131.725 247.2 132.868C248.142 133.962 249.747 134.846 251.214 134.885C252.729 134.928 254.333 134.553 255.483 133.486C256.621 132.418 257.381 131.063 257.5 129.472C257.552 128.77 257.604 128.068 257.657 127.366C257.768 125.869 257.231 124.241 256.257 123.097C255.315 122.004 253.711 121.119 252.243 121.081C250.729 121.038 249.125 121.413 247.974 122.48C246.848 123.549 246.076 124.903 245.958 126.494Z" fill="black"/>
</svg>
