<svg width="454" height="340" viewBox="0 0 454 340" fill="none" xmlns="http://www.w3.org/2000/svg">
<g clip-path="url(#clip0_2211_6)">
<mask id="mask0_2211_6" style="mask-type:luminance" maskUnits="userSpaceOnUse" x="-82" y="-92" width="633" height="458">
<path d="M501 -92H-32C-59.6142 -92 -82 -69.6142 -82 -42V316C-82 343.614 -59.6142 366 -32 366H501C528.614 366 551 343.614 551 316V-42C551 -69.6142 528.614 -92 501 -92Z" fill="white"/>
</mask>
<g mask="url(#mask0_2211_6)">
<path d="M222.685 72.5491L267.489 316.886C267.489 316.886 278.993 334.992 336.623 336.478C394.253 337.964 407.314 316.102 407.314 316.102L442.671 72.5541H222.685V72.5491Z" fill="#54ACFF"/>
<path d="M258.365 74.896L291.029 335.831L320.502 340.432L301.25 85.27L258.365 74.896Z" fill="white"/>
<path d="M410.977 74.896L378.319 335.831L348.84 340.432L368.092 85.27L410.977 74.896Z" fill="white"/>
<path d="M226.112 79.1619C228.805 79.6769 231.393 80.4559 233.926 81.5089C232.594 80.9489 231.261 80.3849 229.929 79.8249C232.435 80.9379 234.781 82.2819 237.008 83.8769C240.341 86.2679 246.094 86.6079 249.893 85.5609C253.77 84.4919 257.976 81.4919 259.89 77.8729C261.94 73.9909 262.966 69.2919 261.573 64.9869C260.164 60.6279 257.603 57.6559 253.885 54.9909C248.358 51.0269 241.679 48.1859 235.001 46.9029C230.526 46.0419 226.156 46.2229 222.115 48.5869C218.644 50.6159 215.337 54.5959 214.427 58.5829C212.552 66.8459 216.922 77.3959 226.112 79.1619Z" fill="#FF931E"/>
<path d="M230.137 37.8609C233.312 42.0289 236.481 46.1959 239.656 50.3629C242.409 53.9769 245.084 56.7899 249.652 58.0509C253.655 59.1529 258.985 58.6539 262.538 56.3679C266.108 54.0649 269.255 50.6379 270.226 46.3709C271.152 42.2969 271.196 36.9729 268.542 33.4859C265.367 29.3179 262.198 25.1509 259.023 20.9839C256.27 17.3699 253.595 14.5569 249.027 13.2959C245.024 12.1939 239.694 12.6929 236.141 14.9789C232.572 17.2819 229.424 20.7089 228.454 24.9759C227.521 29.0499 227.477 34.3679 230.137 37.8609Z" fill="#FF931E"/>
<path d="M267.489 79.266C275.336 78.383 283.183 77.495 291.024 76.612C295.597 76.097 299.474 75.088 302.851 71.716C305.752 68.815 307.934 64.055 307.748 59.888C307.556 55.562 306.136 51.076 302.851 48.06C299.797 45.253 295.339 42.676 291.024 43.164C283.177 44.047 275.331 44.935 267.489 45.818C262.916 46.333 259.04 47.342 255.662 50.714C252.761 53.615 250.579 58.375 250.765 62.542C250.957 66.868 252.377 71.354 255.662 74.369C258.722 77.171 263.174 79.754 267.489 79.266Z" fill="#FF931E"/>
<path d="M300.044 37.697C300.554 35.652 301.195 33.683 301.99 31.731C301.431 33.063 300.866 34.396 300.307 35.728C301.086 33.941 301.952 32.208 302.978 30.547C303.449 29.779 303.975 29.055 304.469 28.304C305.22 27.273 304.798 27.805 303.213 29.905C303.592 29.439 303.981 28.984 304.381 28.54C307.326 25.173 309.278 21.302 309.278 16.712C309.278 12.611 307.457 7.7085 304.381 4.8846C298.07 -0.905804 286.884 -2.145 280.732 4.8846C274.64 11.848 270.039 19.766 267.796 28.803C265.691 37.28 270.516 47.337 279.476 49.376C288.123 51.35 297.79 46.783 300.044 37.697Z" fill="#FF931E"/>
<path d="M265.406 53.7189C266.711 65.7279 270.22 77.3469 277.639 87.0749C280.397 90.6879 283.062 93.5009 287.635 94.7619C291.638 95.8639 296.968 95.3649 300.521 93.0789C304.091 90.7759 307.238 87.3489 308.209 83.0829C309.135 79.0089 309.185 73.6839 306.525 70.1969C304.047 66.9449 301.996 63.4739 300.335 59.7399C300.894 61.0729 301.459 62.4049 302.018 63.7369C300.307 59.6799 299.128 55.5019 298.476 51.1419C298.673 52.6229 298.876 54.1089 299.074 55.5889C298.986 54.9699 298.915 54.3499 298.854 53.7299C298.355 49.1679 297.319 45.2699 293.958 41.9029C291.057 39.0019 286.297 36.8199 282.13 37.0059C277.804 37.1979 273.318 38.6179 270.302 41.9029C267.49 44.9569 264.934 49.3929 265.406 53.7189Z" fill="#FF931E"/>
<path d="M320.502 67.867C323.924 65.52 327.527 63.546 331.337 61.912C330.005 62.471 328.673 63.036 327.34 63.595C331.776 61.78 336.333 60.491 341.065 59.724C344.947 59.099 349.158 55.282 351.061 52.036C353.161 48.45 354.049 43.17 352.744 39.15C351.434 35.104 348.928 31.199 345.057 29.154C340.84 26.928 336.854 26.714 332.171 27.471C322.06 29.105 312.058 33.195 303.614 38.98C299.984 41.47 297.127 44.617 295.926 48.976C294.824 52.979 295.323 58.309 297.61 61.862C302.243 69.029 312.787 73.158 320.502 67.867Z" fill="#FF931E"/>
<path d="M310.715 59.038C313.67 67.389 318.205 75.148 325.004 80.961C328.426 83.889 332.193 85.857 336.832 85.857C340.933 85.857 345.835 84.037 348.659 80.961C354.395 74.71 355.76 63.381 348.659 57.311C347.755 56.538 346.872 55.737 346.044 54.876C345.633 54.449 345.232 54.004 344.843 53.555C343.746 52.228 344.064 52.656 345.797 54.838C344.854 52.71 343.231 50.813 342.255 48.647C342.814 49.98 343.379 51.312 343.938 52.645C343.593 51.817 343.275 50.989 342.973 50.144C341.504 45.993 339.184 42.429 335.286 40.148C331.699 38.048 326.419 37.16 322.4 38.465C314.279 41.091 307.584 50.21 310.715 59.038Z" fill="#FF931E"/>
<path d="M351.757 23.835C351.757 21.477 351.757 19.119 351.757 16.762C351.757 12.474 349.893 7.96638 346.861 4.93408C343.96 2.03338 339.201 -0.149018 335.033 0.0374822C330.707 0.229382 326.222 1.64958 323.206 4.93408C320.201 8.20798 318.309 12.227 318.309 16.762C318.309 19.119 318.309 21.477 318.309 23.835C318.309 28.123 320.173 32.63 323.206 35.663C326.106 38.563 330.866 40.746 335.033 40.559C339.36 40.367 343.845 38.947 346.861 35.663C349.866 32.389 351.757 28.37 351.757 23.835Z" fill="#FF931E"/>
<path d="M349.964 59.504C358.88 59.038 367.796 59.246 376.679 60.129C380.693 60.53 385.76 57.974 388.507 55.233C391.407 52.332 393.59 47.572 393.403 43.405C393.211 39.079 391.791 34.593 388.507 31.578C385.058 28.414 381.329 27.142 376.679 26.681C367.796 25.793 358.88 25.584 349.964 26.056C341.24 26.511 332.823 33.42 333.24 42.78C333.63 51.449 340.61 59.992 349.964 59.504Z" fill="#FF931E"/>
<path d="M354.038 59.7461C355.047 65.6791 356.692 71.4251 358.968 76.9961C360.69 81.1971 362.576 84.6071 366.656 86.9921C370.242 89.0921 375.522 89.981 379.541 88.676C383.588 87.365 387.492 84.8591 389.538 80.9881C391.495 77.2871 392.888 72.1651 391.221 68.1021C388.94 62.5311 387.3 56.7851 386.291 50.8521C385.628 46.9591 381.883 42.7751 378.604 40.8561C375.018 38.7561 369.737 37.867 365.718 39.172C361.671 40.483 357.767 42.9891 355.722 46.8601C353.507 51.0601 353.243 55.0791 354.038 59.7461Z" fill="#FF931E"/>
<path d="M397.949 33.25C397.971 33.036 397.993 32.817 398.015 32.603C397.817 34.083 397.614 35.569 397.417 37.05C397.631 35.52 398.004 34.083 398.558 32.641C397.998 33.974 397.433 35.306 396.874 36.639C397.483 35.218 398.218 33.93 399.133 32.685C398.261 33.815 397.39 34.944 396.518 36.068C396.781 35.723 397.061 35.388 397.351 35.065C400.285 31.665 402.248 27.854 402.248 23.237C402.248 19.136 400.427 14.234 397.351 11.41C394.165 8.48204 389.982 6.31023 385.524 6.51313C381.28 6.70503 376.58 8.07604 373.696 11.41C371.481 13.976 369.353 16.641 367.988 19.75C365.893 24.52 365.016 28.002 364.501 33.244C364.106 37.258 366.655 42.325 369.397 45.072C372.298 47.973 377.057 50.155 381.225 49.969C385.551 49.777 390.036 48.356 393.052 45.072C396.216 41.628 397.494 37.9 397.949 33.25Z" fill="#FF931E"/>
<path d="M381.779 67.137C383.04 67.63 384.29 68.135 385.54 68.656C384.208 68.096 382.875 67.532 381.543 66.972C388.079 69.774 394.346 73.103 400.323 76.952C407.693 81.695 419.109 78.701 423.205 70.953C427.592 62.646 425.069 53.138 417.206 48.071C408.844 42.687 399.923 38.492 390.667 34.884C386.867 33.403 381.159 34.593 377.781 36.567C374.31 38.596 371.004 42.577 370.094 46.563C369.118 50.846 369.331 55.649 371.777 59.449C374.277 63.32 377.507 65.47 381.779 67.137Z" fill="#FF931E"/>
<path d="M409.118 65.9251C415.923 68.8641 422.492 72.2691 428.809 76.1461C436.277 80.7191 447.529 78.0161 451.691 70.1471C456.001 61.9941 453.665 52.1511 445.692 47.2651C439.37 43.3941 432.806 39.9831 426.002 37.0441C421.708 35.1911 417.826 34.0621 413.116 35.3611C409.239 36.4301 405.033 39.4301 403.12 43.0491C401.069 46.9311 400.044 51.6301 401.436 55.9351C402.681 59.7841 405.231 64.2471 409.118 65.9251Z" fill="#FF931E"/>
<path d="M317.974 34.0499C317.974 31.1719 317.974 28.2869 317.974 25.4089C317.974 21.1209 316.11 16.6129 313.078 13.5809C310.177 10.6799 305.418 8.49791 301.25 8.68391C292.192 9.08991 284.526 16.0319 284.526 25.4089C284.526 28.2869 284.526 31.1719 284.526 34.0499C284.526 38.3379 286.39 42.8459 289.423 45.8779C292.323 48.7789 297.083 50.9609 301.25 50.7749C310.314 50.3689 317.974 43.4269 317.974 34.0499Z" fill="#FF931E"/>
<path d="M337.353 81.2239C331.623 75.1699 325.887 69.1219 320.157 63.0679C314.131 56.7019 302.501 56.5379 296.507 63.0679C290.24 69.8949 290.075 79.9299 296.507 86.7179C302.237 92.7719 307.973 98.8199 313.703 104.873C319.729 111.239 331.359 111.404 337.353 104.873C343.62 98.0519 343.785 88.0179 337.353 81.2239Z" fill="#FF931E"/>
<path d="M339.316 90.578C345.172 93.287 350.853 96.33 356.352 99.713C363.815 104.303 375.078 101.578 379.234 93.715C383.55 85.55 381.197 75.729 373.236 70.833C367.736 67.449 362.061 64.406 356.199 61.697C352.021 59.767 347.908 58.747 343.313 60.014C339.436 61.083 335.231 64.083 333.317 67.702C329.424 75.071 330.839 86.663 339.316 90.578Z" fill="#FF931E"/>
<path d="M356.248 81.416C364.994 81.416 373.378 73.723 372.972 64.691C372.566 55.633 365.625 47.967 356.248 47.967C347.502 47.967 339.118 55.66 339.524 64.691C339.93 73.75 346.872 81.416 356.248 81.416Z" fill="#FF931E"/>
<path d="M390.59 68.6181C390.59 72.2861 390.59 75.9491 390.59 79.6171C390.59 88.3631 398.283 96.7471 407.314 96.3411C416.373 95.9361 424.039 88.9941 424.039 79.6171C424.039 75.9491 424.039 72.2861 424.039 68.6181C424.039 59.8721 416.346 51.4881 407.314 51.8941C398.251 52.2991 390.59 59.2411 390.59 68.6181Z" fill="#FF931E"/>
<path d="M314.608 11.8271C314.081 11.8271 313.56 11.8271 313.034 11.8271C310.731 11.7391 308.582 12.2211 306.591 13.2691C304.518 13.9431 302.725 15.0951 301.206 16.7291C299.578 18.2421 298.421 20.0351 297.746 22.1131C296.699 24.1041 296.217 26.2531 296.304 28.5561C296.502 30.0371 296.705 31.5231 296.902 33.0031C297.697 35.8381 299.128 38.2951 301.201 40.3841C302.33 41.2561 303.46 42.1271 304.584 42.9991C307.194 44.5131 310.007 45.2751 313.023 45.2801C313.549 45.2801 314.07 45.2801 314.597 45.2801C316.9 45.3681 319.049 44.8861 321.04 43.8381C323.112 43.1641 324.905 42.0121 326.424 40.3781C328.053 38.8651 329.21 37.0721 329.884 34.9941C330.932 33.0031 331.414 30.8541 331.326 28.5511C331.129 27.0701 330.926 25.5841 330.729 24.1041C329.934 21.2691 328.502 18.8121 326.43 16.7231C325.3 15.8511 324.171 14.9791 323.047 14.1081C320.436 12.6001 317.624 11.8371 314.608 11.8271Z" fill="#FF931E"/>
<path d="M156.404 158.725C157.231 168.661 158.058 178.597 158.88 188.532C159.842 200.124 160.784 212.023 157.787 223.226C154.796 234.428 146.973 244.961 136.173 247.391C133.572 247.977 130.8 248.065 128.303 247.095C125.795 246.113 123.756 244.144 121.899 242.116C108.926 227.897 101.757 207.976 102.522 188.264" stroke="black" stroke-width="6" stroke-miterlimit="10" stroke-linecap="round" stroke-linejoin="round"/>
<path d="M68.595 199.494C67.581 241.189 66.571 282.89 65.557 324.585" stroke="black" stroke-width="6" stroke-miterlimit="10" stroke-linecap="round" stroke-linejoin="round"/>
<path d="M52.469 199.494C51.454 241.189 50.445 282.89 49.431 324.585" stroke="black" stroke-width="6" stroke-miterlimit="10" stroke-linecap="round" stroke-linejoin="round"/>
<path d="M65.989 325.61C69.354 325.61 72.715 325.61 76.081 325.61" stroke="black" stroke-width="6" stroke-miterlimit="10" stroke-linecap="round" stroke-linejoin="round"/>
<path d="M38.1219 324.727C41.8049 324.53 45.488 324.333 49.171 324.141" stroke="black" stroke-width="6" stroke-miterlimit="10" stroke-linecap="round" stroke-linejoin="round"/>
<path d="M24.186 206.578C24.55 225.655 24.914 244.726 25.278 263.802C25.362 268.118 25.455 272.521 26.782 276.606" stroke="black" stroke-width="6" stroke-miterlimit="10" stroke-linecap="round" stroke-linejoin="round"/>
<path d="M34.491 290.062C32.811 285.373 30.413 280.976 27.427 277.077" stroke="black" stroke-width="6" stroke-miterlimit="10" stroke-linecap="round" stroke-linejoin="round"/>
<path d="M26.485 275.964C26.303 284.239 26.121 292.513 25.939 300.787" stroke="black" stroke-width="6" stroke-miterlimit="10" stroke-linecap="round" stroke-linejoin="round"/>
<path d="M24.852 275.537C22.818 281.47 21.101 287.529 19.718 293.665" stroke="black" stroke-width="6" stroke-miterlimit="10" stroke-linecap="round" stroke-linejoin="round"/>
<path d="M155.764 158.649C152.076 156.801 148.388 154.947 144.699 153.1" stroke="black" stroke-width="6" stroke-miterlimit="10" stroke-linecap="round" stroke-linejoin="round"/>
<path d="M156.201 157.491C157.111 149.102 158.204 140.241 163.151 133.601" stroke="black" stroke-width="6" stroke-miterlimit="10" stroke-linecap="round" stroke-linejoin="round"/>
<path d="M156.352 156.428C159.338 151.876 163.348 148.082 167.957 145.439" stroke="black" stroke-width="6" stroke-miterlimit="10" stroke-linecap="round" stroke-linejoin="round"/>
<path d="M114.461 198.808L9.93798 210.564C5.29778 211.085 1.52638 206.671 2.50438 201.862L13.5689 147.391C14.4844 142.889 11.2281 138.645 6.86358 138.645C2.45238 138.645 -0.814524 134.319 0.179076 129.789L21.705 31.5341C22.99 25.6771 30.101 23.9341 33.706 28.5951L106.897 123.248C109.675 126.839 108.572 132.224 104.634 134.291L102.465 135.426C99.068 137.208 97.69 141.551 99.38 145.126L119.871 188.39C122.009 192.897 119.22 198.271 114.461 198.808Z" fill="#54ACFF"/>
<path d="M66.7329 134.401C66.8469 137.954 65.4949 141.557 63.0189 143.964C60.5419 146.376 56.9689 147.517 53.6599 146.821C51.5069 146.371 49.5299 145.197 47.8189 143.744C41.3729 138.283 38.6369 129.181 38.2109 120.473" stroke="black" stroke-width="6" stroke-miterlimit="10" stroke-linecap="round" stroke-linejoin="round"/>
<path d="M60.256 116.997C56.911 116.997 56.901 111.514 60.256 111.514C63.601 111.514 63.606 116.997 60.256 116.997Z" fill="black"/>
<path d="M49.332 113.641C45.987 113.641 45.977 108.158 49.332 108.158C52.682 108.158 52.687 113.641 49.332 113.641Z" fill="black"/>
</g>
</g>
<defs>
<clipPath id="clip0_2211_6">
<rect width="454" height="340" fill="white"/>
</clipPath>
</defs>
</svg>
