<svg width="459" height="381" viewBox="0 0 459 381" fill="none" xmlns="http://www.w3.org/2000/svg">
<g clip-path="url(#clip0_2211_50)">
<mask id="mask0_2211_50" style="mask-type:luminance" maskUnits="userSpaceOnUse" x="-65" y="-44" width="633" height="458">
<path d="M518 -44H-15C-42.6142 -44 -65 -21.6142 -65 6V364C-65 391.614 -42.6142 414 -15 414H518C545.614 414 568 391.614 568 364V6C568 -21.6142 545.614 -44 518 -44Z" fill="white"/>
</mask>
<g mask="url(#mask0_2211_50)">
<path d="M56.97 206.708C56.97 206.708 -0.881817 184.556 11.7798 140.371C24.4414 96.1861 57.642 98.7391 57.642 98.7391C57.642 98.7391 82.484 98.5071 87.595 102.22C92.706 105.938 56.97 206.708 56.97 206.708Z" fill="#FF931E"/>
<path d="M158.067 126.787C158.287 126.864 158.501 126.948 158.715 127.025C159.483 127.299 157.977 126.674 158.709 127.019C159.054 127.18 159.399 127.34 159.738 127.519C160.482 127.906 161.202 128.34 161.892 128.81C162.083 128.941 162.267 129.072 162.452 129.203C162.535 129.262 163.148 129.601 162.642 129.34C162.142 129.078 162.725 129.411 162.821 129.488C162.999 129.631 163.178 129.78 163.35 129.935C163.993 130.488 164.606 131.077 165.195 131.684C165.79 132.297 166.355 132.939 166.902 133.594C167.003 133.713 167.099 133.832 167.2 133.957C167.247 134.016 167.295 134.076 167.348 134.141C167.586 134.445 167.545 134.385 167.224 133.969C167.539 134.219 167.824 134.772 168.057 135.099C169.098 136.557 170.038 138.086 170.918 139.645C171.853 141.317 172.692 143.036 173.465 144.786C173.727 145.375 173.453 144.75 173.412 144.655C173.525 144.893 173.614 145.137 173.709 145.381C173.87 145.785 174.03 146.19 174.179 146.595C174.548 147.57 174.887 148.558 175.202 149.558C175.762 151.343 176.238 153.151 176.625 154.984C176.815 155.877 176.982 156.775 177.124 157.679C177.196 158.108 177.225 158.548 177.321 158.971C177.112 158.013 177.303 158.846 177.327 159.06C177.356 159.322 177.386 159.577 177.416 159.839C177.832 163.76 177.826 167.717 177.434 171.644C177.38 172.156 177.327 172.668 177.261 173.179C177.237 173.393 177.184 174.054 177.261 173.203C177.237 173.483 177.184 173.762 177.142 174.036C176.988 175.053 176.809 176.071 176.607 177.082C176.208 179.105 175.72 181.117 175.167 183.104C174.613 185.097 173.983 187.067 173.304 189.012C173.013 189.845 172.709 190.672 172.4 191.499C172.222 191.975 172.037 192.445 171.847 192.921C171.781 193.076 171.722 193.237 171.656 193.391C171.567 193.611 171.032 194.546 171.525 193.713C171.103 194.427 170.841 195.277 170.478 196.027C170.044 196.943 169.586 197.848 169.098 198.74C168.229 200.329 167.271 201.87 166.206 203.334C166.081 203.506 165.956 203.673 165.831 203.84C165.593 204.149 165.629 204.107 165.926 203.715C165.825 203.845 165.718 203.976 165.611 204.107C165.296 204.5 164.969 204.887 164.629 205.262C163.981 205.988 163.302 206.69 162.588 207.35C162.237 207.677 161.875 207.993 161.506 208.302C161.357 208.427 161.131 208.683 160.946 208.754C161.321 208.469 161.404 208.403 161.196 208.564C161.101 208.635 161.006 208.707 160.911 208.778C160.107 209.373 159.268 209.92 158.4 210.414C157.953 210.67 157.495 210.92 157.031 211.146C156.888 211.218 156.746 211.283 156.603 211.354C156.383 211.461 155.383 211.783 156.365 211.473C155.46 211.759 154.598 212.14 153.675 212.39C153.217 212.515 152.759 212.622 152.295 212.711C152.063 212.759 151.831 212.794 151.599 212.836C150.778 212.985 152.444 212.759 151.611 212.836C150.581 212.931 149.57 212.973 148.535 212.925C146.666 212.836 144.881 214.633 144.965 216.495C145.054 218.506 146.535 219.97 148.535 220.065C156.603 220.452 164.415 216.227 169.675 210.307C175.244 204.036 178.552 196.14 181.075 188.239C183.723 179.95 185.288 171.15 184.77 162.434C184.264 153.961 182.027 145.684 178.189 138.11C174.245 130.327 168.449 122.902 159.97 119.903C158.209 119.278 155.984 120.611 155.579 122.396C155.121 124.395 156.18 126.121 158.067 126.787Z" fill="#FF931E"/>
<path d="M343.51 232.174C343.998 240.26 337.185 246.555 329.944 248.881C326.41 250.018 321.62 250.803 318.413 248.364C314.772 245.597 313.73 239.427 313.022 235.244C312.195 230.365 312.058 225.29 312.118 220.345C312.172 215.752 312.826 211.295 315.724 207.576C321.763 199.824 332.396 198.503 341.511 199.925C346.378 200.686 348.478 193.231 343.57 192.463C333.657 190.916 323.084 191.613 314.801 197.848C306.507 204.096 304.252 212.967 304.401 222.963C304.544 232.376 305.014 244.098 311.101 251.833C317.092 259.443 327.814 258.467 335.769 254.843C344.54 250.845 351.858 242.217 351.251 232.168C350.948 227.223 343.207 227.194 343.51 232.174Z" fill="#FF931E"/>
<path d="M414.946 240.617C416.945 248.732 426.525 252.421 434.152 250.88C444.119 248.869 446.177 237.082 445.565 228.479C444.898 219.161 441.054 210.617 435.098 203.494C429.529 196.842 421.17 189.917 412.399 188.447C407.532 187.632 405.438 195.087 410.341 195.908C416.671 196.967 422.336 201.412 426.78 205.857C431.433 210.51 435.027 216.156 436.764 222.529C438.246 227.949 439.234 236.803 435.497 241.616C432.409 245.591 423.573 243.306 422.407 238.564C421.211 233.732 413.75 235.773 414.946 240.617Z" fill="#FF931E"/>
<path d="M418.557 269.777H335.852C331.925 269.777 328.712 266.564 328.712 262.637V179.932C328.712 176.005 331.925 172.792 335.852 172.792H418.557C422.484 172.792 425.697 176.005 425.697 179.932V262.637C425.697 266.564 422.484 269.777 418.557 269.777Z" fill="#FF931E"/>
<path d="M159.203 223.974C158.447 231.483 157.888 239.23 160.107 246.448C162.327 253.665 167.95 260.311 175.387 261.59C184.437 263.143 193.219 256.223 196.92 247.822C200.621 239.421 200.437 229.889 200.187 220.708C199.604 199.199 199.02 177.689 198.437 156.18" stroke="black" stroke-width="6" stroke-miterlimit="10" stroke-linecap="round" stroke-linejoin="round"/>
<path d="M36.538 325.232C60.005 324.393 81.163 308.453 92.837 288.08C104.511 267.707 107.837 243.508 107.343 220.03" stroke="black" stroke-width="6" stroke-miterlimit="10" stroke-linecap="round" stroke-linejoin="round"/>
<path d="M36.3 326.671C38.864 331.336 41.429 336.007 43.993 340.672" stroke="black" stroke-width="6" stroke-miterlimit="10" stroke-linecap="round" stroke-linejoin="round"/>
<path d="M132.916 225.771C146.214 272.574 153.646 321.049 154.973 369.69" stroke="black" stroke-width="6" stroke-miterlimit="10" stroke-linecap="round" stroke-linejoin="round"/>
<path d="M154.038 369.06C160.084 369.351 166.159 369.137 172.168 368.423" stroke="black" stroke-width="6" stroke-miterlimit="10" stroke-linecap="round" stroke-linejoin="round"/>
<path d="M53.031 217.81L164.713 231.216C171.764 232.061 177.44 225.527 175.625 218.661L157.138 148.933C155.538 142.906 159.762 136.89 165.974 136.349C172.674 135.766 176.922 128.888 174.441 122.634L133.767 20.1215C130.78 12.5948 120.57 11.5119 116.072 18.2473L49.42 118.064C45.213 124.366 49.223 132.874 56.762 133.642L58.684 133.838C65.294 134.51 69.447 141.305 67.026 147.493L44.868 204.173C42.482 210.295 46.51 217.025 53.031 217.81Z" fill="#54ACFF"/>
<path d="M56.643 102.963C62.617 105.034 67.115 110.05 70.435 115.429C76.147 124.687 79.128 135.605 78.914 146.482C78.753 154.734 76.796 162.874 73.987 170.633C71.69 176.981 68.733 183.235 64.098 188.144C59.457 193.046 52.906 196.48 46.165 196.111" stroke="#FF931E" stroke-width="6" stroke-miterlimit="10" stroke-linecap="round" stroke-linejoin="round"/>
<path d="M65.806 141.49C71.589 142.698 77.813 141.692 82.918 138.717C77.081 136.26 70.387 133.796 64.64 136.456C71.268 135.278 77.89 134.1 84.519 132.922C84.763 131.839 83.507 131.071 82.454 130.72C77.099 128.917 71.399 128.132 65.752 128.424" stroke="black" stroke-width="6" stroke-miterlimit="10" stroke-linecap="round" stroke-linejoin="round"/>
<path d="M177.678 145.595C185.139 143.739 193.63 147.583 197.146 154.419C191.535 154.354 185.948 153.116 180.831 150.813C185.24 151.016 189.578 152.515 193.172 155.074C193.707 155.454 194.26 155.907 194.439 156.537C194.927 158.275 192.535 159.28 190.738 159.471C186.781 159.893 182.83 160.316 178.874 160.744" stroke="black" stroke-width="6" stroke-miterlimit="10" stroke-linecap="round" stroke-linejoin="round"/>
<path d="M319.728 228.247C314.778 228.068 309.821 228.116 304.877 228.39C302.729 228.509 299.843 229.591 300.313 231.686C300.492 232.489 301.164 233.078 301.854 233.53C305.228 235.756 309.845 235.922 313.368 233.953C309.708 234.75 306.049 235.541 302.39 236.339C307.132 238.701 313.171 238.195 317.461 235.077" stroke="black" stroke-width="6" stroke-miterlimit="10" stroke-linecap="round" stroke-linejoin="round"/>
<path d="M312.017 238.516C313.01 255.259 317.872 271.503 322.697 287.562C324.208 292.584 326.576 298.427 331.711 299.45C334.71 300.051 337.84 298.671 340.041 296.54C342.243 294.416 343.665 291.626 344.938 288.847C352.584 272.193 356.416 253.796 356.053 235.476" stroke="black" stroke-width="6" stroke-miterlimit="10" stroke-linecap="round" stroke-linejoin="round"/>
<path d="M56.566 218.007C57.726 227.467 58.886 236.922 60.052 246.382C60.618 250.964 61.254 255.748 63.908 259.526C66.562 263.304 71.911 265.613 75.939 263.352C79.348 261.436 80.55 257.182 81.324 253.344C88.707 216.858 86.161 178.409 74.029 143.221" stroke="black" stroke-width="6" stroke-miterlimit="10" stroke-linecap="round" stroke-linejoin="round"/>
<path d="M366.37 242.717C366.65 279.803 366.929 316.89 367.209 353.982" stroke="black" stroke-width="6" stroke-miterlimit="10" stroke-linecap="round" stroke-linejoin="round"/>
<path d="M366.269 354.029C364.246 353.684 362.146 353.821 360.182 354.422" stroke="black" stroke-width="6" stroke-miterlimit="10" stroke-linecap="round" stroke-linejoin="round"/>
<path d="M385.464 242.116C386.868 278.774 386.785 315.492 385.214 352.144" stroke="black" stroke-width="6" stroke-miterlimit="10" stroke-linecap="round" stroke-linejoin="round"/>
<path d="M385.63 352.744C388.456 353.018 391.33 352.828 394.097 352.185" stroke="black" stroke-width="6" stroke-miterlimit="10" stroke-linecap="round" stroke-linejoin="round"/>
<path d="M408.633 243.919C407.366 263.357 415.059 283.207 429.095 296.713C430.761 298.314 433.076 299.932 435.188 298.998C436.425 298.45 437.145 297.165 437.722 295.945C442.625 285.515 442.97 273.591 443.077 262.066C443.191 249.363 443.119 236.66 442.857 223.962" stroke="black" stroke-width="6" stroke-miterlimit="10" stroke-linecap="round" stroke-linejoin="round"/>
<path d="M433.355 226.259C437.788 224.682 442.762 224.676 447.195 226.247C447.647 226.408 448.129 226.61 448.355 227.033C448.552 227.395 448.516 227.836 448.433 228.24C447.885 230.739 445.553 232.542 443.083 233.215C440.614 233.887 437.996 233.637 435.45 233.381C438.413 233.102 441.388 232.935 444.363 232.887C445.428 232.869 446.546 232.881 447.469 233.411C448.391 233.94 449.004 235.16 448.498 236.1C448.081 236.868 447.141 237.142 446.291 237.338C444.625 237.737 442.959 238.129 441.293 238.528" stroke="black" stroke-width="6" stroke-miterlimit="10" stroke-linecap="round" stroke-linejoin="round"/>
<path d="M334.591 239.242L420.872 245.079C426.59 245.466 430.701 239.683 428.458 234.411L413.036 198.14C410.882 193.07 414.601 187.454 420.104 187.454C426.007 187.454 429.702 181.075 426.774 175.958L380.239 94.651C377.175 89.302 369.375 89.558 366.668 95.098L328.641 172.924C326.374 177.559 329.236 183.068 334.329 183.884L335.609 184.086C340.464 184.859 343.349 189.935 341.541 194.504L327.963 228.758C326.053 233.584 329.397 238.891 334.591 239.242Z" fill="#54ACFF"/>
<path d="M99.995 124.342C106.004 122.039 110.943 117.773 113.715 111.906C115.346 108.461 110.217 105.439 108.58 108.902C106.498 113.311 103.017 116.839 98.418 118.6C94.872 119.957 96.407 125.71 99.995 124.342Z" fill="black"/>
<path d="M109.556 118.737C116.315 124.568 125.806 127.085 134.564 125.377" stroke="black" stroke-width="6" stroke-miterlimit="10" stroke-linecap="round" stroke-linejoin="round"/>
<path d="M116.083 88.3261C115.125 88.6481 114.376 89.2311 113.977 90.1771C113.685 90.8671 113.584 91.6351 113.816 92.3661C114.197 93.5621 115.119 94.5741 116.363 94.8951C117.892 95.2941 119.516 94.5441 120.308 93.1941C120.778 92.3961 120.933 91.4861 120.95 90.5701C120.968 89.8141 120.605 88.9931 120.082 88.4631C119.564 87.9461 118.719 87.5591 117.975 87.5951C117.208 87.6301 116.411 87.8801 115.869 88.4631C115.328 89.0521 115.012 89.7541 115 90.5701C114.994 90.7241 114.988 90.8731 114.971 91.0281C115.006 90.7661 115.042 90.4981 115.078 90.2361C115.054 90.4151 115.018 90.5811 114.953 90.7421C115.054 90.5041 115.155 90.2661 115.25 90.0341C115.209 90.1231 115.167 90.2011 115.107 90.2781C115.262 90.0761 115.417 89.8791 115.572 89.6771C115.524 89.7311 115.476 89.7781 115.423 89.8201C115.625 89.6651 115.821 89.5101 116.024 89.3561C115.988 89.3861 115.946 89.4091 115.899 89.4271C116.137 89.3261 116.375 89.2251 116.607 89.1301C116.577 89.1481 116.541 89.1531 116.506 89.1591C116.768 89.1241 117.035 89.0881 117.297 89.0521C117.261 89.0581 117.232 89.0581 117.196 89.0581C117.458 89.0941 117.725 89.1301 117.987 89.1651C117.934 89.1591 117.892 89.1481 117.839 89.1241C118.077 89.2251 118.315 89.3261 118.547 89.4211C118.499 89.3971 118.457 89.3741 118.41 89.3381C118.612 89.4931 118.808 89.6471 119.011 89.8021C118.969 89.7661 118.933 89.7311 118.898 89.6891C119.052 89.8911 119.207 90.0881 119.362 90.2901C119.32 90.2301 119.284 90.1771 119.255 90.1111C119.356 90.3491 119.457 90.5871 119.552 90.8191C119.534 90.7721 119.522 90.7301 119.516 90.6831C119.552 90.9441 119.588 91.2121 119.624 91.4741C119.618 91.4441 119.624 91.4141 119.624 91.3911C119.588 91.6521 119.552 91.9201 119.516 92.1821C119.522 92.1521 119.528 92.1281 119.54 92.1051C119.439 92.3431 119.338 92.5811 119.243 92.8131C119.249 92.8011 119.255 92.7891 119.267 92.7771C119.112 92.9791 118.957 93.1761 118.802 93.3781C118.814 93.3661 118.82 93.3601 118.832 93.3481C118.63 93.5031 118.434 93.6581 118.231 93.8121C118.255 93.7941 118.279 93.7771 118.309 93.7651C118.071 93.8661 117.833 93.9671 117.601 94.0621C117.618 94.0561 117.636 94.0501 117.648 94.0441C118.386 93.7941 119.029 93.3601 119.427 92.6761C119.802 92.0391 119.957 91.0991 119.725 90.3851C119.493 89.6651 119.046 88.9691 118.356 88.6061C117.69 88.2671 116.839 88.0711 116.083 88.3261Z" fill="black"/>
<path d="M133.921 94.532C134.546 97.055 137.622 98.245 139.83 96.96C141.026 96.263 141.466 94.901 141.198 93.598C140.966 92.479 140.175 91.551 139.247 90.938C138.878 90.694 138.449 90.522 138.021 90.409C137.236 90.206 136.706 90.278 135.921 90.397C135.23 90.504 134.481 91.188 134.142 91.765C133.767 92.402 133.612 93.342 133.844 94.056C134.076 94.776 134.522 95.472 135.213 95.835C135.451 95.936 135.689 96.037 135.921 96.133C136.45 96.275 136.974 96.275 137.503 96.133C137.533 96.127 137.563 96.127 137.587 96.121C137.325 96.156 137.057 96.192 136.795 96.228C136.914 96.216 137.021 96.222 137.14 96.234C136.879 96.198 136.611 96.162 136.349 96.127C136.462 96.15 136.569 96.18 136.682 96.222C136.444 96.121 136.206 96.02 135.974 95.924C136.081 95.972 136.176 96.031 136.278 96.097C136.075 95.942 135.879 95.788 135.677 95.633C135.796 95.722 135.891 95.823 135.986 95.936C135.831 95.734 135.677 95.538 135.522 95.335C135.587 95.431 135.647 95.526 135.695 95.633C135.593 95.395 135.492 95.157 135.397 94.925C135.427 95.008 135.451 95.085 135.468 95.175C135.927 94.056 136.379 92.937 136.837 91.813C136.795 91.843 136.748 91.866 136.7 91.884C136.938 91.783 137.176 91.682 137.408 91.587C137.331 91.617 137.265 91.634 137.188 91.646C137.45 91.611 137.717 91.575 137.979 91.539C137.872 91.551 137.777 91.545 137.67 91.533C137.932 91.569 138.199 91.605 138.461 91.64C138.384 91.622 138.312 91.605 138.235 91.581C138.473 91.682 138.711 91.783 138.943 91.878C138.848 91.837 138.759 91.789 138.67 91.73C138.872 91.884 139.068 92.039 139.27 92.194C139.187 92.128 139.116 92.057 139.05 91.979C139.205 92.182 139.36 92.378 139.514 92.58C139.473 92.515 139.437 92.456 139.401 92.378C139.502 92.616 139.604 92.854 139.699 93.086C139.681 93.039 139.663 92.991 139.657 92.937C139.479 92.223 138.919 91.527 138.289 91.158C137.652 90.784 136.712 90.629 135.998 90.861C134.433 91.379 133.517 92.914 133.921 94.532Z" fill="black"/>
<path d="M377.86 188.501C374.724 190.571 374.403 195.195 377.592 197.402C380.519 199.425 385.053 197.694 385.642 194.13C386.303 190.149 382.858 186.775 378.859 187.715C375.384 188.531 373.23 192.856 375.295 195.986C376.461 197.759 378.58 198.586 380.644 198.045C382.75 197.491 383.952 195.819 384.196 193.737C384.381 192.184 382.697 190.696 381.221 190.762C379.454 190.839 378.443 192.077 378.246 193.737C378.288 193.362 378.318 193.047 378.562 192.731C378.627 192.606 378.722 192.511 378.847 192.446C379.038 192.315 379.067 192.285 378.936 192.368C378.639 192.535 379.573 192.214 379.061 192.309C379.21 192.279 379.698 192.303 379.305 192.267C379.764 192.35 379.877 192.368 379.645 192.315C379.49 192.273 379.526 192.291 379.746 192.374C379.847 192.44 380.46 192.934 380.091 192.553C380.269 192.737 380.37 192.904 380.46 193.142C380.263 192.63 380.466 193.558 380.466 193.207C380.466 192.892 380.228 193.832 380.466 193.255C380.608 192.916 380.489 193.184 380.412 193.368C380.603 192.88 380.198 193.618 380.406 193.38C380.662 193.082 380.043 193.695 380.37 193.439C380.662 193.213 379.936 193.713 380.442 193.457C380.281 193.54 379.96 193.541 380.359 193.505C379.609 193.564 380.454 193.564 380.126 193.451C379.775 193.332 380.501 193.826 379.942 193.32C380.21 193.564 379.99 193.368 379.865 193.213C380.198 193.612 379.746 192.886 379.841 193.184C379.96 193.552 379.823 192.636 379.817 193.017C379.811 193.356 380.037 192.452 379.829 192.951C379.906 192.767 380.085 192.505 379.871 192.809C379.948 192.648 380.061 192.523 380.21 192.434C380.382 192.315 380.4 192.303 380.263 192.386C379.966 192.553 380.924 192.243 380.299 192.356C380.507 192.321 380.835 192.362 380.466 192.315C380.87 192.392 380.959 192.404 380.739 192.356C380.585 192.315 380.602 192.333 380.799 192.41C380.989 192.505 381.013 192.511 380.87 192.44C380.68 192.333 380.739 192.386 381.049 192.606C380.757 192.368 381.037 192.559 381.138 192.731C381.186 192.85 381.233 192.963 381.281 193.082C381.215 192.826 381.209 192.827 381.251 193.094C381.275 193.326 381.281 193.362 381.269 193.195C381.263 193.13 381.263 193.065 381.269 192.993C381.299 192.63 381.108 193.618 381.287 193.1C381.227 193.273 381.025 193.576 381.239 193.273C380.983 193.576 380.93 193.648 381.084 193.493C381.245 193.338 381.174 193.392 380.87 193.654C382.167 192.797 382.84 190.982 381.935 189.584C381.096 188.275 379.252 187.585 377.86 188.501Z" fill="black"/>
<path d="M373.195 176.91C377.021 176.91 377.032 170.96 373.195 170.96C369.363 170.96 369.357 176.91 373.195 176.91Z" fill="black"/>
<path d="M387.106 176.91C390.932 176.91 390.944 170.96 387.106 170.96C383.274 170.96 383.268 176.91 387.106 176.91Z" fill="black"/>
</g>
</g>
<defs>
<clipPath id="clip0_2211_50">
<rect width="459" height="381" fill="white"/>
</clipPath>
</defs>
</svg>
