<svg width="103" height="103" viewBox="0 0 103 103" fill="none" xmlns="http://www.w3.org/2000/svg">
<path d="M103 51.5C103 79.9427 79.9427 103 51.5 103C23.0573 103 0 79.9427 0 51.5C0 23.0573 23.0573 0 51.5 0C79.9427 0 103 23.0573 103 51.5Z" fill="black"/>
<g clip-path="url(#clip0_256_6179)">
<path d="M48.7524 44.3415C48.278 44.1194 47.7144 44.0347 47.0968 44.0347C45.574 44.0347 44.0066 45.1999 44.0066 46.9048C44.0066 48.6097 45.574 49.7748 47.0968 49.7748C48.0901 49.7748 48.9403 49.3407 49.4915 48.7053L50.2752 49.4572C49.4915 50.2937 48.3434 50.8334 47.0968 50.8334C44.8453 50.8334 42.9021 49.0758 42.9021 46.9048C42.9021 44.7338 44.8442 42.9761 47.0968 42.9761C48.0684 42.9761 48.9735 43.2092 49.8558 43.739V45.0206H48.8842L48.7514 44.3425H48.7524V44.3415Z" fill="white"/>
<path d="M59.2156 46.9038C59.2156 49.0747 57.2724 50.8324 55.0106 50.8324C52.7487 50.8324 50.8159 49.0747 50.8159 46.9038C50.8159 44.7328 52.7591 42.9861 55.0106 42.9861C57.2621 42.9861 59.2156 44.7438 59.2156 46.9038ZM51.9193 46.9038C51.9193 48.6087 53.4868 49.7738 55.0095 49.7738C56.7981 49.7738 58.1112 48.3547 58.1112 46.9038C58.1112 45.167 56.5001 44.0447 55.0095 44.0447C53.2439 44.0447 51.9193 45.4528 51.9193 46.9038Z" fill="white"/>
<path d="M59.5281 49.7738H60.2786C60.4665 49.7738 60.6866 49.5617 60.7976 49.0747L61.8793 43.971L61.0956 43.8654V43.0179H67.0777V50.8006H65.9743V43.971H62.9827L61.9114 49.0747C61.7018 50.0806 61.1724 50.8324 60.2776 50.8324L59.5271 50.7269V49.7738H59.5281Z" fill="white"/>
<path d="M74.3408 46.3222V43.0179H75.4442V50.8006H74.3408V47.2742H69.705V50.8006H68.6016V43.0179H69.705V46.3222H74.3408Z" fill="white"/>
<path d="M83.2531 52.3889L83.1431 50.8006H76.9617V43.0179H78.0651V49.8475H82.3698V43.0179H83.4732V49.8475H84.2455V52.3889H83.2521H83.2531Z" fill="white"/>
<path d="M91.6893 49.9003V50.8006H85.5078V43.0179H91.3581V43.8654H86.6123V46.375H90.4758V47.2224H86.6123V49.9013H91.6893V49.9003Z" fill="white"/>
<path d="M48.9621 54.3H50.9603V62.0826H49.8569V55.1992H49.7469L47.8151 59.2235H46.1262L44.1831 55.1992H44.0834V62.0826H42.98V54.3H44.9782L46.9099 58.3242H47.02L48.9621 54.3Z" fill="white"/>
<path d="M60.6866 58.1869C60.6866 60.3578 58.7434 62.1155 56.4815 62.1155C54.2197 62.1155 52.2869 60.3578 52.2869 58.1869C52.2869 56.0159 54.23 54.2692 56.4815 54.2692C58.733 54.2692 60.6866 56.0269 60.6866 58.1869ZM53.3903 58.1869C53.3903 59.8918 54.9577 61.0569 56.4805 61.0569C58.269 61.0569 59.5821 59.6378 59.5821 58.1869C59.5821 56.4501 57.9711 55.3278 56.4805 55.3278C54.7148 55.3278 53.3903 56.7359 53.3903 58.1869Z" fill="white"/>
<path d="M67.4702 55.6245C66.9958 55.4024 66.4322 55.3178 65.8145 55.3178C64.2917 55.3178 62.7243 56.4829 62.7243 58.1878C62.7243 59.8927 64.2917 61.0579 65.8145 61.0579C66.8079 61.0579 67.6581 60.6237 68.2093 59.9883L68.993 60.7402C68.2093 61.5767 67.0612 62.1165 65.8145 62.1165C63.5631 62.1165 61.6199 60.3588 61.6199 58.1878C61.6199 56.0168 63.562 54.2592 65.8145 54.2592C66.7861 54.2592 67.6913 54.4922 68.5736 55.021V56.3027H67.602L67.4691 55.6245H67.4702Z" fill="white"/>
<path d="M77.0449 62.0089L76.6037 62.1145C76.0079 62.1145 75.4671 61.7759 75.1692 61.1614L74.1208 59.0223C74.0107 58.7574 73.801 58.5563 73.5467 58.5563H71.152V62.0826H70.0486V54.3H71.152V57.6042H73.3485C73.5696 57.6042 73.7896 57.4459 73.9007 57.181L74.8391 55.254C75.137 54.6396 75.6778 54.301 76.2736 54.301L76.6047 54.4065V55.3596H76.2736C76.0972 55.3596 75.9311 55.508 75.8107 55.7729L74.8941 57.6998C74.8277 57.8273 74.7062 57.9438 74.618 57.9857C74.7726 58.0703 75.0155 58.2924 75.1141 58.5045L76.1408 60.6436C76.2622 60.9085 76.4272 61.0569 76.6047 61.0569H77.0459V62.0099L77.0449 62.0089Z" fill="white"/>
<path d="M81.9796 54.3C83.2044 54.3 84.176 55.2421 84.176 56.4182C84.176 57.0426 83.7785 57.7417 83.3259 57.9857C83.9663 58.2396 84.5072 59.0761 84.5072 59.8599C84.5072 61.0877 83.4691 62.0836 82.1892 62.0836H78.0942V54.301H81.9796V54.3ZM81.9796 57.6042C82.5868 57.5933 83.0726 56.9898 83.0726 56.4182C83.0726 55.8466 82.5868 55.253 81.9796 55.253H79.1977V57.6042H81.9796ZM82.1892 61.1306C82.8629 61.1306 83.4037 60.5062 83.4037 59.8599C83.4037 59.2135 82.8629 58.5573 82.1892 58.5573H79.1977V61.1306H82.1892Z" fill="white"/>
<path d="M85.8328 54.3H86.9362V56.8942H89.3537C90.9097 56.8942 92.0578 58.0066 92.0578 59.4884C92.0578 60.9702 90.9097 62.0826 89.3537 62.0826H85.8328V54.3ZM89.3537 61.1097C90.2703 61.1097 90.9544 60.4106 90.9544 59.5213C90.9544 58.632 90.2589 57.9329 89.3537 57.9329H86.9362V61.1097H89.3537ZM93.9999 62.0836H92.8965V54.301H93.9999V62.0836Z" fill="white"/>
<path d="M36.1166 50.3275C35.9962 50.3275 35.883 50.3514 35.7751 50.3863C35.6848 49.3257 35.4637 48.301 35.1274 47.326C35.6734 47.2882 36.1062 46.855 36.1062 46.3212C36.1062 45.7874 35.6339 45.3094 35.0516 45.3094C34.7879 45.3094 34.5492 45.406 34.3644 45.5594C33.8506 44.5795 33.2122 43.6692 32.4711 42.8477C32.8167 42.6814 33.0555 42.3418 33.0555 41.9464C33.0555 41.3877 32.5832 40.9346 32.0008 40.9346C31.5877 40.9346 31.2337 41.1647 31.0604 41.4963C30.2071 40.7892 29.2636 40.1818 28.2473 39.6918C28.4093 39.5135 28.51 39.2845 28.51 39.0306C28.51 38.4719 28.0377 38.0188 27.4553 38.0188C26.873 38.0188 26.4453 38.435 26.408 38.9608C25.3502 38.6242 24.2364 38.4091 23.0821 38.3295C23.1174 38.2289 23.1403 38.1233 23.1403 38.0118C23.1403 37.4531 22.6679 37 22.0856 37C21.5033 37 21.031 37.4531 21.031 38.0118C21.031 38.1233 21.0549 38.2289 21.0891 38.3295C19.9348 38.4091 18.821 38.6242 17.7633 38.9608C17.7249 38.435 17.2733 38.0188 16.7159 38.0188C16.1585 38.0188 15.6613 38.4719 15.6613 39.0306C15.6613 39.2845 15.762 39.5145 15.9239 39.6918C14.9077 40.1818 13.9641 40.7902 13.1109 41.4963C12.9375 41.1647 12.5835 40.9346 12.1704 40.9346C11.5881 40.9346 11.1158 41.3877 11.1158 41.9464C11.1158 42.3428 11.3556 42.6814 11.7002 42.8477C10.958 43.6692 10.3206 44.5785 9.80682 45.5594C9.62205 45.406 9.38331 45.3094 9.11965 45.3094C8.53732 45.3094 8.06501 45.7625 8.06501 46.3212C8.06501 46.8799 8.49787 47.2882 9.04387 47.326C8.70755 48.301 8.48645 49.3257 8.39614 50.3863C8.28819 50.3504 8.17504 50.3275 8.05463 50.3275C7.4723 50.3275 7 50.7807 7 51.3393C7 51.898 7.4723 52.3511 8.05463 52.3511C8.16674 52.3511 8.27366 52.3292 8.37538 52.2983C8.45012 53.4535 8.67952 54.5669 9.04387 55.6225C8.49683 55.6603 8.06501 56.0935 8.06501 56.6273C8.06501 57.1611 8.53732 57.6391 9.11965 57.6391C9.38331 57.6391 9.62205 57.5425 9.80682 57.3892C10.3196 58.3671 10.9549 59.2743 11.6939 60.0939C11.3493 60.2602 11.1106 60.5988 11.1106 60.9942C11.1106 61.5528 11.5829 62.0059 12.1652 62.0059C12.5773 62.0059 12.9302 61.7769 13.1046 61.4463C14.1094 62.2798 15.2461 62.9689 16.473 63.4967L14.8444 67.268H11.1106V68H33.0617V67.268H29.3175L27.691 63.4997C28.921 62.9709 30.0608 62.2818 31.0676 61.4453C31.241 61.7759 31.5939 62.0049 32.0071 62.0049C32.5894 62.0049 33.0617 61.5518 33.0617 60.9932C33.0617 60.5978 32.8229 60.2592 32.4783 60.0929C33.2174 59.2733 33.8527 58.3661 34.3655 57.3882C34.5502 57.5415 34.789 57.6381 35.0526 57.6381C35.635 57.6381 36.1073 57.185 36.1073 56.6263C36.1073 56.0677 35.6744 55.6594 35.1284 55.6215C35.4928 54.5659 35.7232 53.4525 35.7969 52.2973C35.8986 52.3282 36.0055 52.3501 36.1176 52.3501C36.7 52.3501 37.1723 51.897 37.1723 51.3383C37.1723 50.7797 36.7 50.3265 36.1176 50.3265L36.1166 50.3275ZM23.0811 64.6191C24.4492 64.5245 25.7561 64.2297 26.9841 63.7796L28.4902 67.268H15.6696L17.1768 63.7766C18.4069 64.2287 19.7168 64.5245 21.0881 64.6191C21.7919 64.6549 22.2247 64.6659 23.0821 64.6191H23.0811ZM26.0374 61.5897L22.4655 62.2708V53.3161L22.6212 53.6756L26.0384 61.5897H26.0374ZM23.1714 53.0353L29.7722 59.3679L26.7432 61.3088L23.1714 53.0353ZM23.7112 52.5174L32.3351 55.9442L30.3109 58.8491L23.7112 52.5174ZM24.0028 51.8402H33.3378L32.6268 55.267L24.0028 51.8402ZM24.0028 51.1083L32.6268 47.6816L33.3368 51.1083H24.0028ZM23.7112 50.4311L30.312 44.0985L32.3351 47.0044L23.7112 50.4311ZM23.1714 49.9133L26.7432 41.6397L29.7712 43.5816L23.1714 49.9133ZM22.4655 49.6334V40.6777L26.0374 41.3599L22.4655 49.6334ZM23.6852 51.4748C23.6852 52.3232 22.9679 53.0114 22.0835 53.0114C21.1991 53.0114 20.4819 52.3232 20.4819 51.4748C20.4819 50.6263 21.1991 49.9382 22.0835 49.9382C22.9679 49.9382 23.6852 50.6263 23.6852 51.4748ZM21.7026 53.3151V62.2708L18.1307 61.5887L21.7026 53.3151ZM21.7026 49.6334L18.1307 41.3599L21.7026 40.6787V49.6334ZM20.9967 49.9133L14.3959 43.5806L17.4249 41.6397L20.9967 49.9133ZM20.457 50.4311L11.833 47.0044L13.8572 44.0995L20.457 50.4311ZM20.1653 51.1083H10.8303L11.5414 47.6816L20.1653 51.1083ZM20.1653 51.8402L11.5414 55.267L10.8314 51.8402H20.1653ZM20.457 52.5174L13.8562 58.8501L11.833 55.9442L20.457 52.5174ZM20.9967 53.0353L20.8431 53.3918L20.8348 53.3888L17.4176 61.3039L14.397 59.3669L20.9967 53.0353ZM17.8245 62.2768L22.0825 63.0904L26.3363 62.2798L26.6965 63.1133C25.263 63.6362 23.7101 63.925 22.0856 63.925C20.4611 63.925 18.902 63.6352 17.4664 63.1094L17.8256 62.2768H17.8245ZM31.2649 60.2741L31.2555 60.2831C30.15 61.3427 28.8452 62.2081 27.4013 62.8305L27.0422 61.998L30.6452 59.6896L33.2703 55.9213L34.1931 51.4768L33.2724 47.0313L30.6483 43.2619L26.7204 40.7434L22.0877 39.8581L17.4539 40.7414L13.525 43.259L10.8999 47.0273L9.97706 51.4718L10.8978 55.9173L13.5219 59.6866L17.1207 61.995L16.7605 62.8285C15.3198 62.2061 14.017 61.3417 12.9136 60.2841L12.9043 60.2751C10.5583 58.0225 9.10719 54.9115 9.10719 51.4758C9.10719 44.5994 14.917 39.0256 22.0846 39.0256C29.2521 39.0256 35.062 44.5994 35.062 51.4758C35.062 54.9115 33.6108 58.0225 31.2649 60.2751V60.2741Z" fill="white"/>
</g>
<defs>
<clipPath id="clip0_256_6179">
<rect width="87" height="31" fill="white" transform="translate(7 37)"/>
</clipPath>
</defs>
</svg>
