<svg width="541" height="267" viewBox="0 0 541 267" fill="none" xmlns="http://www.w3.org/2000/svg">
<g clip-path="url(#clip0_2211_116)">
<mask id="mask0_2211_116" style="mask-type:luminance" maskUnits="userSpaceOnUse" x="-46" y="-164" width="633" height="458">
<path d="M537 -164H4C-23.6142 -164 -46 -141.614 -46 -114V244C-46 271.614 -23.6142 294 4 294H537C564.614 294 587 271.614 587 244V-114C587 -141.614 564.614 -164 537 -164Z" fill="white"/>
</mask>
<g mask="url(#mask0_2211_116)">
<path d="M57.762 192.076C58.996 198.628 60.224 205.179 61.458 211.725C64.031 225.403 66.604 239.121 67.462 253.015" stroke="black" stroke-width="6" stroke-miterlimit="10" stroke-linecap="round" stroke-linejoin="round"/>
<path d="M17.6726 254.608C19.5152 252.688 21.2693 250.68 22.9348 248.599" stroke="black" stroke-width="6" stroke-miterlimit="10" stroke-linecap="round" stroke-linejoin="round"/>
<path d="M23.0787 248.068C37.6203 249.258 52.1176 250.973 66.532 253.214" stroke="black" stroke-width="6" stroke-miterlimit="10" stroke-linecap="round" stroke-linejoin="round"/>
<path d="M41.5711 245.334C42.4509 243.237 43.7346 241.317 45.3337 239.701" stroke="black" stroke-width="6" stroke-miterlimit="10" stroke-linecap="round" stroke-linejoin="round"/>
<path d="M45.544 239.297C63.433 240.62 81.289 242.357 99.096 244.51" stroke="black" stroke-width="6" stroke-miterlimit="10" stroke-linecap="round" stroke-linejoin="round"/>
<path d="M80.941 183.051C87.968 203.237 94.674 223.533 101.049 243.929" stroke="black" stroke-width="6" stroke-miterlimit="10" stroke-linecap="round" stroke-linejoin="round"/>
<path d="M68.137 187.749C68.114 195.628 71.462 203.159 75.69 209.81C76.78 211.531 77.958 213.23 79.53 214.53C83.132 217.502 88.355 217.861 92.832 216.528C97.308 215.194 101.187 212.405 104.867 209.534C120.941 196.978 135.007 181.856 146.372 164.924" stroke="black" stroke-width="6" stroke-miterlimit="10" stroke-linecap="round" stroke-linejoin="round"/>
<path d="M94.58 177.385C95.372 187.854 99.422 198.267 106.92 205.621C114.412 212.97 125.523 216.871 135.765 214.569C145.343 212.416 153.189 205.245 158.347 196.89C163.504 188.534 166.342 178.989 169.125 169.577" stroke="black" stroke-width="6" stroke-miterlimit="10" stroke-linecap="round" stroke-linejoin="round"/>
<path d="M146.04 168.404C145.592 170.695 147.28 172.98 149.394 173.965C151.507 174.95 153.942 174.923 156.272 174.784C161.993 174.452 168.074 173.406 172.235 169.467" stroke="black" stroke-width="6" stroke-miterlimit="10" stroke-linecap="round" stroke-linejoin="round"/>
<path d="M147.972 166.551C153.361 166.523 158.756 166.49 164.145 166.462C166.414 166.451 168.865 166.495 170.658 167.884" stroke="black" stroke-width="6" stroke-miterlimit="10" stroke-linecap="round" stroke-linejoin="round"/>
<path d="M147.468 165.173C146.533 158.201 157.489 159.346 161.019 160.669C166.79 162.832 166.27 165.582 173.104 163.148C187.031 158.179 199.072 142.807 207.992 131.729C215.6 122.284 222.926 112.18 226.102 100.466C229.306 88.6469 228.022 76.0919 225.831 64.0399C223.485 51.1469 219.993 38.1499 212.595 27.3379C205.197 16.5199 193.284 8.1199 180.181 7.7659C177.586 7.6939 174.869 7.97588 172.689 9.38688C171.123 10.3999 169.955 11.9269 168.965 13.5099C159.962 27.8849 164.4 47.6999 175.373 60.6319C186.345 73.5629 202.458 80.9109 218.45 86.5719C231.597 91.2249 245.236 95.0539 259.18 95.2759C273.124 95.4969 287.517 91.8289 298.218 82.8869C308.92 73.9449 315.255 59.2429 312.146 45.6469C308.809 31.0609 294.81 20.0889 279.914 18.7169C265.013 17.3389 250.006 24.7589 240.627 36.4179C231.248 48.0759 227.209 63.4809 227.801 78.4319C227.967 82.6539 228.509 86.9539 230.374 90.7379C231.464 92.9519 232.969 94.9329 234.496 96.8689C252.048 119.196 273.479 138.912 298.882 151.605C324.286 164.299 353.9 169.594 381.589 163.275" stroke="black" stroke-width="6" stroke-miterlimit="10" stroke-linecap="round" stroke-linejoin="round"/>
<path d="M486.285 192.076C485.051 198.628 483.823 205.179 482.589 211.725C480.016 225.403 477.443 239.121 476.585 253.015" stroke="black" stroke-width="6" stroke-miterlimit="10" stroke-linecap="round" stroke-linejoin="round"/>
<path d="M526.369 254.608C524.526 252.688 522.772 250.68 521.106 248.599" stroke="black" stroke-width="6" stroke-miterlimit="10" stroke-linecap="round" stroke-linejoin="round"/>
<path d="M520.968 248.068C506.426 249.258 491.929 250.973 477.515 253.214" stroke="black" stroke-width="6" stroke-miterlimit="10" stroke-linecap="round" stroke-linejoin="round"/>
<path d="M502.47 245.335C501.59 243.237 500.307 241.317 498.707 239.702" stroke="black" stroke-width="6" stroke-miterlimit="10" stroke-linecap="round" stroke-linejoin="round"/>
<path d="M498.503 239.297C480.613 240.62 462.757 242.357 444.951 244.51" stroke="black" stroke-width="6" stroke-miterlimit="10" stroke-linecap="round" stroke-linejoin="round"/>
<path d="M463.1 183.051C456.073 203.237 449.367 223.533 442.992 243.929" stroke="black" stroke-width="6" stroke-miterlimit="10" stroke-linecap="round" stroke-linejoin="round"/>
<path d="M475.91 187.749C475.932 195.628 472.585 203.159 468.357 209.81C467.267 211.531 466.088 213.23 464.517 214.53C460.915 217.502 455.691 217.861 451.215 216.528C446.738 215.2 442.859 212.405 439.18 209.534C423.105 196.978 409.04 181.856 397.674 164.924" stroke="black" stroke-width="6" stroke-miterlimit="10" stroke-linecap="round" stroke-linejoin="round"/>
<path d="M449.461 177.385C448.669 187.854 444.619 198.268 437.121 205.622C429.624 212.976 418.518 216.871 408.276 214.569C398.698 212.417 390.852 205.245 385.695 196.89C380.538 188.535 377.699 178.99 374.916 169.578" stroke="black" stroke-width="6" stroke-miterlimit="10" stroke-linecap="round" stroke-linejoin="round"/>
<path d="M398.001 168.404C398.449 170.695 396.761 172.98 394.648 173.965C392.534 174.95 390.099 174.923 387.77 174.784C382.048 174.452 375.967 173.406 371.806 169.467" stroke="black" stroke-width="6" stroke-miterlimit="10" stroke-linecap="round" stroke-linejoin="round"/>
<path d="M396.075 166.551C390.686 166.523 385.291 166.49 379.901 166.462C377.638 166.451 375.181 166.495 373.388 167.884" stroke="black" stroke-width="6" stroke-miterlimit="10" stroke-linecap="round" stroke-linejoin="round"/>
<path d="M396.579 165.173C396.872 162.998 394.825 161.233 392.816 160.348C390.619 159.374 388.118 158.904 385.794 159.512C383.47 160.116 381.384 161.947 380.925 164.304" stroke="black" stroke-width="6" stroke-miterlimit="10" stroke-linecap="round" stroke-linejoin="round"/>
<path d="M38.1072 24.9579L8.79709 110.388C7.03199 115.539 12.1282 120.381 17.1801 118.356C21.5404 116.607 26.2271 120.032 25.8896 124.719L20.9926 192.663C20.6661 197.183 25.043 200.586 29.3424 199.159L118.639 169.5C122.33 168.277 124.068 164.055 122.308 160.592L94.248 105.164C92.522 101.756 94.171 97.6059 97.762 96.3049L102.836 94.4739C107.113 92.9299 108.436 87.5289 105.359 84.1819L48.8087 22.7169C45.544 19.1649 39.6731 20.3989 38.1072 24.9579Z" fill="#54ACFF"/>
<path d="M502.946 24.9579L532.256 110.388C534.021 115.539 528.925 120.381 523.873 118.356C519.513 116.607 514.826 120.032 515.164 124.719L520.061 192.663C520.387 197.183 516.01 200.586 511.711 199.159L422.414 169.5C418.723 168.277 416.986 164.055 418.745 160.592L446.805 105.164C448.531 101.756 446.882 97.6059 443.291 96.3049L438.217 94.4739C433.94 92.9299 432.617 87.5289 435.694 84.1819L492.244 22.7169C495.515 19.1649 501.385 20.3989 502.946 24.9579Z" fill="#54ACFF"/>
<path d="M61.231 113.171C60.069 118.715 59.632 124.409 59.936 130.059C60.058 132.316 60.368 134.74 61.895 136.405C64.164 138.89 68.391 138.635 71.102 136.638C73.808 134.64 75.275 131.387 76.282 128.177C77.206 125.239 77.842 122.212 78.185 119.152" stroke="black" stroke-width="6" stroke-miterlimit="10" stroke-linecap="round" stroke-linejoin="round"/>
<path d="M64.457 102.558C68.015 102.558 68.026 97.0239 64.457 97.0239C60.893 97.0239 60.888 102.558 64.457 102.558Z" fill="black"/>
<path d="M73.908 101.069C77.466 101.069 77.477 95.5361 73.908 95.5361C70.35 95.5361 70.344 101.069 73.908 101.069Z" fill="black"/>
<path d="M471.445 100.787C475.003 100.787 475.014 95.2539 471.445 95.2539C467.887 95.2539 467.881 100.787 471.445 100.787Z" fill="black"/>
<path d="M481.897 100.289C485.455 100.289 485.466 94.7561 481.897 94.7561C478.334 94.7561 478.328 100.289 481.897 100.289Z" fill="black"/>
<path d="M471.494 119.175C476.746 119.756 482.423 120.254 486.982 117.581C489.732 115.971 491.746 113.381 493.689 110.858" stroke="black" stroke-width="6" stroke-miterlimit="10" stroke-linecap="round" stroke-linejoin="round"/>
<path d="M285.58 155.406C293.831 155.406 300.52 148.718 300.52 140.466C300.52 132.215 293.831 125.526 285.58 125.526C277.329 125.526 270.64 132.215 270.64 140.466C270.64 148.718 277.329 155.406 285.58 155.406Z" fill="#54ACFF"/>
<path d="M259.573 140.466C267.824 140.466 274.513 133.778 274.513 125.526C274.513 117.275 267.824 110.586 259.573 110.586C251.322 110.586 244.633 117.275 244.633 125.526C244.633 133.778 251.322 140.466 259.573 140.466Z" fill="#FF931E"/>
<path d="M169.38 57.4659C177.631 57.4659 184.32 50.7779 184.32 42.5259C184.32 34.2749 177.631 27.5859 169.38 27.5859C161.129 27.5859 154.44 34.2749 154.44 42.5259C154.44 50.7779 161.129 57.4659 169.38 57.4659Z" fill="#54ACFF"/>
</g>
</g>
<defs>
<clipPath id="clip0_2211_116">
<rect width="541" height="267" fill="white"/>
</clipPath>
</defs>
</svg>
