<svg width="541" height="340" viewBox="0 0 541 340" fill="none" xmlns="http://www.w3.org/2000/svg">
<g clip-path="url(#clip0_2211_116)">
<mask id="mask0_2211_116" style="mask-type:luminance" maskUnits="userSpaceOnUse" x="-46" y="-101" width="633" height="458">
<path d="M537 -101H4C-23.6142 -101 -46 -78.6142 -46 -51V307C-46 334.614 -23.6142 357 4 357H537C564.614 357 587 334.614 587 307V-51C587 -78.6142 564.614 -101 537 -101Z" fill="white"/>
</mask>
<g mask="url(#mask0_2211_116)">
<path d="M57.762 255.076C58.996 261.628 60.224 268.179 61.458 274.725C64.031 288.403 66.604 302.121 67.462 316.015" stroke="black" stroke-width="6" stroke-miterlimit="10" stroke-linecap="round" stroke-linejoin="round"/>
<path d="M17.6726 317.608C19.5152 315.688 21.2693 313.68 22.9348 311.599" stroke="black" stroke-width="6" stroke-miterlimit="10" stroke-linecap="round" stroke-linejoin="round"/>
<path d="M23.0787 311.068C37.6203 312.258 52.1176 313.973 66.532 316.214" stroke="black" stroke-width="6" stroke-miterlimit="10" stroke-linecap="round" stroke-linejoin="round"/>
<path d="M41.5711 308.334C42.4509 306.237 43.7346 304.317 45.3337 302.701" stroke="black" stroke-width="6" stroke-miterlimit="10" stroke-linecap="round" stroke-linejoin="round"/>
<path d="M45.544 302.297C63.433 303.62 81.289 305.357 99.096 307.51" stroke="black" stroke-width="6" stroke-miterlimit="10" stroke-linecap="round" stroke-linejoin="round"/>
<path d="M80.941 246.051C87.968 266.237 94.674 286.533 101.049 306.929" stroke="black" stroke-width="6" stroke-miterlimit="10" stroke-linecap="round" stroke-linejoin="round"/>
<path d="M68.137 250.749C68.114 258.628 71.462 266.159 75.69 272.81C76.78 274.531 77.958 276.23 79.53 277.53C83.132 280.502 88.355 280.861 92.832 279.528C97.308 278.194 101.187 275.405 104.867 272.534C120.941 259.978 135.007 244.856 146.372 227.924" stroke="black" stroke-width="6" stroke-miterlimit="10" stroke-linecap="round" stroke-linejoin="round"/>
<path d="M94.58 240.385C95.372 250.854 99.422 261.267 106.92 268.621C114.412 275.97 125.523 279.871 135.765 277.569C145.343 275.416 153.189 268.245 158.347 259.89C163.504 251.534 166.342 241.989 169.125 232.577" stroke="black" stroke-width="6" stroke-miterlimit="10" stroke-linecap="round" stroke-linejoin="round"/>
<path d="M146.04 231.404C145.592 233.695 147.28 235.98 149.394 236.965C151.507 237.95 153.942 237.923 156.272 237.784C161.993 237.452 168.074 236.406 172.235 232.467" stroke="black" stroke-width="6" stroke-miterlimit="10" stroke-linecap="round" stroke-linejoin="round"/>
<path d="M147.972 229.551C153.361 229.523 158.756 229.49 164.145 229.462C166.414 229.451 168.865 229.495 170.658 230.884" stroke="black" stroke-width="6" stroke-miterlimit="10" stroke-linecap="round" stroke-linejoin="round"/>
<path d="M147.468 228.173C146.533 221.201 157.489 222.346 161.019 223.669C166.79 225.832 166.27 228.582 173.104 226.148C187.031 221.179 199.072 205.807 207.992 194.729C215.6 185.284 222.926 175.18 226.102 163.466C229.306 151.647 228.022 139.092 225.831 127.04C223.485 114.147 219.993 101.15 212.595 90.3379C205.197 79.5199 193.284 71.1199 180.181 70.7659C177.586 70.6939 174.869 70.9759 172.689 72.3869C171.123 73.3999 169.955 74.9269 168.965 76.5099C159.962 90.8849 164.4 110.7 175.373 123.632C186.345 136.563 202.458 143.911 218.45 149.572C231.597 154.225 245.236 158.054 259.18 158.276C273.124 158.497 287.517 154.829 298.218 145.887C308.92 136.945 315.255 122.243 312.146 108.647C308.809 94.0609 294.81 83.0889 279.914 81.7169C265.013 80.3389 250.006 87.7589 240.627 99.4179C231.248 111.076 227.209 126.481 227.801 141.432C227.967 145.654 228.509 149.954 230.374 153.738C231.464 155.952 232.969 157.933 234.496 159.869C252.048 182.196 273.479 201.912 298.882 214.605C324.286 227.299 353.9 232.594 381.589 226.275" stroke="black" stroke-width="6" stroke-miterlimit="10" stroke-linecap="round" stroke-linejoin="round"/>
<path d="M486.285 255.076C485.051 261.628 483.823 268.179 482.589 274.725C480.016 288.403 477.443 302.121 476.585 316.015" stroke="black" stroke-width="6" stroke-miterlimit="10" stroke-linecap="round" stroke-linejoin="round"/>
<path d="M526.369 317.608C524.526 315.688 522.772 313.68 521.106 311.599" stroke="black" stroke-width="6" stroke-miterlimit="10" stroke-linecap="round" stroke-linejoin="round"/>
<path d="M520.968 311.068C506.426 312.258 491.929 313.973 477.515 316.214" stroke="black" stroke-width="6" stroke-miterlimit="10" stroke-linecap="round" stroke-linejoin="round"/>
<path d="M502.47 308.335C501.59 306.237 500.307 304.317 498.707 302.702" stroke="black" stroke-width="6" stroke-miterlimit="10" stroke-linecap="round" stroke-linejoin="round"/>
<path d="M498.503 302.297C480.613 303.62 462.757 305.357 444.951 307.51" stroke="black" stroke-width="6" stroke-miterlimit="10" stroke-linecap="round" stroke-linejoin="round"/>
<path d="M463.1 246.051C456.073 266.237 449.367 286.533 442.992 306.929" stroke="black" stroke-width="6" stroke-miterlimit="10" stroke-linecap="round" stroke-linejoin="round"/>
<path d="M475.91 250.749C475.932 258.628 472.585 266.159 468.357 272.81C467.267 274.531 466.088 276.23 464.517 277.53C460.915 280.502 455.691 280.861 451.215 279.528C446.738 278.2 442.859 275.405 439.18 272.534C423.105 259.978 409.04 244.856 397.674 227.924" stroke="black" stroke-width="6" stroke-miterlimit="10" stroke-linecap="round" stroke-linejoin="round"/>
<path d="M449.461 240.385C448.669 250.854 444.619 261.268 437.121 268.622C429.624 275.976 418.518 279.871 408.276 277.569C398.698 275.417 390.852 268.245 385.695 259.89C380.538 251.535 377.699 241.99 374.916 232.578" stroke="black" stroke-width="6" stroke-miterlimit="10" stroke-linecap="round" stroke-linejoin="round"/>
<path d="M398.001 231.404C398.449 233.695 396.761 235.98 394.648 236.965C392.534 237.95 390.099 237.923 387.77 237.784C382.048 237.452 375.967 236.406 371.806 232.467" stroke="black" stroke-width="6" stroke-miterlimit="10" stroke-linecap="round" stroke-linejoin="round"/>
<path d="M396.075 229.551C390.686 229.523 385.291 229.49 379.901 229.462C377.638 229.451 375.181 229.495 373.388 230.884" stroke="black" stroke-width="6" stroke-miterlimit="10" stroke-linecap="round" stroke-linejoin="round"/>
<path d="M396.579 228.173C396.872 225.998 394.825 224.233 392.816 223.348C390.619 222.374 388.118 221.904 385.794 222.512C383.47 223.116 381.384 224.947 380.925 227.304" stroke="black" stroke-width="6" stroke-miterlimit="10" stroke-linecap="round" stroke-linejoin="round"/>
<path d="M38.1072 87.9579L8.79709 173.388C7.03199 178.539 12.1282 183.381 17.1801 181.356C21.5404 179.607 26.2271 183.032 25.8896 187.719L20.9926 255.663C20.6661 260.183 25.043 263.586 29.3424 262.159L118.639 232.5C122.33 231.277 124.068 227.055 122.308 223.592L94.248 168.164C92.522 164.756 94.171 160.606 97.762 159.305L102.836 157.474C107.113 155.93 108.436 150.529 105.359 147.182L48.8087 85.7169C45.544 82.1649 39.6731 83.3989 38.1072 87.9579Z" fill="#54ACFF"/>
<path d="M502.946 87.9579L532.256 173.388C534.021 178.539 528.925 183.381 523.873 181.356C519.513 179.607 514.826 183.032 515.164 187.719L520.061 255.663C520.387 260.183 516.01 263.586 511.711 262.159L422.414 232.5C418.723 231.277 416.986 227.055 418.745 223.592L446.805 168.164C448.531 164.756 446.882 160.606 443.291 159.305L438.217 157.474C433.94 155.93 432.617 150.529 435.694 147.182L492.244 85.7169C495.515 82.1649 501.385 83.3989 502.946 87.9579Z" fill="#54ACFF"/>
<path d="M61.231 176.171C60.069 181.715 59.632 187.409 59.936 193.059C60.058 195.316 60.368 197.74 61.895 199.405C64.164 201.89 68.391 201.635 71.102 199.638C73.808 197.64 75.275 194.387 76.282 191.177C77.206 188.239 77.842 185.212 78.185 182.152" stroke="black" stroke-width="6" stroke-miterlimit="10" stroke-linecap="round" stroke-linejoin="round"/>
<path d="M64.457 165.558C68.015 165.558 68.026 160.024 64.457 160.024C60.893 160.024 60.888 165.558 64.457 165.558Z" fill="black"/>
<path d="M73.908 164.069C77.466 164.069 77.477 158.536 73.908 158.536C70.35 158.536 70.344 164.069 73.908 164.069Z" fill="black"/>
<path d="M471.445 163.787C475.003 163.787 475.014 158.254 471.445 158.254C467.887 158.254 467.881 163.787 471.445 163.787Z" fill="black"/>
<path d="M481.897 163.289C485.455 163.289 485.466 157.756 481.897 157.756C478.334 157.756 478.328 163.289 481.897 163.289Z" fill="black"/>
<path d="M471.494 182.175C476.746 182.756 482.423 183.254 486.982 180.581C489.732 178.971 491.746 176.381 493.689 173.858" stroke="black" stroke-width="6" stroke-miterlimit="10" stroke-linecap="round" stroke-linejoin="round"/>
<path d="M285.58 218.406C293.831 218.406 300.52 211.718 300.52 203.466C300.52 195.215 293.831 188.526 285.58 188.526C277.329 188.526 270.64 195.215 270.64 203.466C270.64 211.718 277.329 218.406 285.58 218.406Z" fill="#54ACFF"/>
<path d="M259.573 203.466C267.824 203.466 274.513 196.778 274.513 188.526C274.513 180.275 267.824 173.586 259.573 173.586C251.322 173.586 244.633 180.275 244.633 188.526C244.633 196.778 251.322 203.466 259.573 203.466Z" fill="#FF931E"/>
<path d="M169.38 120.466C177.631 120.466 184.32 113.778 184.32 105.526C184.32 97.2749 177.631 90.5859 169.38 90.5859C161.129 90.5859 154.44 97.2749 154.44 105.526C154.44 113.778 161.129 120.466 169.38 120.466Z" fill="#54ACFF"/>
</g>
</g>
<defs>
<clipPath id="clip0_2211_116">
<rect width="541" height="340" fill="white"/>
</clipPath>
</defs>
</svg>
