<svg width="504" height="336" viewBox="0 0 504 336" fill="none" xmlns="http://www.w3.org/2000/svg">
<g clip-path="url(#clip0_2211_155)">
<mask id="mask0_2211_155" style="mask-type:luminance" maskUnits="userSpaceOnUse" x="-53" y="-88" width="633" height="458">
<path d="M530 -88H-3C-30.6142 -88 -53 -65.6142 -53 -38V320C-53 347.614 -30.6142 370 -3 370H530C557.614 370 580 347.614 580 320V-38C580 -65.6142 557.614 -88 530 -88Z" fill="white"/>
</mask>
<g mask="url(#mask0_2211_155)">
<path d="M58.282 235.178C60.33 232.215 62.777 229.523 65.53 227.203C72.834 234.801 80.132 242.405 87.436 250.003C93.696 256.518 100.018 263.117 104.613 270.898" stroke="black" stroke-width="6" stroke-miterlimit="10" stroke-linecap="round" stroke-linejoin="round"/>
<path d="M105.257 270.698C107.516 262.501 112.111 255.186 115.935 247.594C126.108 227.397 130.898 204.947 134.428 182.614" stroke="black" stroke-width="6" stroke-miterlimit="10" stroke-linecap="round" stroke-linejoin="round"/>
<path d="M169 183C170.368 189.375 172.735 195.412 175.083 201.42C183.389 222.614 191.694 243.807 200 265" stroke="black" stroke-width="6" stroke-miterlimit="10" stroke-linecap="round" stroke-linejoin="round"/>
<path d="M200.417 265.243C191.715 286.039 183.806 307.167 176.724 328.568" stroke="black" stroke-width="6" stroke-miterlimit="10" stroke-linecap="round" stroke-linejoin="round"/>
<path d="M176.808 328.463C180.737 328.463 184.661 328.463 188.59 328.463" stroke="black" stroke-width="6" stroke-miterlimit="10" stroke-linecap="round" stroke-linejoin="round"/>
<path d="M202.06 206.968C215.68 219.533 229.305 232.098 242.925 244.658" stroke="black" stroke-width="6" stroke-miterlimit="10" stroke-linecap="round" stroke-linejoin="round"/>
<path d="M243.663 243.864C255.962 218.617 260.707 189.752 257.144 161.896" stroke="black" stroke-width="6" stroke-miterlimit="10" stroke-linecap="round" stroke-linejoin="round"/>
<path d="M256.894 161.674C264.831 161.302 272.662 158.183 280.52 159.337" stroke="black" stroke-width="6" stroke-miterlimit="10" stroke-linecap="round" stroke-linejoin="round"/>
<path d="M257.327 162.595C263.893 162.457 270.492 163.761 276.513 166.386" stroke="black" stroke-width="6" stroke-miterlimit="10" stroke-linecap="round" stroke-linejoin="round"/>
<path d="M9.09769 211.519C16.5236 210.625 23.8718 209.093 31.0424 206.957" stroke="black" stroke-width="6" stroke-miterlimit="10" stroke-linecap="round" stroke-linejoin="round"/>
<path d="M20.1699 198.693C23.9106 200.935 27.5403 203.36 31.0535 205.947" stroke="black" stroke-width="6" stroke-miterlimit="10" stroke-linecap="round" stroke-linejoin="round"/>
<path d="M31.6084 206.302C31.392 178.674 31.181 151.046 30.9646 123.418" stroke="black" stroke-width="6" stroke-miterlimit="10" stroke-linecap="round" stroke-linejoin="round"/>
<path d="M30.5928 123.596C50.95 134.701 70.68 146.945 89.673 160.253" stroke="black" stroke-width="6" stroke-miterlimit="10" stroke-linecap="round" stroke-linejoin="round"/>
<path d="M375.997 121.52C377.102 133.314 374.709 145.13 372.051 156.668C369.387 168.207 366.429 179.817 366.373 191.661C366.318 203.505 369.509 215.848 377.668 224.434C379.804 226.681 382.28 228.657 385.127 229.884C390.816 232.331 397.809 231.416 402.67 227.586C407.538 223.757 410.069 217.174 409.02 211.069" stroke="black" stroke-width="6" stroke-miterlimit="10" stroke-linecap="round" stroke-linejoin="round"/>
<path d="M423.86 221.259C421.23 255.286 422.112 289.58 426.491 323.424" stroke="black" stroke-width="6" stroke-miterlimit="10" stroke-linecap="round" stroke-linejoin="round"/>
<path d="M427.007 324.395C422.295 324.716 417.589 325.038 412.877 325.366" stroke="black" stroke-width="6" stroke-miterlimit="10" stroke-linecap="round" stroke-linejoin="round"/>
<path d="M438.146 229.479C438.346 260.836 443.074 292.16 452.143 322.18" stroke="black" stroke-width="6" stroke-miterlimit="10" stroke-linecap="round" stroke-linejoin="round"/>
<path d="M452.16 321.897C455.828 321.769 459.491 321.642 463.16 321.514" stroke="black" stroke-width="6" stroke-miterlimit="10" stroke-linecap="round" stroke-linejoin="round"/>
<path d="M457.954 228.335C456.65 239.458 457.449 250.819 460.307 261.647C464.27 276.67 472.173 290.934 472.384 306.468" stroke="black" stroke-width="6" stroke-miterlimit="10" stroke-linecap="round" stroke-linejoin="round"/>
<path d="M464.275 304.898C464.303 298.887 465.752 292.882 468.471 287.521" stroke="black" stroke-width="6" stroke-miterlimit="10" stroke-linecap="round" stroke-linejoin="round"/>
<path d="M372.922 149.353C372.434 147.305 370.447 145.94 368.438 145.302C366.335 144.636 363.97 144.564 361.967 145.479C359.958 146.401 358.398 148.421 358.387 150.63C358.376 153.122 360.329 155.331 362.677 156.18C365.019 157.023 367.644 156.713 370.009 155.919" stroke="black" stroke-width="6" stroke-miterlimit="10" stroke-linecap="round" stroke-linejoin="round"/>
<path d="M372.351 145.107C372.234 142.721 370.264 140.751 368.038 139.885C365.813 139.025 363.354 139.047 360.968 139.086" stroke="black" stroke-width="6" stroke-miterlimit="10" stroke-linecap="round" stroke-linejoin="round"/>
<path d="M88.868 171.459L215.053 213.106C218.721 214.316 222.495 211.585 222.495 207.722V140.628C222.495 136.666 226.458 133.924 230.165 135.323C234.405 136.921 238.712 133.147 237.685 128.729L210.324 11.3856C209.347 7.2065 204.269 5.5859 201.05 8.4219L114.115 85.223C111.229 87.77 111.673 92.399 114.986 94.353L124.504 99.964C127.396 101.667 128.178 105.503 126.191 108.205L86.076 162.712C83.789 165.82 85.205 170.254 88.868 171.459Z" fill="#54ACFF"/>
<path d="M392.73 213.256L473.849 241.866C476.685 242.865 479.693 240.873 479.876 237.87L484.516 161.874C484.683 159.132 487.236 157.168 489.927 157.706C493.152 158.35 495.971 155.453 495.233 152.25L478.511 79.5789C477.734 76.2149 473.633 74.917 471.063 77.225L408.342 133.691C405.717 136.055 406.683 140.379 410.068 141.394L417.145 143.531C419.864 144.353 421.168 147.444 419.853 149.958L390.216 206.896C388.945 209.338 390.133 212.34 392.73 213.256Z" fill="#54ACFF"/>
<path d="M46 47.132L51.496 44.851C48.259 37.296 49.664 28.324 46.1602 20.886C48.297 20.294 50.428 19.708 52.565 19.117C52.875 19.032 53.211 18.946 53.516 19.042C53.964 19.186 54.205 19.666 54.397 20.097C57.094 26.15 60.556 31.862 64.685 37.046" stroke="#FF911E" stroke-width="5" stroke-linecap="round" stroke-linejoin="round"/>
<path d="M65.192 39.3689L62.842 40.3059" stroke="#FF911E" stroke-width="5" stroke-linecap="round" stroke-linejoin="round"/>
<path d="M288.708 95.228L297.58 95.201C295.892 92.67 296.079 89.383 296.336 86.351C296.613 83.059 296.891 79.761 297.169 76.468" stroke="#FF911E" stroke-width="5" stroke-linecap="round" stroke-linejoin="round"/>
<path d="M316.478 108.996L323.727 107.435C320.1 98.526 318.295 88.882 318.455 79.271" stroke="#FF911E" stroke-width="5" stroke-linecap="round" stroke-linejoin="round"/>
<path d="M317.878 78.7801C311.564 79.1051 305.197 78.4341 299.086 76.7981" stroke="#FF911E" stroke-width="5" stroke-linecap="round" stroke-linejoin="round"/>
<path d="M296.234 88.1259C303.36 88.0079 310.496 88.8069 317.418 90.4959" stroke="#FF911E" stroke-width="5" stroke-linecap="round" stroke-linejoin="round"/>
<path d="M290.406 258.096C290.641 268.091 290.876 278.092 291.112 288.087C291.112 288.247 291.112 288.428 291.015 288.556C290.876 288.732 290.62 288.743 290.396 288.737C287.794 288.673 285.193 288.604 282.592 288.54" stroke="#FF911E" stroke-width="5" stroke-linecap="round" stroke-linejoin="round"/>
<path d="M292.831 258.218C296.987 261.943 301.143 265.667 305.299 269.391C305.603 269.663 305.934 269.988 305.94 270.398C305.94 270.713 305.753 270.99 305.571 271.245C304.22 273.142 302.868 275.034 301.517 276.93" stroke="#FF911E" stroke-width="5" stroke-linecap="round" stroke-linejoin="round"/>
<path d="M169.426 113.328C173.949 111.985 179.033 112.69 183.024 115.204" stroke="black" stroke-width="6" stroke-miterlimit="10" stroke-linecap="round" stroke-linejoin="round"/>
<path d="M201.283 122.991C204.552 123.218 207.654 125.161 209.286 128.002" stroke="black" stroke-width="6" stroke-miterlimit="10" stroke-linecap="round" stroke-linejoin="round"/>
<path d="M446.088 146.306C445.661 154.437 445.444 163.311 450.312 169.838C450.706 170.365 451.238 170.92 451.893 170.865C452.504 170.809 452.926 170.249 453.253 169.738C457.76 162.712 460.562 154.598 461.345 146.284" stroke="black" stroke-width="6" stroke-miterlimit="10" stroke-linecap="round" stroke-linejoin="round"/>
<path d="M447.531 124.939C447.531 125.272 447.531 125.605 447.531 125.938C447.531 126.648 447.842 127.397 448.341 127.902C448.824 128.385 449.612 128.746 450.306 128.713C451.022 128.679 451.766 128.446 452.271 127.902C452.77 127.359 453.081 126.693 453.081 125.938C453.081 125.605 453.081 125.272 453.081 124.939C453.081 124.228 452.77 123.479 452.271 122.974C451.788 122.491 451 122.13 450.306 122.164C449.59 122.197 448.846 122.43 448.341 122.974C447.847 123.518 447.531 124.184 447.531 124.939Z" fill="black"/>
<path d="M460.296 128.268C460.296 128.601 460.296 128.934 460.296 129.267C460.296 129.978 460.607 130.727 461.106 131.232C461.589 131.715 462.377 132.076 463.071 132.042C463.787 132.009 464.531 131.776 465.036 131.232C465.535 130.688 465.846 130.022 465.846 129.267C465.846 128.934 465.846 128.601 465.846 128.268C465.846 127.558 465.535 126.809 465.036 126.304C464.553 125.821 463.765 125.46 463.071 125.493C462.355 125.527 461.611 125.76 461.106 126.304C460.612 126.848 460.296 127.514 460.296 128.268Z" fill="black"/>
<path d="M174.71 136.782C174.332 139.818 175.492 143.004 177.734 145.091C179.977 147.177 183.234 148.104 186.237 147.51C186.909 147.377 187.575 147.172 188.163 146.822C189.084 146.284 189.772 145.435 190.444 144.608C191.337 143.509 192.225 142.41 193.119 141.311" stroke="black" stroke-width="6" stroke-miterlimit="10" stroke-linecap="round" stroke-linejoin="round"/>
</g>
</g>
<defs>
<clipPath id="clip0_2211_155">
<rect width="504" height="336" fill="white"/>
</clipPath>
</defs>
</svg>
