<svg width="169" height="287" viewBox="0 0 169 287" fill="none" xmlns="http://www.w3.org/2000/svg">
<g clip-path="url(#clip0_2398_8)">
<mask id="mask0_2398_8" style="mask-type:luminance" maskUnits="userSpaceOnUse" x="-358" y="-93" width="633" height="410">
<path d="M225 -92.2651H-308C-335.614 -92.2651 -358 -72.2883 -358 -47.6457V271.829C-358 296.472 -335.614 316.449 -308 316.449H225C252.614 316.449 275 296.472 275 271.829V-47.6457C275 -72.2883 252.614 -92.2651 225 -92.2651Z" fill="white"/>
</mask>
<g mask="url(#mask0_2398_8)">
<path d="M50.51 154.189C50.998 161.405 44.185 167.023 36.944 169.099C33.41 170.113 28.62 170.814 25.413 168.637C21.772 166.168 20.73 160.662 20.022 156.929C19.195 152.575 19.058 148.046 19.118 143.633C19.172 139.535 19.826 135.557 22.724 132.238C28.763 125.321 39.396 124.142 48.511 125.411C53.378 126.09 55.478 119.437 50.57 118.752C40.657 117.371 30.084 117.993 21.801 123.557C13.507 129.133 11.252 137.049 11.401 145.97C11.544 154.37 12.014 164.83 18.101 171.733C24.092 178.524 34.814 177.653 42.769 174.419C51.54 170.851 58.858 163.152 58.251 154.184C57.948 149.771 50.207 149.745 50.51 154.189Z" fill="#FF931E"/>
<path d="M121.946 161.724C123.945 168.965 133.525 172.257 141.152 170.882C151.119 169.088 153.177 158.569 152.565 150.892C151.898 142.577 148.054 134.952 142.098 128.596C136.529 122.659 128.17 116.48 119.399 115.168C114.532 114.44 112.438 121.093 117.341 121.826C123.671 122.771 129.336 126.738 133.78 130.704C138.433 134.857 142.027 139.895 143.764 145.582C145.246 150.419 146.234 158.32 142.497 162.615C139.409 166.162 130.573 164.123 129.407 159.892C128.211 155.58 120.75 157.401 121.946 161.724Z" fill="#FF931E"/>
<path d="M125.557 187.746H42.852C38.925 187.746 35.712 184.879 35.712 181.374V107.569C35.712 104.065 38.925 101.198 42.852 101.198H125.557C129.484 101.198 132.697 104.065 132.697 107.569V181.374C132.697 184.879 129.484 187.746 125.557 187.746Z" fill="#FF931E"/>
<path d="M19.017 159.849C20.01 174.79 24.872 189.286 29.697 203.617C31.208 208.099 33.576 213.313 38.711 214.226C41.71 214.762 44.84 213.53 47.041 211.629C49.243 209.733 50.665 207.244 51.938 204.764C59.584 189.902 63.416 173.485 63.053 157.136" stroke="black" stroke-width="6" stroke-miterlimit="10" stroke-linecap="round" stroke-linejoin="round"/>
<path d="M73.37 163.598C73.65 196.693 73.929 229.789 74.209 262.889" stroke="black" stroke-width="6" stroke-miterlimit="10" stroke-linecap="round" stroke-linejoin="round"/>
<path d="M73.269 262.931C71.246 262.624 69.146 262.746 67.182 263.282" stroke="black" stroke-width="6" stroke-miterlimit="10" stroke-linecap="round" stroke-linejoin="round"/>
<path d="M92.464 163.062C93.868 195.775 93.785 228.541 92.214 261.249" stroke="black" stroke-width="6" stroke-miterlimit="10" stroke-linecap="round" stroke-linejoin="round"/>
<path d="M92.63 261.784C95.456 262.029 98.33 261.859 101.097 261.286" stroke="black" stroke-width="6" stroke-miterlimit="10" stroke-linecap="round" stroke-linejoin="round"/>
<path d="M115.633 164.67C114.366 182.017 122.059 199.731 136.095 211.783C137.761 213.212 140.076 214.656 142.188 213.822C143.425 213.333 144.145 212.187 144.722 211.098C149.625 201.79 149.97 191.149 150.077 180.865C150.191 169.529 150.119 158.193 149.857 146.861" stroke="black" stroke-width="6" stroke-miterlimit="10" stroke-linecap="round" stroke-linejoin="round"/>
<path d="M41.591 160.497L127.872 165.706C133.59 166.051 137.701 160.89 135.458 156.186L120.036 123.818C117.882 119.293 121.601 114.282 127.104 114.282C133.007 114.282 136.702 108.589 133.774 104.023L87.239 31.4654C84.175 26.692 76.375 26.9205 73.668 31.8643L35.641 101.315C33.374 105.452 36.236 110.368 41.329 111.096L42.609 111.276C47.464 111.966 50.349 116.496 48.541 120.573L34.963 151.141C33.053 155.448 36.397 160.184 41.591 160.497Z" fill="#54ACFF"/>
<path d="M80.195 104.872C84.021 104.872 84.032 99.5627 80.195 99.5627C76.363 99.5627 76.357 104.872 80.195 104.872Z" fill="black"/>
<path d="M94.106 104.872C97.932 104.872 97.944 99.5627 94.106 99.5627C90.274 99.5627 90.268 104.872 94.106 104.872Z" fill="black"/>
</g>
<path d="M93.1012 124.577C92.7043 121.91 89.9175 119.372 87.031 119.051C84.1447 118.729 81.5767 120.671 81.4367 123.274" stroke="black" stroke-width="5" stroke-miterlimit="10" stroke-linecap="round" stroke-linejoin="round"/>
<path d="M162.241 145.512C161.802 142.444 158.863 140.078 155.839 140.361C152.815 140.644 150.144 143.534 150.02 146.65" stroke="black" stroke-width="6" stroke-miterlimit="10" stroke-linecap="round" stroke-linejoin="round"/>
<path d="M18.7052 159.067C18.5953 155.969 15.9244 153.304 12.8874 153.264C9.85062 153.223 6.88746 155.813 6.43308 158.898" stroke="black" stroke-width="6" stroke-miterlimit="10" stroke-linecap="round" stroke-linejoin="round"/>
</g>
<defs>
<clipPath id="clip0_2398_8">
<rect width="169" height="287" fill="white"/>
</clipPath>
</defs>
</svg>
